<?xml version="1.0" encoding="utf-8"?>
<!-- Generator: Adobe Illustrator 24.0.1, SVG Export Plug-In . SVG Version: 6.00 Build 0)  -->
<svg version="1.1" xmlns="http://www.w3.org/2000/svg" xmlns:xlink="http://www.w3.org/1999/xlink" x="0px" y="0px"
	 viewBox="0 0 1500 500" style="enable-background:new 0 0 1500 500;" xml:space="preserve">
<style type="text/css">
	.st0{fill:#FFFFFF;}
	.st1{font-family:'FONTSPRINGDEMO-TTCommonsProCondBold';}
	.st2{font-size:119.2554px;}
	.st3{font-family:'FONTSPRINGDEMO-TTCommonsProMediumRegular';}
	.st4{font-size:137.7826px;}
	.st5{fill:none;}
	.st6{font-family:'Roboto-Bold';}
	.st7{font-size:14.687px;}
	.st8{fill:#FF0000;}
	.st9{font-family:'NirmalaUI';}
	.st10{font-size:16.0671px;}
</style>
<g id="BACKGROUND">
</g>
<g id="OBJECTS">
	<g>
		<text transform="matrix(1 0 0 1 284.4405 243.7127)" class="st0 st1 st2">Habiganj Govt. High School </text>
		<text transform="matrix(1 0 0 0.8 284.4405 336.7098)" class="st0 st3 st4">Alumni Association</text>
		<path id="SVGID_x5F_1_x5F_" class="st5" d="M230.42,250.87c0,45.73-37.07,82.8-82.8,82.8s-82.8-37.07-82.8-82.8
			s37.07-82.8,82.8-82.8S230.42,205.13,230.42,250.87z"/>
		<text class="st0 st6 st7">		<textPath  xlink:href="#SVGID_x5F_1_x5F_" startOffset="6066.6016%">
Habiganj Govt. High SchoolAlumni Association		</textPath>
</text>
		<g>
			<g>
				<path class="st0" d="M108.46,215.72c-2.3,1.95-2.82,5.12-2.82,5.12s3.21,0.01,5.52-1.93c2.3-1.95,2.82-5.12,2.82-5.12
					S110.76,213.78,108.46,215.72"/>
				<path class="st0" d="M121.3,291.13c1.82,2.53,1.83,5.44,1.8,5.45c0.01,0.04-3.98-1.24-5.69-4.02c-1.71-2.75-0.72-5.49-0.75-5.48
					C116.68,287.1,119.48,288.62,121.3,291.13"/>
				<path class="st0" d="M118.16,299.54c3.56-0.47,4.98-3.09,4.98-3.07c-0.04,0.01-3.79-1.22-7.07-0.96
					c-3.31,0.28-5.33,2.25-5.33,2.27C110.69,297.79,114.56,300.02,118.16,299.54"/>
				<path class="st0" d="M114.43,287.79c1.22,2.75,0.64,5.55,0.61,5.55c0,0.04-3.47-1.85-4.56-4.83c-1.09-2.94,0.37-5.42,0.34-5.42
					C110.83,283.13,113.21,285.07,114.43,287.79"/>
				<path class="st0" d="M109.82,295.38c3.44,0.14,5.28-2.16,5.27-2.13c-0.04,0-3.3-1.81-6.46-2.11c-3.19-0.29-5.5,1.28-5.5,1.3
					C103.08,292.44,106.34,295.25,109.82,295.38"/>
				<path class="st0" d="M108.55,283.41c0.64,2.86-0.45,5.47-0.48,5.47c0,0.04-2.95-2.38-3.44-5.44c-0.5-3.03,1.36-5.19,1.33-5.19
					C105.96,278.28,107.9,280.57,108.55,283.41"/>
				<path class="st0" d="M102.7,289.97c3.26,0.72,5.44-1.19,5.43-1.17c-0.04,0-2.79-2.3-5.78-3.13c-3.02-0.83-5.54,0.29-5.54,0.32
					C96.78,285.97,99.41,289.25,102.7,289.97"/>
				<path class="st0" d="M103.7,278.16c0.1,2.89-1.44,5.22-1.46,5.22c-0.01,0.04-2.41-2.81-2.34-5.87c0.05-3.03,2.23-4.81,2.21-4.82
					C102.11,272.71,103.59,275.29,103.7,278.16"/>
				<path class="st0" d="M96.86,283.51c3.02,1.26,5.47-0.22,5.46-0.2c-0.03-0.01-2.26-2.71-5.02-4.04
					c-2.79-1.33-5.44-0.68-5.45-0.66C91.81,278.6,93.8,282.24,96.86,283.51"/>
				<path class="st0" d="M99.92,272.2c-0.4,2.83-2.32,4.83-2.34,4.83c-0.01,0.03-1.85-3.15-1.26-6.13c0.57-2.95,3-4.31,2.98-4.31
					C99.3,266.61,100.32,269.39,99.92,272.2"/>
				<path class="st0" d="M92.32,276.21c2.73,1.75,5.37,0.74,5.36,0.76c-0.03-0.01-1.73-3.03-4.2-4.82c-2.49-1.79-5.2-1.62-5.21-1.61
					C88.24,270.53,89.56,274.44,92.32,276.21"/>
				<path class="st0" d="M97.25,265.72c-0.87,2.7-3.08,4.31-3.1,4.3c-0.02,0.03-1.27-3.41-0.2-6.22c1.05-2.79,3.66-3.69,3.64-3.7
					C97.57,260.13,98.1,263.04,97.25,265.72"/>
				<path class="st0" d="M89.13,268.29c2.37,2.2,5.12,1.68,5.11,1.7c-0.03-0.02-1.17-3.27-3.29-5.45c-2.14-2.2-4.82-2.52-4.83-2.5
					C86.09,262,86.73,266.08,89.13,268.29"/>
				<path class="st0" d="M95.71,258.88c-1.3,2.5-3.74,3.68-3.75,3.67c-0.02,0.03-0.68-3.57,0.84-6.15c1.49-2.56,4.2-2.98,4.18-2.99
					C96.96,253.43,97,256.4,95.71,258.88"/>
				<path class="st0" d="M87.34,259.96c1.96,2.58,4.74,2.56,4.72,2.58c-0.02-0.02-0.61-3.41-2.32-5.95
					c-1.73-2.55-4.29-3.35-4.31-3.33C85.41,253.23,85.36,257.36,87.34,259.96"/>
				<path class="st0" d="M95.35,251.87c-1.7,2.23-4.28,2.96-4.29,2.95c-0.03,0.03-0.07-3.64,1.86-5.93c1.9-2.27,4.62-2.2,4.61-2.22
					C97.5,246.7,97.02,249.65,95.35,251.87"/>
				<path class="st0" d="M86.98,251.43c1.48,2.9,4.2,3.38,4.19,3.39c-0.02-0.02-0.02-3.47-1.26-6.29c-1.26-2.83-3.62-4.09-3.64-4.08
					C86.24,244.42,85.47,248.51,86.98,251.43"/>
				<path class="st0" d="M96.2,244.86c-2.05,1.91-4.7,2.17-4.71,2.16c-0.03,0.02,0.56-3.62,2.86-5.55c2.27-1.92,4.92-1.37,4.91-1.39
					C99.23,240.09,98.23,242.96,96.2,244.86"/>
				<path class="st0" d="M88.09,242.92c0.94,3.15,3.53,4.1,3.51,4.11c-0.01-0.03,0.58-3.45-0.13-6.48c-0.72-3.04-2.8-4.72-2.83-4.71
					C88.62,235.81,87.13,239.75,88.09,242.92"/>
				<path class="st0" d="M98.3,238.02c-2.36,1.55-5,1.33-5.01,1.32c-0.04,0.02,1.21-3.51,3.83-5.04c2.59-1.52,5.1-0.51,5.09-0.53
					C102.19,233.78,100.63,236.48,98.3,238.02"/>
				<path class="st0" d="M90.71,234.64c0.34,3.31,2.7,4.72,2.68,4.73c-0.01-0.03,1.19-3.33,1.08-6.49
					c-0.12-3.18-1.83-5.23-1.86-5.22C92.6,227.62,90.36,231.31,90.71,234.64"/>
				<path class="st0" d="M101.68,231.54c-2.63,1.14-5.18,0.46-5.18,0.44c-0.04,0.01,1.87-3.31,4.79-4.4
					c2.88-1.09,5.15,0.36,5.15,0.34C106.4,227.93,104.28,230.39,101.68,231.54"/>
				<path class="st0" d="M94.89,226.82c-0.33,3.38,1.72,5.21,1.69,5.21c-0.01-0.03,1.82-3.13,2.37-6.34
					c0.54-3.22-0.71-5.58-0.73-5.58C98.21,220.07,95.21,223.4,94.89,226.82"/>
				<path class="st0" d="M106.38,225.58c-2.86,0.71-5.23-0.42-5.23-0.44c-0.04,0.01,2.55-3.01,5.72-3.63
					c3.12-0.61,5.08,1.23,5.08,1.21C111.9,222.73,109.21,224.87,106.38,225.58"/>
				<path class="st0" d="M100.67,219.65c-1.07,3.36,0.59,5.55,0.56,5.55c0-0.03,2.46-2.85,3.74-6c1.27-3.17,0.58-5.78,0.55-5.78
					C105.51,213.39,101.72,216.26,100.67,219.65"/>
				<path class="st0" d="M134.41,297.89l-0.03-0.62c-5.17,0.27-10.28-0.49-15.2-2.28c-4.79-1.74-9.19-4.37-13.07-7.81
					c-8.06-7.14-13.05-17.09-14.06-28.02c-0.83-8.94,0.07-16.85,2.66-23.51c2.79-7.15,7.48-12.64,13.94-16.34l-0.31-0.54
					c-6.59,3.77-11.37,9.37-14.22,16.65c-2.63,6.75-3.54,14.75-2.7,23.79c1.03,11.08,6.1,21.18,14.27,28.43
					c3.94,3.49,8.41,6.16,13.27,7.93C123.95,297.39,129.15,298.17,134.41,297.89"/>
			</g>
			<g>
				<g>
					<path class="st0" d="M185.41,215.72c2.3,1.95,2.82,5.12,2.82,5.12s-3.21,0.01-5.52-1.93c-2.3-1.95-2.82-5.12-2.82-5.12
						S183.1,213.78,185.41,215.72"/>
					<path class="st0" d="M172.56,291.13c-1.82,2.53-1.83,5.44-1.8,5.45c-0.01,0.04,3.98-1.24,5.69-4.02
						c1.71-2.75,0.72-5.49,0.75-5.48C177.19,287.1,174.39,288.62,172.56,291.13"/>
					<path class="st0" d="M175.71,299.54c-3.56-0.47-4.98-3.09-4.98-3.07c0.04,0.01,3.79-1.22,7.07-0.96
						c3.31,0.28,5.33,2.25,5.33,2.27C183.17,297.79,179.3,300.02,175.71,299.54"/>
					<path class="st0" d="M179.44,287.79c-1.22,2.75-0.64,5.55-0.61,5.55c0,0.04,3.47-1.85,4.56-4.83c1.09-2.94-0.37-5.42-0.34-5.42
						C183.03,283.13,180.66,285.07,179.44,287.79"/>
					<path class="st0" d="M184.05,295.38c-3.44,0.14-5.28-2.16-5.27-2.13c0.04,0,3.3-1.81,6.46-2.11c3.19-0.29,5.5,1.28,5.5,1.3
						C190.78,292.44,187.52,295.25,184.05,295.38"/>
					<path class="st0" d="M185.32,283.41c-0.64,2.86,0.45,5.47,0.48,5.47c0,0.04,2.95-2.38,3.44-5.44c0.5-3.03-1.36-5.19-1.33-5.19
						C187.9,278.28,185.96,280.57,185.32,283.41"/>
					<path class="st0" d="M191.16,289.97c-3.26,0.72-5.44-1.19-5.43-1.17c0.04,0,2.79-2.3,5.78-3.13c3.02-0.83,5.54,0.29,5.54,0.32
						C197.09,285.97,194.46,289.25,191.16,289.97"/>
					<path class="st0" d="M190.16,278.16c-0.1,2.89,1.44,5.22,1.46,5.22c0.01,0.04,2.41-2.81,2.34-5.87
						c-0.05-3.03-2.23-4.81-2.21-4.82C191.76,272.71,190.27,275.29,190.16,278.16"/>
					<path class="st0" d="M197.01,283.51c-3.02,1.26-5.47-0.22-5.46-0.2c0.03-0.01,2.26-2.71,5.02-4.04
						c2.79-1.33,5.44-0.68,5.45-0.66C202.05,278.6,200.06,282.24,197.01,283.51"/>
					<path class="st0" d="M193.94,272.2c0.4,2.83,2.32,4.83,2.34,4.83c0.01,0.03,1.85-3.15,1.26-6.13c-0.57-2.95-3-4.31-2.98-4.31
						C194.57,266.61,193.55,269.39,193.94,272.2"/>
					<path class="st0" d="M201.54,276.21c-2.73,1.75-5.37,0.74-5.36,0.76c0.03-0.01,1.73-3.03,4.2-4.82
						c2.49-1.79,5.2-1.62,5.21-1.61C205.63,270.53,204.3,274.44,201.54,276.21"/>
					<path class="st0" d="M196.62,265.72c0.87,2.7,3.08,4.31,3.1,4.3c0.02,0.03,1.27-3.41,0.2-6.22c-1.05-2.79-3.66-3.69-3.64-3.7
						C196.3,260.13,195.76,263.04,196.62,265.72"/>
					<path class="st0" d="M204.73,268.29c-2.37,2.2-5.12,1.68-5.11,1.7c0.03-0.02,1.17-3.27,3.29-5.45c2.14-2.2,4.82-2.52,4.83-2.5
						C207.78,262,207.13,266.08,204.73,268.29"/>
					<path class="st0" d="M198.16,258.88c1.3,2.5,3.74,3.68,3.75,3.67c0.02,0.03,0.68-3.57-0.84-6.15c-1.49-2.56-4.2-2.98-4.18-2.99
						C196.91,253.43,196.87,256.4,198.16,258.88"/>
					<path class="st0" d="M206.53,259.96c-1.96,2.58-4.74,2.56-4.72,2.58c0.02-0.02,0.61-3.41,2.32-5.95
						c1.73-2.55,4.3-3.35,4.31-3.33C208.46,253.23,208.51,257.36,206.53,259.96"/>
					<path class="st0" d="M198.52,251.87c1.7,2.23,4.28,2.96,4.29,2.95c0.03,0.03,0.07-3.64-1.86-5.93c-1.9-2.27-4.62-2.2-4.61-2.22
						C196.36,246.7,196.84,249.65,198.52,251.87"/>
					<path class="st0" d="M206.89,251.43c-1.48,2.9-4.2,3.38-4.19,3.39c0.02-0.02,0.02-3.47,1.26-6.29
						c1.26-2.83,3.62-4.09,3.64-4.08C207.63,244.42,208.39,248.51,206.89,251.43"/>
					<path class="st0" d="M197.67,244.86c2.05,1.91,4.7,2.17,4.71,2.16c0.03,0.02-0.56-3.62-2.86-5.55
						c-2.27-1.92-4.92-1.37-4.91-1.39C194.63,240.09,195.64,242.96,197.67,244.86"/>
					<path class="st0" d="M205.78,242.92c-0.94,3.15-3.53,4.1-3.51,4.11c0.01-0.03-0.58-3.45,0.13-6.48
						c0.72-3.04,2.8-4.72,2.83-4.71C205.25,235.81,206.74,239.75,205.78,242.92"/>
					<path class="st0" d="M195.57,238.02c2.36,1.55,5,1.33,5.01,1.32c0.04,0.02-1.21-3.51-3.83-5.04c-2.59-1.52-5.1-0.51-5.09-0.53
						C191.68,233.78,193.23,236.48,195.57,238.02"/>
					<path class="st0" d="M203.15,234.64c-0.34,3.31-2.7,4.72-2.68,4.73c0.01-0.03-1.19-3.33-1.08-6.49
						c0.12-3.18,1.83-5.23,1.86-5.22C201.27,227.62,203.51,231.31,203.15,234.64"/>
					<path class="st0" d="M192.18,231.54c2.63,1.14,5.18,0.46,5.18,0.44c0.04,0.01-1.87-3.31-4.79-4.4
						c-2.88-1.09-5.16,0.36-5.15,0.34C187.47,227.93,189.58,230.39,192.18,231.54"/>
					<path class="st0" d="M198.97,226.82c0.33,3.38-1.72,5.21-1.69,5.21c0.01-0.03-1.82-3.13-2.37-6.34
						c-0.54-3.22,0.71-5.58,0.73-5.58C195.66,220.07,198.66,223.4,198.97,226.82"/>
					<path class="st0" d="M187.48,225.58c2.86,0.71,5.23-0.42,5.23-0.44c0.04,0.01-2.55-3.01-5.72-3.63
						c-3.12-0.61-5.08,1.23-5.08,1.21C181.96,222.73,184.65,224.87,187.48,225.58"/>
					<path class="st0" d="M193.2,219.65c1.07,3.36-0.59,5.55-0.56,5.55c0-0.03-2.46-2.85-3.74-6c-1.27-3.17-0.58-5.78-0.55-5.78
						C188.36,213.39,192.14,216.26,193.2,219.65"/>
				</g>
				<path class="st0" d="M159.46,297.89l0.03-0.62c5.17,0.27,10.28-0.49,15.2-2.28c4.79-1.74,9.19-4.37,13.07-7.81
					c8.06-7.14,13.05-17.09,14.06-28.02c0.83-8.94-0.07-16.85-2.66-23.51c-2.79-7.15-7.48-12.64-13.94-16.34l0.31-0.54
					c6.59,3.77,11.37,9.37,14.22,16.65c2.63,6.75,3.54,14.75,2.7,23.79c-1.03,11.08-6.1,21.18-14.27,28.43
					c-3.94,3.49-8.41,6.16-13.27,7.93C169.91,297.39,164.71,298.17,159.46,297.89"/>
			</g>
			<g>
				<polygon class="st0" points="146.93,192.39 149.59,197.77 155.53,198.64 151.23,202.83 152.25,208.75 146.93,205.95 
					141.62,208.75 142.63,202.83 138.33,198.64 144.28,197.77 				"/>
				<polygon class="st0" points="126.47,202.41 128.43,206.39 132.82,207.03 129.64,210.12 130.39,214.5 126.47,212.43 
					122.54,214.5 123.29,210.12 120.11,207.03 124.5,206.39 				"/>
				<polygon class="st0" points="167.4,202.41 169.36,206.39 173.75,207.03 170.58,210.12 171.33,214.5 167.4,212.43 163.47,214.5 
					164.22,210.12 161.05,207.03 165.44,206.39 				"/>
			</g>
			<g>
				<polygon class="st0" points="146.24,297.43 144.71,294.34 141.3,293.84 143.77,291.43 143.19,288.03 146.24,289.63 
					149.3,288.03 148.71,291.43 151.19,293.84 147.77,294.34 				"/>
				<polygon class="st0" points="158.01,291.67 156.88,289.38 154.36,289.01 156.18,287.23 155.75,284.72 158.01,285.91 
					160.27,284.72 159.83,287.23 161.66,289.01 159.14,289.38 				"/>
				<polygon class="st0" points="134.47,291.67 133.34,289.38 130.82,289.01 132.65,287.23 132.22,284.72 134.47,285.91 
					136.73,284.72 136.3,287.23 138.13,289.01 135.6,289.38 				"/>
			</g>
			<g>
				<path class="st0" d="M161.69,229.15c-0.18-0.03-1.64-0.27-3.62-0.36v-3.43c0-0.21-0.16-0.39-0.38-0.41
					c-0.1-0.01-9.17-0.65-11.33,6.28c-2.16-6.94-11.23-6.3-11.33-6.28c-0.21,0.02-0.38,0.19-0.38,0.41v3.43
					c-2.05,0.08-3.59,0.33-3.78,0.36c-0.2,0.03-0.34,0.21-0.34,0.41v10.39c0,0.23,0.18,0.41,0.41,0.41c0.14,0,13.95,0.07,14.87,5.7
					c0.03,0.2,0.21,0.34,0.41,0.34h0.04c0.01,0,0.01,0,0.02,0c0.01,0,0.02,0,0.04,0h0.02c0.01,0,0.01,0,0.02,0c0,0,0,0,0,0
					c0.01,0,0.01,0,0.02,0h0.02c0.21,0,0.39-0.16,0.41-0.37c0.02-0.2,0.05-0.39,0.08-0.58c1.77-5.04,14.58-5.1,14.72-5.1
					c0.22,0,0.41-0.18,0.41-0.41v-10.39C162.03,229.36,161.89,229.19,161.69,229.15z M161.21,239.54
					c-1.84,0.04-9.12,0.36-12.95,3.04c2.96-3.64,9.36-4.23,9.44-4.24c0.21-0.02,0.38-0.2,0.38-0.41v-8.3
					c1.43,0.06,2.59,0.2,3.14,0.28V239.54z M131.37,239.54v-9.63c0.57-0.08,1.79-0.23,3.3-0.29v8.3c0,0.21,0.16,0.39,0.38,0.41
					c0.08,0.01,6.82,0.62,9.66,4.53C141.01,239.92,133.27,239.58,131.37,239.54z M135.49,228.76v-3.01
					c1.76-0.05,8.89,0.12,10.28,6.43c0.06,0.27,0.11,0.56,0.15,0.86v0.27v9.91c-0.03-0.06-0.06-0.12-0.1-0.17
					c-2.42-4.26-8.7-5.28-10.33-5.48v-7.96v-0.41V228.76z M157.25,225.75v3.01v0.42v0.42v7.95c-1.65,0.2-8.08,1.25-10.43,5.65v-9.13
					v-1.05c0.01-0.04,0.01-0.07,0.01-0.1v0c0.05-0.38,0.12-0.73,0.21-1.07C148.6,225.87,155.52,225.7,157.25,225.75z"/>
				<path class="st0" d="M148.97,232.95c0.05,0.02,0.1,0.03,0.15,0.03c0.16,0,0.32-0.1,0.38-0.26c0.01-0.03,0.11-0.28,0.32-0.61
					c0.42-0.68,1.31-1.74,2.89-2.17c0.17-0.03,0.33-0.06,0.5-0.08h0l0.05-0.04c0.23-0.04,0.48-0.06,0.73-0.07
					c0.23-0.01,0.41-0.2,0.4-0.42c0-0.01,0-0.02,0-0.03c-0.02-0.21-0.22-0.37-0.42-0.37c-0.12,0-0.22,0.01-0.33,0.02
					c-0.01,0-0.02,0-0.02,0c-0.25,0.02-0.49,0.05-0.72,0.1c-0.01,0-0.01,0-0.02,0c-0.92,0.19-1.66,0.55-2.24,0.98
					c-0.35,0.25-0.64,0.53-0.89,0.81l-0.01,0c-0.7,0.78-0.99,1.52-1.01,1.58C148.65,232.63,148.76,232.87,148.97,232.95z"/>
				<path class="st0" d="M148.97,236.19c0.05,0.02,0.1,0.02,0.15,0.02c0.16,0,0.32-0.1,0.38-0.26c0-0.01,0.1-0.27,0.33-0.62
					c0.48-0.75,1.52-1.97,3.42-2.28c0.24-0.04,0.48-0.07,0.74-0.07c0.23-0.01,0.41-0.2,0.4-0.42c-0.01-0.22-0.21-0.4-0.42-0.39
					c-3.91,0.13-5.18,3.37-5.24,3.5C148.65,235.87,148.76,236.11,148.97,236.19z"/>
				<path class="st0" d="M138.29,229.71c0.04,0.02,0.08,0.02,0.12,0.02c0.09,0,0.18,0.01,0.26,0.02c0.16,0.02,0.32,0.04,0.48,0.06
					c0.05,0.01,0.09,0.01,0.14,0.02c0,0,0.01,0,0.01,0c1.82,0.35,2.82,1.52,3.28,2.26c0.21,0.34,0.31,0.58,0.32,0.62
					c0.06,0.16,0.22,0.26,0.38,0.26c0.05,0,0.1-0.01,0.15-0.02c0.21-0.08,0.32-0.32,0.24-0.53c-0.03-0.07-0.35-0.89-1.13-1.72
					c-0.25-0.27-0.55-0.53-0.91-0.78c-0.78-0.54-1.83-0.96-3.19-1.01c-0.21-0.01-0.39,0.15-0.42,0.35c0,0.01-0.01,0.03-0.01,0.04
					C138.01,229.5,138.13,229.65,138.29,229.71z"/>
				<path class="st0" d="M138.41,232.97c0.26,0.01,0.51,0.03,0.74,0.07c1.92,0.31,2.96,1.53,3.43,2.29
					c0.21,0.34,0.31,0.58,0.32,0.62c0.06,0.16,0.22,0.26,0.38,0.26c0.05,0,0.1-0.01,0.15-0.02c0.21-0.08,0.32-0.32,0.24-0.53
					c-0.05-0.14-1.33-3.37-5.23-3.5c-0.23-0.01-0.42,0.17-0.42,0.39C138.01,232.78,138.19,232.97,138.41,232.97z"/>
			</g>
			<path class="st0" d="M175.72,227.83c0,0-9.8,13.16-18.9,22.66c-1.3,1.49-4.74,4.15-9.94,4.24c-5.2,0.09-8.65-2.46-9.24-3.01
				c-9.61-7.5-19.59-22.94-19.59-22.94l28.24,49.06l0.25,0.44l15.39-26.68c0,0-0.08,0.11-0.23,0.31L175.72,227.83z"/>
			<path class="st8" d="M119.12,272.7c-0.94,0.38-1.92,0.73-2.94,1.06c-2.46,0.8-1.85,4.46,0.74,4.46l29.14,0.04l0.51,0
				l-15.41-26.67c0,0,0.05,0.12,0.15,0.35l-13.85-24.17c0,0,6.5,15.07,10.17,27.7c0.65,1.87,1.23,6.18-1.3,10.73
				C123.83,270.75,119.9,272.46,119.12,272.7z"/>
			<path class="st8" d="M176.94,278.2c2.73,0.01,3.19-3.91,0.54-4.52c-0.59-0.14-1.18-0.28-1.75-0.42
				c-1.94-0.38-5.97-2.03-8.64-6.49c-2.67-4.46-2.19-8.72-2.01-9.51c1.69-12.07,10.07-28.43,10.07-28.43l-28.36,48.98l-0.26,0.45
				l30.8-0.01C177.32,278.25,177.18,278.23,176.94,278.2L176.94,278.2z"/>
		</g>
		<g>
			<g>
				<path class="st8" d="M147.61,325.2c-40.99,0-74.34-33.35-74.34-74.34s33.35-74.34,74.34-74.34s74.34,33.35,74.34,74.34
					S188.6,325.2,147.61,325.2z M147.61,177.53c-40.44,0-73.34,32.9-73.34,73.34c0,40.44,32.9,73.34,73.34,73.34
					c40.44,0,73.34-32.9,73.34-73.34C220.95,210.43,188.05,177.53,147.61,177.53z"/>
			</g>
			<g>
				<path class="st8" d="M147.61,351.11c-55.28,0-100.25-44.97-100.25-100.25c0-55.28,44.97-100.25,100.25-100.25
					c55.28,0,100.25,44.97,100.25,100.25C247.86,306.14,202.89,351.11,147.61,351.11z M147.61,151.62
					c-54.73,0-99.25,44.52-99.25,99.25s44.52,99.25,99.25,99.25c54.72,0,99.25-44.52,99.25-99.25S202.34,151.62,147.61,151.62z"/>
			</g>
		</g>
		<g>
			<path class="st0" d="M217.23,304.72l-0.79-0.61c11.9-15.37,18.19-33.78,18.19-53.24c0-11.45-2.19-22.57-6.5-33.04l0.92-0.38
				c4.37,10.59,6.58,21.84,6.58,33.42C235.62,270.55,229.26,289.18,217.23,304.72z"/>
		</g>
		<g>
			<path class="st0" d="M77.98,304.72c-12.03-15.53-18.38-34.16-18.38-53.86c0-11.58,2.21-22.82,6.57-33.42l0.93,0.38
				c-4.31,10.48-6.49,21.6-6.49,33.04c0,19.48,6.29,37.89,18.18,53.24L77.98,304.72z"/>
		</g>
		<path id="SVGID_x5F_2_x5F_" class="st5" d="M238.2,252.28c0-50.03-40.56-90.59-90.59-90.59s-90.59,40.56-90.59,90.59
			s40.56,90.59,90.59,90.59S238.2,302.31,238.2,252.28z"/>
		<text class="st0 st9 st10">		<textPath  xlink:href="#SVGID_x5F_2_x5F_" startOffset="69.4743%">
Alumni Association		</textPath>
</text>
	</g>
</g>
</svg>
