<?xml version="1.0" standalone="no"?>
<!DOCTYPE svg PUBLIC "-//W3C//DTD SVG 1.1//EN" "http://www.w3.org/Graphics/SVG/1.1/DTD/svg11.dtd" >
<svg xmlns="http://www.w3.org/2000/svg" xmlns:xlink="http://www.w3.org/1999/xlink" version="1.1">
<metadata>
Created by FontForge 20170731 at Thu Jan 19 12:24:36 2023
 By Aleksey,,,
Copyright (c) 2022 All Rights Reserved by Ekushey
</metadata>
<defs>
<font id="SolaimanLipi" horiz-adv-x="556" >
  <font-face 
    font-family="SolaimanLipi Thin"
    font-weight="100"
    font-stretch="normal"
    units-per-em="1000"
    panose-1="0 0 0 0 0 0 0 0 0 0"
    ascent="800"
    descent="-200"
    x-height="514"
    cap-height="719"
    bbox="-611 -336 1535 974"
    underline-thickness="40"
    underline-position="-160"
    unicode-range="U+0020-FDFA"
  />
<missing-glyph horiz-adv-x="432" 
d="M61 10v646h313v-646h-313zM74 23h287v620h-287v-620z" />
    <glyph glyph-name="u0980" unicode="&#x9ed;&#x983;&#x983;" horiz-adv-x="522" 
d="M311 270l-131 -3q-25 0 -68 33q-50 38 -61 85l-3 24q0 66 58.5 126t119.5 60q67 0 130 -67q65 -67 65 -128l-2 -14v-330q35 0 47.5 -9t12.5 -36l-1 -17q-3 -13 -17 -26l-17 -6l-29 -1q-9 3 -19 10t-16 17q-13 26 -13 57l2 316q0 37 -28 103t-70 87q-38 9 -95 -38
q-57 -45 -65 -80l-5 -44q0 -41 34 -49l32 -4l95 1z" />
    <glyph glyph-name="u098D" unicode="&#x3c;&#x3c;" horiz-adv-x="278" 
d="M134 604q-18 22 -23 55q-6 46 15 83q21 32 52 35q17 1 32 -12q15 -12 19 -36q4 -29 -11 -51q-14 -18 -32 -14q-12 3 -20 16q-8 20 1 40q8 17 23 17q14 -1 30 -14q-3 41 -35 47q-38 1 -58 -42q-6 -16 -7 -33q0 -19 7 -33q19 -43 58 -50q69 -2 111 -1l-25 -41l-40 1h-6
q-25 1 -49 7t-42 26zM42 690q22 -13 27 -45q3 -29 -13 -49q-14 -16 -32 -11q-11 3 -18 16q-8 20 1 40q9 16 23 16q14 -1 28 -14q-3 43 -38 47q-34 -1 -52 -39q-19 -54 15 -93q33 -27 73 -27l169 2l-6 -10h-166q-97 5 -98 97q2 45 30.5 64.5t56.5 5.5z" />
    <glyph glyph-name="u098E" unicode="&#x3e;&#x3e;" horiz-adv-x="335" 
d="M125 604q-18 -20 -42 -26t-49 -7h-6l-40 -1l-25 41q42 -1 111 1q39 7 58 50q7 14 7 33q-1 17 -7 33q-20 43 -58 42q-32 -6 -28 -46q9 12 23 13q15 0 23 -17q9 -20 1 -40q-8 -13 -20 -16q-18 -4 -32 14q-15 22 -11 51q4 24 19 36q15 13 32 12q31 -3 52 -35q21 -37 15 -83
q-5 -33 -23 -55zM217 690q28 14 56.5 -5.5t30.5 -64.5q-1 -92 -98 -97h-151l-6 10l154 -2q40 0 73 27q34 39 15 93q-18 38 -52 39q-35 -4 -35 -46q11 12 25 13q14 0 23 -16q9 -20 1 -40q-7 -13 -18 -16q-18 -5 -32 11q-16 20 -13 49q5 32 27 45z" />
    <glyph glyph-name="u09BD" unicode="&#x9b9;&#x983;&#x983;" horiz-adv-x="504" 
d="M553 -110l-47 45l-55 44q-19 13 -48 32l-69 43q-26 14 -52 27l-57 26q-23 8 -54 17.5t-65 16.5l-53 130l17 -10l49 -18q23 -7 47 -10.5t45 -3.5h28l22 4l19 5q20 4 32 13q18 7 32 15.5t23 16.5l23 19q24 24 24 53q0 14 -5 27.5t-16 30.5q-6 8 -17 16t-24.5 13.5
t-27.5 8.5t-28 3q-20 0 -34 -8q0 -34 -20 -60l-30 -28l-10 -8q-3 -3 -9 -6t-14.5 -5t-22.5 -2q-23 0 -38 11.5t-22 35.5l-1 14l3 17q3 12 21 33q18 24 60 40l46 16q17 10 2 30q-22 29 -53 37h-170l-41 40h403l39 -40h-161l14 -43q5 -15 19 -23l12 -4q3 0 15 -4t35 -11
q42 -16 75 -63q17 -24 24.5 -45t7.5 -45q0 -10 -0.5 -15t-1.5 -8q-10 -47 -43 -80q-34 -33 -127 -71l13 -23l62 -34l52 -36q38 -28 61 -54l80 -84l10 -37z" />
    <glyph glyph-name="u09FA" unicode="&#x988;&#x983;&#x983;" horiz-adv-x="430" 
d="M243 554q-27 0 -37.5 15t-9.5 34.5t13 35t34 15.5q24 1 38.5 -13t14.5 -39q0 -18 -14 -33t-39 -15zM449 569q-18 -37 -34 -63.5t-28 -43.5q-28 -35 -66 -59.5t-77 -27.5q-28 -2 -67 18t-79 68q-13 16 -22 39t-15.5 47t-10 45.5t-3.5 34.5q0 14 3.5 16t9.5 -12
q4 -9 9 -25.5t12 -35t14.5 -36t17.5 -25.5q26 -32 61.5 -48t69.5 -13q30 0 64.5 20t57.5 48q18 19 30.5 34.5t21.5 30.5l22 33l27 45q18 36 35.5 63t37.5 48q20 25 42 35t46 12q12 1 22.5 0.5t22.5 -1.5q19 -3 24.5 -11t7.5 -20q-1 -16 -4.5 -29.5t-10.5 -23.5l-8 0.5
t-5 0.5q1 17 0.5 34.5t-12.5 29.5q-17 11 -30 12t-35 -6q-18 -10 -31 -22.5t-27 -29.5q-17 -20 -40 -69z" />
    <glyph glyph-name="uFDFA" unicode="&#x9b8;&#x9be;&#x983;&#x983;" horiz-adv-x="1620" arabic-form="isolated" 
d="M1422 -128l-3 3q-3 5 -5 8q-2 20 -5 35q-3 14 -9 30q-7 15 -19 27q-13 13 -24 23q-10 11 -17 18h115v-188q-5 8 -11 15q-5 8 -11 15zM293 775q-1 0 -3 2t-7 4q-4 2 -11 3q-6 1 -15 -3q-6 -2 -11 -7q-7 -4 -15 -9q1 4 1 12t-4 18q-3 10 -11 20q-8 11 -23 18h126v-87l-5 5
l-9 10q-5 5 -8 9zM432 -111q5 8 11 14q5 7 11 14q7 8 15 16l21 21q-13 18 -25 30q-11 12 -19 19l-2 1l-8 6q-5 3 -9 6h95v-207q-16 26 -32 42q-16 15 -29 24t-21 11zM814 -43l-2 2t-6 4q-4 3 -9 3q-5 1 -13 -3q-5 -2 -9 -6q-5 -5 -12 -11v13q0 8 -3 18t-9 20q-7 10 -19 19
h105v-88q-1 1 -5 6l-7 9q-4 5 -7 9q-3 5 -4 5zM424 -216q0 -12 7 -20q8 -9 18 -9q12 0 19 9q7 8 7 20t-7 20t-19 8q-10 0 -18 -8q-7 -8 -7 -20zM1219 860l-9 9l-5 9l-4 22l-10 9v-57l11 -61l-8 23q-11 23 -23 34q-11 10 -23 12h-1h-315l-8 9l-5 9l-4 22l-10 9v-57l11 -61
l-8 23q-11 23 -23 34q-11 10 -24 12v0h-315l-8 9l-5 9l-4 22l-10 9v-57l11 -61l-8 23q-11 23 -23 34q-13 12 -28 12h-299l26 -24l8 -3q0 -1 2 -5t7 -8t13 -7q9 -4 22 -3q9 0 20 -2t21 -7q10 -6 17 -18q7 -13 9 -34q-6 -6 -12 -13q-6 -9 -11 -16l-13 -18q-7 -7 -16 -6
q-6 0 -14 7q-8 8 -14 29l-17 -16q-3 -2 -3 -3q6 -9 12 -20t14 -20q9 -8 19 -14q10 -5 25 -5q3 0 9 2q4 3 10 7t13 13q17 20 27 35q2 3 5 7l2 4l3 3q10 14 22 17q5 2 10 1t11 -4q5 -4 11 -12q5 -8 11 -22v-117l29 -30v275h25q17 -2 28 -15q12 -12 14 -26v-11q1 -6 1 -18v-37
q1 -24 1 -59v-88l27 -27v281h254v-71q-10 17 -19 28q-8 10 -17 14q-8 4 -14 4q-7 0 -13 -4q-15 -7 -25 -28q-4 3 -7 7q-3 2 -7 6q-6 6 -14 10q-9 5 -18 7q-25 4 -40 -2q-15 -5 -24 -14q-11 -12 -16 -27q-6 -23 -3 -40q4 -17 13 -28t23 -16q14 -6 28 -7q14 -2 27 0t20 6
q10 6 13 15q2 9 1 16q-2 13 -11 22q-10 8 -23 8q-12 0 -19 -3q-7 -4 -10 -10t-2 -13q0 -7 4 -14q-10 1 -17 7q-7 5 -11 13q-4 7 -4 15q-1 8 3 16t13 13q8 7 22 9q21 2 35 -5q14 -6 23 -18q11 -11 17 -28l11 5q-3 14 -2 25q2 10 7 16q5 5 13 5t17 -6q7 -4 15 -13q7 -8 11 -17
v-108q-6 8 -15 15t-19 10q-10 2 -20 -3q-10 -6 -17 -24q-7 8 -15 15q-7 6 -17 10q-9 5 -20 5q-20 3 -32 -3q-13 -6 -20 -15q-9 -9 -13 -23q-4 -20 -2 -35q3 -14 11 -23t19 -14q10 -4 22 -5q12 -2 22 1q10 1 17 5q9 6 11 13q2 8 2 14q-2 12 -11 19q-8 8 -20 8q-10 0 -16 -5
q-7 -3 -10 -9q-3 -5 -3 -11q0 -7 4 -14q-13 3 -19 13t-6 21q1 11 9 21q7 9 23 12q19 3 32 -4q14 -6 24 -15q5 -5 10 -11q5 -5 9 -12l9 7q-1 25 4 30q6 6 23 -1q3 -2 7 -5q5 -4 8 -8q5 -5 8 -9q3 -5 5 -9q2 -3 4 -8l5 -8q1 -3 3 -5l2 -4l10 -7v276h33q17 -2 29 -15
q11 -12 14 -26v-2v-9v-55q1 -24 1 -59v-88l27 -27v281h254v-71q-10 17 -18 28q-9 10 -17 14t-15 4t-13 -4q-14 -7 -25 -28q-4 3 -7 7q-3 2 -7 6q-5 6 -14 10q-8 5 -18 7q-25 4 -40 -2q-15 -5 -24 -14q-10 -12 -15 -27q-7 -23 -4 -40q4 -17 14 -28q9 -11 22 -16q14 -6 28 -7
q14 -2 27 0t21 6q9 6 12 15q2 9 1 16q-2 13 -11 22q-9 8 -23 8q-12 0 -18 -3q-8 -4 -10 -10q-4 -6 -3 -13t4 -14q-10 1 -17 7q-6 5 -11 13q-4 7 -4 15t4 16q3 8 12 13q8 7 22 9q21 2 35 -5q14 -6 23 -18q11 -11 17 -28l11 5q-3 14 -2 25q2 10 7 16q5 5 13 5t18 -6
q7 -4 14 -13q7 -8 11 -17v-108q-5 8 -15 15q-8 7 -19 10q-9 2 -19 -3q-10 -6 -18 -24q-7 8 -15 15q-6 6 -16 10q-10 5 -21 5q-20 3 -32 -3q-13 -6 -20 -15q-8 -9 -13 -23q-4 -20 -2 -35q4 -14 12 -23q7 -9 18 -14q11 -4 22 -5q12 -2 22 1q11 1 17 5q9 6 11 13q2 8 2 14
q-2 12 -10 19q-9 8 -21 8q-10 0 -16 -5q-6 -3 -10 -9q-3 -5 -3 -11q1 -7 5 -14q-13 3 -20 13q-6 10 -5 21q0 11 8 21q7 9 23 12q19 3 33 -4q13 -6 23 -15q5 -5 10 -11q5 -5 9 -12l9 7q-1 25 4 30q6 6 24 -1q3 -2 6 -5q5 -4 9 -8q4 -5 7 -9q3 -5 5 -9q2 -3 5 -8l10 -17l10 -7
v276h32q17 -2 29 -15q11 -12 14 -26v-2v-9v-55q1 -24 1 -59v-88l28 -27v281h307l-28 27h-279zM1354 725q0 13 -9 22t-22 9q-7 0 -13 -3q-5 -3 -9 -7q-3 -5 -4 -10q-1 -7 3 -14q-2 0 -6 2q-4 1 -6 5q-3 3 -4 9q-1 5 2 13q3 7 9 14q7 6 16 9q10 2 22 1t25 -8q7 -5 9 -11
q3 -6 3 -11q0 -7 -3 -13l25 -12l47 52q5 -6 9 -14q4 -7 7 -16q2 -9 2 -18t-5 -18q1 -2 -3 -9t-14 -16q-9 -8 -24 -15q-14 -7 -34 -10q-21 -2 -47 4q-25 5 -57 21l1 -3t4 -8q5 -11 11 -25q6 -16 16 -36q35 -6 73 -21q32 -13 73 -38q40 -25 84 -67l-5 17q-3 7 -4 11l-2 8
q-8 9 -17 17l-18 18q-18 14 -41 32q-23 16 -51 32q13 5 24 12q11 6 21 14q9 6 17 13q8 8 14 17t10 19q3 10 3 21q-2 22 -9 40q-8 16 -18 29q-10 12 -20 21q-10 8 -16 14l-43 -47q0 1 -3 5q-4 5 -9 11t-13 12q-8 5 -19 8q-10 3 -23 1q-12 -1 -27 -9q-2 -2 -11 -8
q-8 -6 -15 -17q-6 -11 -7 -27q0 -15 15 -34q3 -3 8 -7t11 -7q7 -4 16 -6q8 -2 18 0q13 2 23 11t10 21zM1204 416l-7 15l-3 8q6 16 16 29q9 12 22 24q14 11 32 15q18 3 34 2q16 -2 30 -5q15 -4 27 -10q13 -6 25 -12q25 -16 47 -38l-6 17q-9 12 -22 23q-14 12 -27 21
q-14 8 -26 14q-13 7 -19 9q-27 11 -49 12t-40 -4q-17 -5 -29 -14q-14 -9 -22 -18q-9 -9 -14 -17l-5 -10q-5 -11 -6 -18v-11q1 -4 5 -8l8 -10l8 -8l6 -6h-82q1 6 -1 16q-1 9 -8 23q-14 20 -31 28q-18 7 -35 8q-5 1 -15 0q-7 -1 -17 -2h-5q-12 -1 -26 -2t-26 0q-12 0 -22 3
t-14 10q-5 7 -4 13q2 6 5 12q4 5 11 10l-18 1q-10 -7 -13 -17q-4 -8 0 -21q3 -12 19 -30q7 -7 19 -12q13 -4 29 -7q15 -2 31 -2q16 -1 30 -1q13 0 21 1q9 1 10 1q7 1 14 1q8 0 13 -2q7 -1 10 -5q4 -3 4 -10q0 -5 -4 -9t-10 -7h-197l-8 7l-4 9l-4 23l-9 9v-57l10 -61l-7 23
q-11 23 -21 34q-11 11 -25 13h-289l-7 7l-5 9l-4 23l-10 9v-3q0 -2 1 -8v-16q1 -11 2 -30l8 -61l-7 23q-10 23 -22 34q-11 11 -25 13h-344l27 -27h257v-177l-31 54q0 10 -1 20q-2 10 -6 22q-4 11 -11 22q-8 12 -20 25q-23 21 -58 19q-18 -1 -28 -12q-11 -10 -9 -26
q0 -14 9 -22q8 -9 20 -12q12 -2 24 2t19 17q2 5 3 6q1 2 3 2q5 0 10 -4t8 -12q4 -7 6 -17q3 -9 3 -18q0 -20 -12 -32q-10 -12 -34 -12q-22 0 -40 8q-19 8 -34 25q-15 16 -28 41q-12 26 -24 60l-17 7l12 -40q7 -22 15 -42q9 -21 19 -40q11 -18 25 -33q13 -14 31 -23t41 -10
q10 0 19 3q10 4 19 9q9 7 16 14t12 15q2 -2 5 -4q2 -3 7 -9q4 -5 10 -16q7 -9 18 -27l15 -44l10 -13v274h37q16 -3 27 -16q10 -12 13 -27v-28l1 -37v-146l25 -28v282h242v-72q-9 18 -17 27q-8 11 -16 14q-7 4 -13 4t-12 -4q-13 -7 -23 -28q-2 3 -5 6q-1 2 -2 3q-2 2 -3 4
q-6 5 -13 10t-15 7q-15 3 -26 1t-20 -7q-8 -5 -14 -12t-9 -13t-5 -15q-6 -25 -3 -43t12 -30t21 -18q13 -6 26 -8t25 0t19 7q9 6 12 17q2 10 2 17q-2 14 -12 23q-8 9 -22 9q-10 0 -17 -5t-11 -12q-3 -8 -3 -16q0 -9 4 -16q-10 1 -16 6q-7 5 -10 11q-4 6 -5 11q-1 15 2 25
q2 10 11 19q8 10 27 12q20 3 32 -4q11 -7 20 -16q9 -12 13 -28l12 5q-3 14 -2 23t5 14q5 5 12 5q8 1 17 -4q7 -4 12 -11q6 -7 10 -16v-153l26 -23v274h24q15 -3 26 -16q11 -12 13 -27v-1v-8v-56q1 -23 1 -59v-87l25 -28v282h108q4 -3 7 -7q4 -3 7 -6q1 -5 1 -7q0 -3 -5 -4
q-13 -4 -24 -8q-11 -5 -21 -20q-4 -4 -7 -11t-3 -13q0 -7 3 -13q4 -6 12 -12q6 -5 16 -5q11 0 21 5q11 6 20 17t11 29q2 1 9 2t15 -2q8 -4 16 -13q6 -10 9 -29q-4 -13 -11 -22t-22 -17q-15 -7 -42 -10q-13 0 -26 2t-25 6q-11 2 -20 7q-9 3 -11 6q8 -17 14 -31l10 -20l4 -10
l4 -6q14 -3 30 -7q15 -5 32 -13q29 -13 65 -36t76 -63q-2 8 -4 15q-1 6 -3 11l-2 11l-18 18l-20 18q-8 7 -17 14q-9 8 -19 16q-9 7 -20 13q-9 6 -18 11q7 3 20 8q14 6 27 17q13 10 22 26q8 15 6 37q-3 21 -11 35t-17 21q-10 8 -18 11q-7 2 -10 3q-2 1 -6 2t-9 3q-4 3 -9 8
q-5 4 -7 13h169v-253l28 -24v277h106l10 -6t8 -7l1 -1q1 -2 2 -3q1 -2 0 -3q0 -2 -3 -2q-7 -2 -13 -5q-6 -2 -11 -4q-12 -6 -20 -13q-7 -8 -10 -15q-3 -8 -3 -16t3 -15q4 -5 9 -9q6 -5 13 -5q7 -2 15 0q7 1 14 6q13 10 21 21q7 11 7 23q5 2 14 2q10 -1 20 -6t18 -14t9 -24
q0 -3 -5 -10q-4 -8 -12 -16q-9 -9 -23 -15q-13 -7 -32 -8q-19 -2 -42 4q-24 5 -53 21q2 -5 4 -11q2 -5 5 -11q3 -7 5 -14l15 -36q16 -3 32 -8q17 -6 35 -13q29 -13 67 -38q37 -25 77 -66q-3 9 -5 16t-3 11l-2 9l-15 16q-8 9 -18 18q-15 15 -37 32q-21 17 -46 32q11 4 21 9
q10 4 18 11q7 5 14 11t12 14q6 8 8 18q3 9 3 21q0 14 -6 26q-5 11 -14 20q-8 8 -17 15l-18 9q-9 4 -15 6q-6 1 -7 1q-4 0 -8 6t-5 16h132l-26 27h-259zM261 -87q0 -13 8 -24q9 -10 22 -10q14 0 22 12q4 -3 7 -7q4 -4 6 -10t1 -13q0 -7 -4 -15q-5 -14 -13 -20q-9 -6 -17 -9
q-7 -2 -19 -1q-19 2 -35 10q-16 9 -29 22q-14 14 -25 29q-10 16 -18 33q-10 19 -18 40q-7 22 -13 47q-3 0 -4 2q-3 1 -5 3l-6 3l-3 1q14 -54 29 -92q15 -39 29 -65t29 -41q14 -14 27 -22t24 -11q11 -1 19 -1q12 0 22 2q9 3 16 8q8 4 13 10q6 6 9 12q10 21 11 37t-3 28
q-3 12 -9 20q-6 9 -9 14q9 13 13 26t5 24t0 21q-1 9 -4 15q-8 19 -21 28t-28 11q-16 2 -31 -2q-16 -5 -30 -12q-16 -11 -25 -21q-10 -9 -14 -18q-5 -10 -6 -18q-1 -9 0 -18q0 -12 6 -21q7 -9 16 -12t18 -1q10 3 15 13q4 5 4 12t-2 12q-2 6 -5 11q-4 6 -10 8q7 11 15 18
t14 12q6 4 11 5q4 2 5 2q17 6 27 4q11 -2 17 -7q6 -4 10 -14q2 -12 0 -20q-1 -9 -5 -13q-3 -5 -7 -7t-6 -2l-7 4q-5 1 -9 1q-13 0 -22 -10q-8 -9 -8 -23zM1264 43l-7 7l-4 9l-4 23l-8 8v-56l9 -61l-6 23q-10 23 -20 34q-9 10 -19 12l-1 1h-262l-7 7l-4 9l-4 23l-8 8v-56
l9 -61l-7 23q-9 23 -19 34t-23 13h-248l-6 7l-4 9l-4 23l-8 8v-56l8 -61l-6 23q-9 23 -19 34t-23 13h-229l24 -27q4 -8 14 -14q11 -6 26 -10q8 -3 20 -6q12 -4 29 -18l-16 -14q-10 -8 -20 -18q-11 -9 -20 -19q-10 -10 -16 -17h-1v-1l33 -44q21 1 40 -7q19 -9 35 -24t28 -35
q13 -19 20 -40l11 -12v279h25q14 -3 23 -16q11 -12 12 -26v-2l1 -9v-55q1 -24 1 -59v-87l22 -28v282h26l1 -1q0 -1 2 -4q2 -5 6 -9t11 -7q7 -4 18 -3q8 0 17 -2t18 -7q8 -6 13 -18q6 -13 7 -33q-4 -7 -9 -15t-9 -15l-11 -18q-6 -7 -13 -7q-5 0 -12 8q-6 8 -12 29l-14 -16
l-2 -3q5 -9 10 -20t12 -20q6 -9 15 -14t21 -5q2 0 7 3q4 2 9 6t11 13q14 19 22 35q2 3 4 7q1 2 1 3l3 4q9 13 19 18q3 1 8 0q4 0 9 -4t9 -12q5 -8 9 -22v-117l24 -30v276h22q13 -3 23 -16q10 -12 12 -26v-2v-9v-55q1 -24 1 -59v-87l23 -28v282h211v-72q-8 17 -15 28
q-7 10 -14 14q-7 5 -13 4q-5 -1 -10 -4q-12 -7 -22 -28l-5 7l-6 6q-5 6 -12 10q-7 5 -14 7q-21 4 -33 -2q-13 -6 -20 -15q-9 -11 -14 -26q-5 -23 -2 -40t11 -28q7 -11 19 -16q11 -6 23 -7q11 -2 22 0t18 5q7 7 10 16q2 9 1 16q-2 14 -9 22q-9 8 -20 8q-9 0 -16 -3
q-5 -4 -8 -10q-2 -6 -2 -13t4 -15q-8 2 -14 8q-6 5 -10 12q-3 8 -3 16q0 9 3 16q3 8 10 13q7 7 19 9q17 3 29 -4q11 -7 19 -18q9 -12 15 -29l9 4q-3 16 -2 26t5 16q5 5 12 5q6 0 14 -6q6 -4 12 -13q6 -8 9 -17v-108q-5 8 -12 15q-8 7 -16 10q-8 2 -16 -3q-8 -6 -15 -25
q-6 9 -12 16q-6 5 -14 10t-17 5q-17 3 -27 -3t-17 -14q-7 -11 -10 -24q-4 -21 -2 -35q3 -14 9 -23q7 -9 16 -13q9 -5 18 -6q10 -1 19 1q9 1 14 5q7 6 8 13q2 8 2 14q-2 12 -8 19q-7 7 -17 7q-9 0 -14 -4q-5 -3 -8 -9q-2 -5 -2 -11q0 -7 4 -13q-11 2 -17 12q-5 10 -5 21
q1 12 7 21t20 11q15 3 27 -3q11 -7 19 -15q4 -4 9 -11q4 -5 7 -12l8 7q-1 24 4 30q4 6 18 -1q4 -2 7 -5l7 -8q3 -4 5 -9q3 -5 5 -9l3 -8q2 -5 5 -8q0 -2 2 -4q1 -3 1 -5l9 -7v277h27q14 -3 24 -16q10 -12 12 -26v-11q1 -6 1 -18v-183l23 -28v282h22q0 -5 3 -10q2 -6 7 -11
t12 -9t16 -7q11 -4 18 -7l12 -4l6 -2l4 -4q4 -3 9 -10t9 -18q4 -10 3 -25q-10 6 -22 6q-11 1 -21 -6q-18 -11 -22 -28q-5 -18 3 -35q6 -12 16 -18q11 -5 23 -4q11 1 22 7q10 6 16 19q20 -9 33 -25t21 -33l8 -20t6 -21l10 -12v277h45l-24 27h-235z" />
    <glyph glyph-name="u0981.rlig" unicode="&#x9cd;&#x9af;" horiz-adv-x="292" 
d="M173 456q-7 -102 29 -238q11 -98 -10 -165q-20 -40 -77 -76q-45 -29 -69 -29q-12 0 -18 13q49 17 105 66q21 29 21 95l-30 133q-15 59 -15 101q0 155 98 215h-204l-41 40h331l32 -41l-23 1h-11q-23 0 -58.5 -13t-59.5 -102z" />
    <glyph glyph-name=".notdef" horiz-adv-x="432" 
d="M61 10v646h313v-646h-313zM74 23h287v620h-287v-620z" />
    <glyph glyph-name=".null" horiz-adv-x="0" 
 />
    <glyph glyph-name="nonmarkingreturn" horiz-adv-x="333" 
 />
    <glyph glyph-name="u0000" horiz-adv-x="0" 
 />
    <glyph glyph-name="u0000" horiz-adv-x="0" 
 />
    <glyph glyph-name="space" unicode=" " horiz-adv-x="250" 
 />
    <glyph glyph-name="space" unicode="&#xa0;" horiz-adv-x="250" 
 />
    <glyph glyph-name="exclam" unicode="!" horiz-adv-x="278" 
d="M198 719v-327l-21 -214h-21l-21 214v327h63zM198 94v-84h-64v84h64z" />
    <glyph glyph-name="quotedbl" unicode="&#x22;" horiz-adv-x="355" 
d="M62 699h73v-100l-25 -125h-22l-26 125v100zM222 699h73v-100l-25 -125h-23l-25 125v100z" />
    <glyph glyph-name="numbersign" unicode="#" 
d="M473 687l-36 -196h95v-48h-104l-35 -194h107v-48h-115l-39 -211h-56l38 211h-145l-39 -211h-55l38 211h-103v48h112l35 194h-110v48h119l36 196h56l-36 -196h145l35 196h57zM372 443h-145l-35 -194h145z" />
    <glyph glyph-name="dollar" unicode="$" 
d="M254 760h38v-54q129 -9 174 -95q20 -39 20 -82h-59q-1 73 -63 110q-21 12 -47 16l-25 2v-267q93 -28 114 -38l10 -5l1 -1l12 -6q79 -45 79 -145t-64 -157l-23 -17q-47 -28 -129 -35v-102h-38v102q-158 10 -198 121q-16 44 -13 91h60l3 -18q5 -51 17 -74q3 -5 7 -9
q37 -51 124 -62v290q-70 21 -96 33q-19 9 -35 20q-67 48 -67 138q0 139 133 179q25 7 65 12v53zM254 392v264q-115 -15 -134 -98l-3 -32q0 -98 137 -134zM292 322v-287q76 9 109 41q45 43 45 107q0 67 -51 99q-31 19 -103 40z" />
    <glyph glyph-name="percent" unicode="%" horiz-adv-x="890" 
d="M199 675q79 0 130 -66h1q30 -39 30 -97q0 -74 -59 -122q-45 -37 -101 -37q-76 0 -125 59q-36 45 -36 102q0 76 59 125q45 36 101 36zM199 625q-59 0 -89 -46h-2q-20 -32 -20 -65q0 -58 50 -92q28 -19 62 -19q59 0 93 49q18 28 18 61q0 62 -53 96q-26 16 -59 16zM615 699
h43l-384 -709h-43zM688 312q79 0 130 -66h1q30 -39 30 -97q0 -74 -59 -122q-45 -37 -101 -37q-76 0 -125 59q-36 45 -36 102q0 76 59 125q45 36 101 36zM688 262q-59 0 -89 -46h-2q-20 -32 -20 -65q0 -58 50 -92q28 -19 62 -19q59 0 93 49q18 28 18 61q0 62 -53 96
q-26 16 -59 16z" />
    <glyph glyph-name="ampersand" unicode="&#x26;" horiz-adv-x="667" 
d="M504 324h59q0 -25 -9 -62q-14 -55 -51 -112l113 -140h-83l-66 83q-52 -50 -75 -67l-8 -4q-54 -35 -127 -35q-110 0 -164 78q-31 46 -31 111q0 77 49 127l5 4l5 4q33 32 108 75q-75 95 -79.5 120.5t-5.5 27.5l-1 18q0 71 60 115q45 32 101 32q85 0 126 -59v-1
q27 -38 27 -87q0 -64 -48 -108q-30 -26 -95 -63l150 -184q23 41 32 77q8 33 8 50zM284 418q73 47 95 76q19 27 19 60q0 58 -50 84q-21 11 -47 11q-66 0 -89 -56q-7 -18 -7 -40l2 -26q4 -12 9 -23q13 -24 68 -86zM431 137l-171 213q-81 -52 -108 -89q-26 -35 -26 -78
q0 -70 58 -111q38 -27 83 -27q34 0 65 13q43 19 99 79z" />
    <glyph glyph-name="quotesingle" unicode="'" horiz-adv-x="191" 
d="M70 664v0h74v-100l-25 -125h-24l-25 125v100z" />
    <glyph glyph-name="parenleft" unicode="(" horiz-adv-x="229" 
d="M214 -202q-98 128 -138 302q-20 82 -20 158q0 75 19 155q39 175 139 306h32q-93 -152 -121 -343q-8 -59 -8 -118q0 -66 11 -132q29 -185 118 -328h-32z" />
    <glyph glyph-name="parenright" unicode=")" horiz-adv-x="191" 
d="M-1 -202h-32q88 143 118 328q11 66 11 132q0 59 -8 118q-28 191 -121 343h32q99 -131 139 -306q19 -80 19 -155q0 -76 -20 -158q-41 -174 -138 -302z" />
    <glyph glyph-name="asterisk" unicode="*" horiz-adv-x="333" 
d="M136 736h42l-6 -116l111 39l12 -39l-112 -32l73 -92l-34 -24l-65 97l-66 -97l-33 24l72 93l-112 31l12 39l111 -39z" />
    <glyph glyph-name="plus" unicode="+" horiz-adv-x="546" 
d="M501 262v-50h-207v-207h-50v207h-207v50h207v207h50v-207h207z" />
    <glyph glyph-name="comma" unicode="," horiz-adv-x="240" 
d="M71 5h85v-110q0 -121 -85 -121v19q40 1 53 38q7 20 7 62v28h-60v84z" />
    <glyph glyph-name="hyphen" unicode="-" horiz-adv-x="512" 
d="M462 302v-52h-406v52h406z" />
    <glyph glyph-name="period" unicode="." horiz-adv-x="192" 
d="M137 135v-84h-84v84h84z" />
    <glyph glyph-name="slash" unicode="/" horiz-adv-x="278" 
d="M237 719h34l-219 -729h-46z" />
    <glyph glyph-name="zero" unicode="0" 
d="M275 699q98 0 153 -71l2 -4q67 -90 67 -287q0 -265 -132 -331q-40 -19 -90 -19q-168 0 -209 208q-13 64 -13 148q0 192 67 282q51 67 142 74h13zM275 641q-152 0 -152 -299q0 -302 150 -302q127 0 149 201q5 46 5 104q0 296 -152 296z" />
    <glyph glyph-name="one" unicode="1" 
d="M269 515h-157v44h-1q100 13 132 39q29 23 47 82l6 19h41v-689h-68v505z" />
    <glyph glyph-name="two" unicode="2" 
d="M496 77v-67h-451q6 114 54 179q28 36 77 70q26 19 62 39l92 52q100 57 101 149q0 77 -65 119q-37 24 -85 24q-80 0 -123 -61q-4 -6 -6 -10l-2 -3q-18 -34 -21 -95h-69q3 87 36 139q57 87 188 87q95 0 154 -54q63 -55 63 -144q0 -126 -145 -205l-100 -54q-54 -32 -82 -59
q-42 -39 -53 -106h375z" />
    <glyph glyph-name="three" unicode="3" 
d="M231 335v55q76 1 111 16q62 25 63 105q0 92 -77 121q-26 10 -58 10q-84 0 -120 -56l-2 -1l-6 -12q-16 -30 -17 -83h-68q3 191 180 208l32 1q133 0 182 -88q24 -40 24 -97q0 -101 -118 -147q113 -40 132 -111q7 -24 7 -58q0 -117 -89 -174q-58 -37 -141 -37
q-142 0 -194 98q-25 46 -29 111h67q8 -130 121 -148q18 -3 38 -3q111 0 145 85q12 29 12 67q0 139 -157 139l-37 -1h-1z" />
    <glyph glyph-name="four" unicode="4" 
d="M337 180h-299v80l317 439h50v-460h105v-59h-105v-170h-68v170zM337 239v351l-251 -351h251z" />
    <glyph glyph-name="five" unicode="5" 
d="M466 699v-67h-294l-33 -230l31 22q51 33 114 33q115 0 176 -83q43 -58 43 -143q0 -124 -84 -194q-61 -50 -149 -50q-107 0 -169 64l-15 17q-23 28 -36 83l-3 13h68q31 -119 153 -119q107 0 148 87q17 37 17 87q0 115 -81 160q-37 20 -84 20q-64 0 -107 -37
q-14 -13 -28 -29h-65l50 366h348z" />
    <glyph glyph-name="six" unicode="6" 
d="M487 534h-69q-17 85 -95 104q-15 3 -32 3q-119 0 -155 -152q-13 -55 -13 -158q73 100 173 100q106 0 165 -79q42 -56 42 -136q0 -114 -78 -180q-59 -49 -144 -49q-114 0 -170 83q-56 86 -58 242v11q0 182 62 279q54 81 150 95q15 2 32 2q109 0 161 -88q23 -37 29 -77z
M285 373q-90 0 -133 -71q-24 -37 -24 -88q0 -91 65 -140q39 -29 89 -29q81 0 124 68q27 41 27 96q0 108 -76 148q-31 16 -72 16z" />
    <glyph glyph-name="seven" unicode="7" 
d="M510 699v-61q-85 -114 -145 -223q-105 -196 -141 -405h-73q46 253 278 602v20h-373v67h454z" />
    <glyph glyph-name="eight" unicode="8" 
d="M371 372q131 -63 132 -176q0 -107 -82 -165q-61 -44 -146 -44q-119 0 -183 78q-45 55 -45 132q0 112 132 175q-40 25 -57 39q-46 39 -50 96v1v12q0 94 76 144q53 35 127 35q111 0 167 -72q36 -45 36 -107q0 -64 -42 -102l-12 -11zM275 641q-86 0 -119 -63l8 -16l-9 14
q-13 -25 -13 -57q0 -76 67 -107q29 -14 66 -14q86 0 116 57q5 0 5 8q12 22 12 55q0 81 -71 111q-27 12 -62 12zM275 344q-95 0 -137 -69q-21 -34 -21 -80q0 -88 71 -128q36 -22 85 -22q96 0 138 70q22 34 22 80q0 88 -72 129q-38 20 -86 20z" />
    <glyph glyph-name="nine" unicode="9" 
d="M65 152h68q18 -85 95 -104q15 -3 32 -3q119 0 154 152q14 55 14 155q-79 -95 -172 -97q-107 0 -166 79q-42 57 -42 136q0 114 78 180q60 49 144 49q114 0 171 -83q56 -86 58 -242v-11q0 -182 -64 -279q-50 -78 -142 -94l-40 -3q-108 0 -160 88q-22 38 -28 77zM269 642
q-82 0 -124 -68l-1 -1q-26 -41 -26 -96q0 -108 77 -148q31 -16 71 -16q89 0 132 70q25 38 25 89q0 92 -65 141q-40 29 -89 29z" />
    <glyph glyph-name="colon" unicode=":" horiz-adv-x="278" 
d="M204 94v-84h-84v84h84zM204 514v-84h-84v84h84z" />
    <glyph glyph-name="semicolon" unicode=";" horiz-adv-x="278" 
d="M205 514v-84h-84v84h84zM120 94h85v-110q0 -121 -85 -121v19q40 1 53 38q7 20 7 62v28h-60v84z" />
    <glyph glyph-name="less" unicode="&#x3c;" horiz-adv-x="584" 
d="M55 205v55l469 199v-57l-410 -168l410 -171v-57z" />
    <glyph glyph-name="equal" unicode="=" horiz-adv-x="584" 
d="M524 343v-50h-464v50h464zM524 171v-50h-464v50h464z" />
    <glyph glyph-name="greater" unicode="&#x3e;" horiz-adv-x="584" 
d="M529 260v-55l-469 -199v57l410 168l-410 171v57z" />
    <glyph glyph-name="question" unicode="?" 
d="M320 209h-70v45q0 36 12 59l14 22l10 13l2 4l5 5l58 53q43 38 62 73q16 31 16 66q0 76 -69 110h-1q-29 14 -68 14q-88 0 -121 -64q-18 -36 -18 -92h-65q0 192 171 212l38 2q120 0 174 -79l9 -5l-10 10v-4q30 -45 30 -104q0 -45 -19 -81q-20 -39 -78 -91q-62 -58 -74 -86
l-5 -12l-3 -31v-2v-37zM320 94v-84h-70v84h70z" />
    <glyph glyph-name="at" unicode="@" horiz-adv-x="1015" 
d="M672 491h62l-85 -267q-13 -35 -13 -53q0 -33 36 -50h2q9 -4 22 -4q69 0 125 76q53 74 53 164q0 124 -100 216q-102 95 -246 101h-16q-151 0 -267 -105l-31 -31q-105 -116 -105 -265q0 -146 108 -245q111 -103 277 -103q80 0 187 30l20 -49q-51 -19 -117 -30
q-49 -8 -95 -8q-177 0 -305 105q-119 97 -137 240l-3 45l1 25q8 150 106 271q22 27 47 50q106 97 253 121q10 1 19 3l55 3q162 0 282 -99q114 -91 131 -222q3 -21 3 -41l-2 -34q-12 -101 -82 -183q-73 -85 -178 -85q-88 0 -104 88q-29 -30 -44 -43q-48 -40 -104 -40
q-77 0 -121 65q-32 45 -32 108q0 105 76 186q74 80 171 81q76 0 123 -104zM515 468q-71 0 -124 -75q-47 -66 -47 -149q0 -72 53 -111h1q23 -17 55 -17q63 0 110 69l6 10q20 35 36 89q13 45 14 77q3 62 -48 91q-25 16 -56 16z" />
    <glyph glyph-name="A" unicode="A" horiz-adv-x="667" 
d="M481 229h-295l-77 -219h-78l253 709h106l249 -709h-83zM462 287l-126 372l-135 -372h261z" />
    <glyph glyph-name="B" unicode="B" horiz-adv-x="667" 
d="M89 10v709h286q99 0 151 -48q55 -49 55 -127q0 -106 -116 -160q122 -47 141 -123q6 -19 7 -40v-13q0 -84 -54 -140q-52 -58 -151 -58h-319zM162 405h190q75 0 112 28q44 33 44 98q0 64 -44 98q-37 28 -112 28h-190v-252zM162 72h237q68 0 104 38q37 38 37 97t-37 98
q-35 38 -104 38h-237v-271z" />
    <glyph glyph-name="C" unicode="C" horiz-adv-x="722" 
d="M650 513h-75q-14 70 -54 107q-50 47 -151 49q-134 0 -198 -120q-41 -77 -41 -192q0 -175 99 -257q61 -51 148 -51q114 0 168 81q7 9 11 18q23 44 33 108h76q-31 -269 -289 -269q-137 0 -216 82q-103 106 -103 287q0 179 99 287q80 88 224 88q230 0 269 -218z" />
    <glyph glyph-name="D" unicode="D" horiz-adv-x="722" 
d="M99 10v709h271q158 0 234 -128l-1 1q54 -91 54 -227q0 -204 -112 -296q-70 -59 -175 -59h-271zM172 72h182q182 0 221 189q9 46 9 103q0 254 -176 288q-26 5 -54 5h-182v-585z" />
    <glyph glyph-name="E" unicode="E" horiz-adv-x="667" 
d="M173 342v-270h430v-62h-503v709h485v-62h-412v-253h397v-62h-397z" />
    <glyph glyph-name="F" unicode="F" horiz-adv-x="611" 
d="M173 342v-332h-73v709h469v-62h-396v-253h348v-62h-348z" />
    <glyph glyph-name="G" unicode="G" horiz-adv-x="778" 
d="M699 375v-369h-41l-26 108q-113 -127 -254 -127q-148 0 -239 110q-85 101 -85 260q0 172 99 279q14 15 29 27q83 68 212 68q174 0 252 -114q32 -47 41 -99h-75q-20 95 -120 133q-44 18 -99 18q-137 0 -211 -108q-55 -81 -55 -199q0 -129 63 -216l16 -20q69 -75 192 -77
q119 0 188 84q51 63 51 150v30h-222v62h284z" />
    <glyph glyph-name="H" unicode="H" horiz-adv-x="722" 
d="M561 342h-394v-332h-74v709h73v-315h395v315h73v-709h-73v332z" />
    <glyph glyph-name="I" unicode="I" horiz-adv-x="278" 
d="M184 719v-709h-74v709h74z" />
    <glyph glyph-name="J" unicode="J" horiz-adv-x="500" 
d="M343 719h73v-537q0 -118 -85 -168q-47 -27 -111 -27q-118 0 -168 81q-25 43 -25 102v54h75v-37q0 -119 89 -139l30 -3q63 0 97 49q25 37 25 122v503z" />
    <glyph glyph-name="K" unicode="K" horiz-adv-x="667" 
d="M162 259v-249h-73v709h73v-384l377 384h92l-286 -286l294 -423h-86l-261 380z" />
    <glyph glyph-name="L" unicode="L" 
d="M163 719v-647h360v-62h-433v709h73z" />
    <glyph glyph-name="M" unicode="M" horiz-adv-x="833" 
d="M460 10h-83l-224 661v-661h-68v709h112l223 -656l219 656h112v-709h-68v662z" />
    <glyph glyph-name="N" unicode="N" horiz-adv-x="722" 
d="M636 719v-709h-90l-392 615v-615h-68v709h85l397 -620v620h68z" />
    <glyph glyph-name="O" unicode="O" horiz-adv-x="778" 
d="M389 731q169 0 264 -119l1 -2l1 -1q58 -77 73 -188q4 -33 4 -68q0 -144 -80 -247q-19 -25 -42 -44q-89 -75 -220 -75q-162 0 -257 114q-85 101 -85 258q0 180 108 284q92 88 233 88zM389 669q-135 0 -210 -106q-58 -82 -58 -204q0 -162 98 -248q70 -62 171 -62
q134 0 209 104q60 80 60 202q0 170 -102 256q-69 58 -168 58z" />
    <glyph glyph-name="P" unicode="P" horiz-adv-x="667" 
d="M174 319v-309h-73v709h291q155 0 199 -112q16 -39 16 -92q0 -93 -59 -147q-56 -49 -135 -49h-239zM174 381h204q109 0 141 80q11 25 11 58q0 97 -87 128h-1q-27 10 -64 10h-204v-276z" />
    <glyph glyph-name="Q" unicode="Q" horiz-adv-x="778" 
d="M719 -2l-34 -43l-103 85q-90 -53 -192 -53q-162 0 -257 114q-85 101 -85 258q0 180 108 284q93 88 234 88q161 0 256 -112q86 -101 86 -258q0 -168 -107 -286zM482 191l89 -73q88 99 88 242q0 162 -97 248q-72 61 -172 61q-136 0 -211 -106q-58 -82 -58 -204
q0 -163 98 -249q70 -61 170 -61q35 0 64 7.5t74 27.5l-78 66z" />
    <glyph glyph-name="R" unicode="R" horiz-adv-x="722" 
d="M176 324v-314h-73v709h326q163 0 202 -113q10 -31 10 -72q0 -93 -67 -141q-19 -12 -61 -34q78 -34 95 -70q16 -35 17 -119q3 -99 21 -129q10 -14 23 -23v-8h-96q-18 40 -18 109l1 65q0 117 -88 136q-18 4 -42 4h-250zM176 386h235q130 0 149 94q4 18 4 41q0 71 -41 106
q-35 30 -112 30h-235v-271z" />
    <glyph glyph-name="S" unicode="S" horiz-adv-x="667" 
d="M586 525h-68q-1 109 -117 139q-33 9 -75 9q-109 0 -145 -82l-8 16q-20 -30 -20 -67q0 -62 59 -93q27 -14 69 -25l182 -49q115 -31 141 -123q7 -23 7 -50v-14q-5 -79 -63 -135l-13 -10q-70 -54 -199 -54q-164 0 -237 100q-40 55 -41 135h68q-1 -59 40 -108q55 -65 176 -65
q92 0 140 33q49 35 55 94q1 4 1 9v6q0 83 -116 120q-12 5 -25 8l-181 48q-135 35 -136 160q0 118 99 171q61 33 150 33q170 0 230 -106q27 -47 27 -100z" />
    <glyph glyph-name="T" unicode="T" horiz-adv-x="611" 
d="M344 657v-647h-73v647h-240v62h552v-62h-239z" />
    <glyph glyph-name="U" unicode="U" horiz-adv-x="722" 
d="M562 719h73v-502q0 -125 -99 -187q-70 -43 -172 -43q-160 0 -230 97q-38 54 -39 133v502h73v-502q0 -84 57 -128q56 -40 139 -40q129 0 177 84q20 35 21 84v502z" />
    <glyph glyph-name="V" unicode="V" horiz-adv-x="667" 
d="M385 10h-86l-255 709h79l222 -638l208 638h78z" />
    <glyph glyph-name="W" unicode="W" horiz-adv-x="944" 
d="M736 10h-86l-176 627l-171 -627h-86l-182 709h83l144 -623l170 623h85l175 -622l141 622h83z" />
    <glyph glyph-name="X" unicode="X" horiz-adv-x="667" 
d="M379 374l251 -364h-90l-205 312l-206 -312h-88l251 364l-235 345h88l193 -294l193 294h87z" />
    <glyph glyph-name="Y" unicode="Y" horiz-adv-x="667" 
d="M377 289v-279h-73v279l-273 430h91l220 -365l213 365h88z" />
    <glyph glyph-name="Z" unicode="Z" horiz-adv-x="611" 
d="M571 719v-71l-446 -576h448v-62h-535v69l448 578h-420v62h505z" />
    <glyph glyph-name="bracketleft" unicode="[" horiz-adv-x="278" 
d="M240 719v-52h-103v-817h103v-52h-166v921h166z" />
    <glyph glyph-name="backslash" unicode="\" horiz-adv-x="278" 
d="M50 719l231 -729h-45l-230 729h44z" />
    <glyph glyph-name="bracketright" unicode="]" horiz-adv-x="278" 
d="M33 -202v52h103v817h-103v52h166v-921h-166z" />
    <glyph glyph-name="asciicircum" unicode="^" horiz-adv-x="469" 
d="M204 699h59l147 -360h-47l-129 317l-128 -317h-47z" />
    <glyph glyph-name="underscore" unicode="_" 
d="M568 -136v-30h-580v30h580z" />
    <glyph glyph-name="grave" unicode="`" horiz-adv-x="333" 
d="M129 730l84 -128h-38l-129 128h83z" />
    <glyph glyph-name="a" unicode="a" 
d="M525 36v-42q-21 -6 -37 -7v0h-10q-63 0 -74 55l-5 33q-41 -39 -67 -54q-54 -34 -118 -34q-104 0 -144 70q-18 32 -18 75q0 95 85 131l11 3l34 10q8 2 18 4q29 5 103 14q79 10 93 46v3v0l3 18v23q0 73 -90 86q-17 2 -37 2q-111 0 -130 -83q-2 -9 -2 -10h-65q3 58 34 92
q51 58 166 58q168 0 185 -108q2 -11 2 -25v-308q0 -51 55 -51h2q7 0 12 1h1zM399 165v108l-24 -9q-15 -6 -36 -11l-86 -13q-112 -16 -130 -77l-4 -27v-2q0 -73 74 -90q18 -4 39 -4q76 0 131 50q14 12 22 24q14 21 14 51z" />
    <glyph glyph-name="b" unicode="b" 
d="M64 719h63v-299q72 109 172 109q122 0 178 -103q36 -66 36 -162q0 -156 -88 -231q-54 -46 -130 -46q-102 0 -176 113v-90h-55v709zM283 471q-89 0 -131 -90q-25 -51 -25 -123q0 -130 73 -185q35 -28 83 -28q90 0 135 84q28 54 28 126q0 132 -76 188q-36 27 -87 28z" />
    <glyph glyph-name="c" unicode="c" horiz-adv-x="500" 
d="M460 358h-64q-13 95 -104 112q-9 1 -28 2q-102 0 -139 -107q-17 -47 -17 -112q0 -143 84 -191q32 -18 73 -18q116 0 137 126h64q-9 -120 -108 -164q-41 -19 -95 -19q-123 0 -182 100q-40 67 -40 166q0 155 89 230q56 46 134 46q102 0 157 -64l7 -10q27 -40 32 -97z" />
    <glyph glyph-name="d" unicode="d" 
d="M485 719v-709h-54v91q-74 -106 -155 -113q-10 -1 -22 -1q-124 0 -181 107q-37 68 -37 169q0 149 86 222q54 44 129 44q103 0 171 -104v294h63zM265 471q-91 0 -135 -88q-20 -39 -26 -92q-1 -16 -1 -33q0 -127 74 -184q39 -29 89 -29q89 0 130 87q26 52 26 124
q0 136 -76 190q-36 25 -81 25z" />
    <glyph glyph-name="e" unicode="e" 
d="M503 244h-386q1 -85 29 -127q47 -73 135 -73q109 0 144 105h65q-19 -104 -118 -145q-42 -17 -94 -17q-130 0 -190 105q-38 65 -38 163q0 153 90 227q57 47 140 47q110 0 172 -78q19 -24 31 -54q20 -52 20 -153zM118 292h313l3 15q0 86 -63 134q-41 31 -92 31
q-91 0 -135 -80q-21 -38 -26 -100z" />
    <glyph glyph-name="f" unicode="f" horiz-adv-x="278" 
d="M248 514v-48h-87v-456h-63v456h-70v48h70v99q0 81 67 103q21 6 46 6l19 -1l18 -3v-49h-15h-4q-67 0 -68 -63v-92h87z" />
    <glyph glyph-name="g" unicode="g" 
d="M422 514h57v-428q0 -151 -39 -212l-14 -19q-45 -56 -150 -62q-10 -1 -21 -1q-132 0 -179 83q-16 29 -19 55h66q5 -33 31 -56l3 -2q39 -30 101 -30q86 0 124 53q32 44 32 149v56l-25 -32q-55 -74 -127 -80q-8 -1 -17 -1h-9q-78 5 -133 66q-64 74 -64 200q0 147 80 223
q55 53 133 53q93 0 170 -113v98zM261 472q-95 0 -134 -96q-21 -49 -21 -118q0 -144 83 -195q32 -19 73 -19q96 0 134 98q18 48 18 113q0 156 -87 202q-29 15 -66 15z" />
    <glyph glyph-name="h" unicode="h" 
d="M80 719h63v-294l36 42q50 56 121 61l21 1q104 0 141 -69q14 -27 14 -64v-386h-63v353q0 60 -38 87q-35 26 -80 26q-90 0 -130 -82q-22 -44 -22 -105v-279h-63v709z" />
    <glyph glyph-name="i" unicode="i" horiz-adv-x="222" 
d="M140 514v-504h-63v504h63zM140 719v-85h-64v85h64z" />
    <glyph glyph-name="j" unicode="j" horiz-adv-x="222" 
d="M80 514h63v-623q0 -93 -118 -99h-15l-17 1h-1v52h9h1q59 0 72 39q6 15 6 40v590zM143 719v-85h-63v85h63z" />
    <glyph glyph-name="k" unicode="k" horiz-adv-x="500" 
d="M131 719v-441l236 236h79l-171 -170l209 -334h-80l-180 290l-93 -92v-198h-63v709h63z" />
    <glyph glyph-name="l" unicode="l" horiz-adv-x="222" 
d="M142 719v-709h-64v709h64z" />
    <glyph glyph-name="m" unicode="m" horiz-adv-x="833" 
d="M80 514h57v-95q70 98 139 108q9 1 20 2h12q84 0 124 -60q4 -7 15 -27l38 41q48 45 125 46q114 0 137 -90q5 -21 5 -46v-383h-64v351q0 88 -70 110q-17 5 -37 5q-66 0 -106 -58q-27 -39 -27 -89v-319h-64v351q0 95 -79 112l-27 3q-68 0 -108 -60q-26 -38 -26 -87v-319h-64
v504z" />
    <glyph glyph-name="n" unicode="n" 
d="M80 514h57v-112q70 110 142 123q19 4 42 4q98 0 137 -64q18 -29 19 -69v-386h-63v353q0 76 -64 103q-24 10 -54 10q-90 0 -130 -82q-22 -44 -22 -105v-279h-64v504z" />
    <glyph glyph-name="o" unicode="o" 
d="M272 529q145 0 200 -123q28 -63 28 -152q0 -162 -98 -230q-53 -37 -129 -37q-138 0 -195 114q-32 63 -32 157q0 169 101 236q52 35 125 35zM273 472q-100 0 -140 -98q-20 -49 -20 -116q0 -143 83 -193q33 -21 77 -21q96 0 138 94q22 49 22 117q0 151 -87 200
q-33 17 -73 17z" />
    <glyph glyph-name="p" unicode="p" 
d="M64 -208v722h57v-104q74 119 177 119q121 0 178 -106q37 -69 37 -170q0 -149 -86 -221q-37 -31 -86 -41q-20 -4 -42 -4q-92 0 -171 96v-291h-64zM284 471q-89 0 -131 -90q-25 -51 -25 -123q0 -130 73 -185q36 -28 83 -28q90 0 134 84q28 54 28 126q0 132 -75 188
q-38 28 -87 28z" />
    <glyph glyph-name="q" unicode="q" 
d="M485 -208h-63v300q-72 -105 -172 -105q-122 0 -178 103q-36 65 -36 162q0 156 88 231q54 46 130 46q102 0 177 -106v91h54v-722zM266 471q-90 0 -135 -86q-28 -52 -28 -127q0 -127 74 -184q39 -29 89 -29q88 0 131 87q25 52 25 123q0 136 -75 190q-36 26 -81 26z" />
    <glyph glyph-name="r" unicode="r" horiz-adv-x="333" 
d="M79 514h57v-121q43 71 66 95q39 41 87 41h10l12 -2v-66q-65 -1 -98 -23q-2 -1 -6 -4l-1 -2q-63 -45 -63 -160v-262h-64v504z" />
    <glyph glyph-name="s" unicode="s" horiz-adv-x="500" 
d="M428 388h-68q-3 84 -115 84q-88 0 -114 -55q-7 -15 -7 -34q0 -52 73 -77l31 -8l81 -19q112 -26 133 -91q7 -20 7 -45q0 -90 -84 -131q-51 -25 -122 -25q-185 0 -198 153v6h68q5 -41 25 -64q37 -38 112 -38q89 0 120 52q12 17 12 40q0 53 -61 75q-9 3 -21 6h-1l-6 2
l-78 19q-115 28 -144 75q-7 15 -11 34l-3 32q0 87 78 126q47 24 113 24q138 0 171 -94q9 -26 9 -47z" />
    <glyph glyph-name="t" unicode="t" horiz-adv-x="278" 
d="M244 514v-48h-86v-369q0 -46 30 -54l25 -3q27 0 31 1v-49q-30 -5 -58 -5q-81 0 -90 58l-1 15v406h-71v48h71v144h63v-144h86z" />
    <glyph glyph-name="u" unicode="u" 
d="M472 10h-55v95q-72 -102 -142 -114q-19 -4 -43 -4q-101 0 -139 65q-18 29 -18 68v394h63v-361q0 -77 65 -103q23 -10 53 -10q91 0 132 84q21 44 21 103v287h63v-504z" />
    <glyph glyph-name="v" unicode="v" horiz-adv-x="500" 
d="M279 10h-78l-177 504h73l147 -446l155 446h73z" />
    <glyph glyph-name="w" unicode="w" horiz-adv-x="722" 
d="M547 10h-80l-114 442l-109 -442h-78l-147 504h72l115 -438l107 438h87l110 -439l112 439h73z" />
    <glyph glyph-name="x" unicode="x" horiz-adv-x="500" 
d="M280 271l174 -261h-73l-136 209l-139 -209h-70l178 257l-168 247h71l131 -198l131 198h70z" />
    <glyph glyph-name="y" unicode="y" horiz-adv-x="500" 
d="M395 514h69l-228 -620l-5 -11v-1q-18 -45 -49 -67q-24 -17 -55 -22q-8 -1 -17 -1q-29 0 -46 9v56q16 -3 34 -3q52 0 72 46l4 12l33 86l-173 516h68l141 -429z" />
    <glyph glyph-name="z" unicode="z" horiz-adv-x="500" 
d="M433 514v-60l-322 -391h336v-53h-406v62l325 389h-304v53h371z" />
    <glyph glyph-name="braceleft" unicode="{" horiz-adv-x="334" 
d="M266 719v-45h-5q-54 0 -58 -47l-9 13q-6 -15 -6 -43v-181q0 -93 -37 -125l-1 -1q-10 -9 -21 -14l-36 -18q95 -43 95 -157v-181q0 -56 31 -70q15 -7 42 -7h5v-45h-36q-74 0 -93 73q-6 20 -6 48v167q0 98 -39 128q-18 13 -39 18v53q52 11 67 60q11 29 11 86v167
q0 95 64 116q17 5 35 5h36z" />
    <glyph glyph-name="bar" unicode="|" horiz-adv-x="260" 
d="M110 719h40v-921h-40v921z" />
    <glyph glyph-name="braceright" unicode="}" horiz-adv-x="334" 
d="M39 -202v45h6q55 0 69 33q4 13 5 44v181q0 114 96 157q-96 44 -96 158v181q0 57 -32 70q-15 7 -42 7h-6v45h37q76 0 95 -74q5 -20 5 -47v-167q0 -99 40 -129q17 -13 36 -17v-53q-50 -11 -67 -62q-9 -29 -9 -84v-167q0 -96 -66 -116q-15 -5 -34 -5h-37z" />
    <glyph glyph-name="asciitilde" unicode="~" horiz-adv-x="584" 
d="M465 401h33v-6q0 -79 -52 -106q-19 -11 -43 -11q-20 0 -42 8q-18 6 -34 16l-98 64l-10 5h-1l-13 5l-23 5q-37 0 -55 -41q-6 -14 -8 -37h-33q5 112 81 124l16 1l16 -2q16 -3 33 -13l117 -69q30 -18 55 -18q53 0 60 58z" />
    <glyph glyph-name="copyright" unicode="&#xa9;" horiz-adv-x="861" 
d="M587 447h-51q-19 75 -76 90q-12 3 -30 3q-82 0 -116 -82q-19 -42 -19 -100q0 -83 38 -130q28 -37 74 -48q13 -2 23 -2q90 0 114 122v2h51l-4 -18q-12 -52 -33 -82q-46 -66 -128 -66q-95 0 -146 80q-38 58 -38 141q0 126 77 187q46 38 110 38q113 0 150 -124l1 -1
q2 -9 3 -10zM424 732q147 0 254 -100q105 -99 117 -242q1 -13 1 -29q0 -151 -103 -258q-100 -105 -249 -114l-25 -1q-141 0 -247 99q-104 99 -118 238q-2 16 -2 35q0 147 100 254q100 105 243 117zM424 690q-133 0 -228 -96t-96 -234q0 -134 94 -231q92 -96 226 -99
q139 0 234 98q94 96 94 233q0 135 -95 232q-94 96 -229 97z" />
    <glyph glyph-name="u00AD" unicode="&#xad;" horiz-adv-x="333" 
d="M274 302v-52h-218v52h218z" />
    <glyph glyph-name="u00AD" unicode="&#x2010;" horiz-adv-x="333" 
d="M274 302v-52h-218v52h218z" />
    <glyph glyph-name="registered" unicode="&#xae;" horiz-adv-x="737" 
d="M262 335v-185h-50v425h196q130 0 131 -116q0 -45 -27 -72v-1l-33 -27l22 -15q13 -10 18 -21q10 -19 11 -75q1 -65 17 -82l4 -4l5 -3l-3 2v-11h-62q-12 26 -12 67l1 40q0 67 -55 77h-2l-17 1h-144zM262 378h139q80 0 85 77q0 67 -52 74q0 2 -10 2q-10 1 -23 1h-139v-154z
M369 732q147 0 254 -100q105 -99 117 -242q1 -13 1 -29q0 -151 -103 -258q-100 -105 -249 -114l-25 -1q-141 0 -247 99q-104 99 -118 238q-2 16 -2 35q0 147 100 254q100 105 243 117zM369 690q-133 0 -228 -96t-96 -234q0 -134 94 -231q92 -96 226 -99q139 0 234 98
q94 96 94 233q0 135 -95 232q-94 96 -229 97z" />
    <glyph glyph-name="degree" unicode="&#xb0;" horiz-adv-x="372" 
d="M192 429q51 1 87.5 36.5t35.5 87.5q0 51 -37.5 85.5t-88.5 33.5q-51 0 -88 -36t-36 -87t38.5 -85.5t88.5 -34.5zM192 482q-31 0 -51 19.5t-20 49.5q0 29 20 49t51 20q30 0 51 -20t21 -49q0 -30 -21 -49.5t-51 -19.5z" />
    <glyph glyph-name="degree" unicode="&#x9fd;" horiz-adv-x="372" 
d="M192 429q51 1 87.5 36.5t35.5 87.5q0 51 -37.5 85.5t-88.5 33.5q-51 0 -88 -36t-36 -87t38.5 -85.5t88.5 -34.5zM192 482q-31 0 -51 19.5t-20 49.5q0 29 20 49t51 20q30 0 51 -20t21 -49q0 -30 -21 -49.5t-51 -19.5z" />
    <glyph glyph-name="periodcentered" unicode="&#xb7;" horiz-adv-x="278" 
d="M201 417v-105h-104v105h104z" />
    <glyph glyph-name="multiply" unicode="&#xd7;" horiz-adv-x="584" 
d="M439 414l35 -36l-146 -146l146 -146l-36 -36l-146 146l-146 -146l-36 36l147 146l-147 146l36 36l146 -146z" />
    <glyph glyph-name="divide" unicode="&#xf7;" horiz-adv-x="584" 
d="M524 261v-50h-464v50h464zM334 94v-84h-84v84h84zM334 462v-84h-84v84h84z" />
    <glyph glyph-name="u0950" unicode="&#x950;" horiz-adv-x="611" 
d="M441 585q49 0 81 -26q33 -23 55 -78q4 -8 4 -23q0 -20 -3.5 -34t-9.5 -41q-11 -40 -39 -67q20 -25 29 -40l16 -25l8 -27q3 -13 3 -32q0 -33 -12 -67q-9 -28 -37 -56q-25 -23 -54 -30q-15 -4 -33.5 -6t-39.5 -2q-43 0 -80 18q-25 11 -45 27l-65 64q-9 10 -20.5 26
t-25.5 39l-16 30l-25 51l-48 120l-37 116l16 -9l14 -46l16 -37q9 -26 23 -54t33 -58l26 -49q20 -37 47 -64t61 -51q16 -11 34 -21l34 -17q29 -11 65 -11q50 0 87 23t53 73l3 22q0 27 -18 49l-29 22q-31 -27 -54 -27q-31 3 -45 17t-19 47q0 16 8 30q8 9 9.5 12.5t15.5 12.5
q6 6 13 8t14 2l25 -3l24 -11q53 26 53 83q0 30 -19 52q-8 13 -22.5 18.5t-41.5 8.5q-36 0 -71 -12q-25 -9 -36 -17l-46 -31q-17 -12 -35 -42q31 -17 40 -59l1 -6v-4q0 -21 -13 -32q-17 -10 -38 -10q-27 0 -50 16q-7 6 -17 25q-7 17 -7 37q0 31 10 48q37 63 98 95
q36 16 66 24.5t66 8.5zM331 828q7 10 21 10q11 0 19.5 -7t8.5 -17v-4.5t-2 -5.5q0 -10 -7 -18t-18 -11q-21 -3 -32 18l-2 9l3 13zM462 788q0 -50 -31 -88q-31 -36 -75.5 -36t-84.5 35q-28 26 -53 76l-11 30q-2 9 -5 17t1 2h-3q10 0 12 -1l22 -46q10 -14 20.5 -24.5
t22.5 -18.5l40 -20l33 -4l21 3q16 3 31 13t29 28l24 58q-3 0 -1.5 -0.5t2.5 -0.5l4 -5z" />
    <glyph glyph-name="u0964" unicode="&#x964;" horiz-adv-x="446" 
d="M293 -2l-20 16l1 518l40 -20v-526z" />
    <glyph glyph-name="u0965" unicode="&#x965;" horiz-adv-x="460" 
d="M249 -9l-22 17l-11 18l-3 20q-1 9 -2 19l-1 21q-1 9 -1 21v313q0 6 -1 21t-1.5 34t-3 36t-6.5 24l-3 9l14 -6l2.5 -2t5.5 -5l6 -3q6 -4 5 -4l11 -10q5 -7 6.5 -9t2.5 -10l3 -23v-397l1 -27q2 -13 2 -17v-8t1 -8.5t4 -21.5l3 -7zM369 -9l-22 17l-11 18l-3 20q-1 9 -2 19
l-1 21v21v313q-1 6 -1.5 21t-1.5 34t-3.5 36t-6.5 24l-3 9l14 -6l2.5 -2t6.5 -5l6 -3l4 -4l11 -10q6 -7 7 -9t2 -10l3 -23v-397l2 -27q1 -13 1 -17q0 -5 0.5 -8t1 -8.5t3.5 -21.5l3 -7z" />
    <glyph glyph-name="u0981" unicode="&#x981;" horiz-adv-x="1" 
d="M-223 891q7 10 21 10q11 0 19.5 -7t8.5 -17v-4.5t-2 -5.5q0 -10 -7 -18t-18 -11q-21 -3 -32 18l-2 9l3 13zM-92 851q0 -50 -31 -88q-31 -36 -75.5 -36t-84.5 35q-28 26 -53 76l-11 30q-2 9 -5 17t1 2h-3q10 0 12 -1l22 -46q10 -14 20.5 -24.5t22.5 -18.5l40 -20l33 -4
l21 3q16 3 31 13t29 28l24 58q-3 0 -1.5 -0.5t2.5 -0.5l4 -5z" />
    <glyph glyph-name="u0982" unicode="&#x982;" horiz-adv-x="361" 
d="M259 360q-13 -14 -31.5 -24t-37.5 -10q-59 -6 -95 38q-40 43 -29 107q0 24 8 44t28 35q34 28 72 28q48 0 83 -38q18 -20 27.5 -43t9.5 -49q0 -12 -2.5 -23t-7.5 -23q-3 -10 -9.5 -20.5t-15.5 -21.5zM346 -41l-97 80l-62 47q-30 24 -56 42t-43 28v108l47 -41l25 -21
l49 -48q10 -10 39 -43l78 -91l74 -90v-24zM211 392q13 9 22.5 17.5t15.5 17t9.5 17.5t4.5 19q0 13 -8 22.5t-19.5 16t-25 9.5t-27.5 3q-38 0 -57 -17q-33 -31 -33 -82q0 -55 45 -55q14 0 32.5 8t40.5 24z" />
    <glyph glyph-name="u0983" unicode="&#x983;" horiz-adv-x="375" 
d="M300 365q-9 -10 -17.5 -16t-17.5 -11l-17 -6l-20 -2q-46 0 -85 43q-19 23 -29 47.5t-10 52.5v15t1 10.5t3 9.5t6 13q3 8 11.5 16t19.5 18q38 28 75 28q46 0 83 -38q36 -36 36 -87t-39 -93zM295 14q-6 -8 -14.5 -13.5t-17.5 -11.5q-8 -3 -18 -5.5t-20 -4.5q-21 0 -41.5 11
t-40.5 34q-37 45 -37 100q0 28 9.5 49.5t32.5 38.5q33 27 73 27q45 0 80 -38t35 -88v-16.5t-1.5 -11.5l-3 -10t-4.5 -12q-5 -11 -13 -23.5t-19 -25.5zM253 392q54 38 54 73q0 14 -8 24.5t-19.5 17t-26 10t-30.5 3.5q-34 0 -51 -15q-36 -28 -36 -85q0 -23 9.5 -37.5
t36.5 -18.5q16 0 34 7t37 21zM258 39q22 19 33.5 37t15.5 39q0 16 -9.5 29t-23.5 21t-30.5 12.5t-32.5 4.5q-12 0 -23 -3t-21 -10q-11 -11 -23 -36q-7 -24 -7 -49q0 -14 3 -27t9.5 -24t16.5 -17.5t24 -6.5q10 0 17 1.5t15 5.5z" />
    <glyph glyph-name="u0985" unicode="&#x985;" horiz-adv-x="713" 
d="M617 571v-594l-4 5l-6 18l-6 20l-10 37l-11 24l-33 54l-27 42q-6 7 -14 16t-29 25q-16 -27 -31.5 -43t-33.5 -28t-39 -19.5t-42 -7.5l-26 2q-8 0 -24 8q-49 18 -79 39q-13 11 -35 37.5t-51 68.5q-12 16 -26 47.5t-31 79.5t-26.5 80.5t-8.5 30.5l15 -6l40 -110
q4 -12 10.5 -26t17.5 -29l27 -39q29 -29 54 -48t47 -31q46 -20 98 -20q28 0 49 8.5t34.5 23t20.5 34t7 42.5q0 24 -5.5 46t-14.5 39t-22 29t-29 12q-13 0 -30 -23q-26 -37 -45 -37q-40 0 -63 15q-29 17 -29 49q0 15 14 50q2 6 8.5 10.5t15 8t19 5t20.5 1.5q67 0 121 -41
l16 -16l22 -26q23 -27 34.5 -66.5t11.5 -83.5l89 -155v442h-573l-40 40h734l40 -40h-121z" />
    <glyph glyph-name="u0986" unicode="&#x986;" horiz-adv-x="930" 
d="M647 571h-30v-594l-4 5l-6 18l-6 20l-10 37l-11 24l-33 54l-27 42q-6 7 -14 16t-29 25q-16 -27 -31.5 -43t-33.5 -28t-39 -19.5t-42 -7.5l-26 2q-8 0 -24 8q-27 9 -46 18.5t-33 20.5q-28 22 -86 106q-11 16 -25.5 48t-31.5 82l-27 81q-11 31 -10 27l17 -6l40 -110
q4 -12 10.5 -26t17.5 -29l27 -39q29 -29 54 -48.5t48 -30.5q42 -20 97 -20q28 0 49 8.5t34.5 23t20.5 34t7 42.5q0 24 -5.5 46t-14.5 39t-22 29t-29 12q-13 0 -30 -23q-26 -37 -45 -37q-39 0 -63 15q-29 17 -29 49q0 16 14 49q2 7 8.5 11.5t15 8t19 5t20.5 1.5q69 0 121 -41
l16 -16l22 -26q23 -28 34.5 -65t11.5 -85l89 -155v442h-573l-40 40h622h18l35 -1l42 -4q56 -7 82 -70l11 -23l10 -25l7 116l-5 71v26q0 9 -0.5 17t8.5 -18l-6 4l4 -28l6 -20l7 -15l14 -19l10 -11h74l39 -40h-118v-614l-38 40v446q0 10 -0.5 17t-2.5 10q-1 13 -5.5 24
t-12.5 20l-29 30q-10 8 -21.5 14t-25.5 10z" />
    <glyph glyph-name="u0987" unicode="&#x987;" horiz-adv-x="563" 
d="M243 571l18 -44l18 -16l29 -13l23 -6q47 -13 80 -64q35 -49 35 -98l-2 -12q0 -22 -10 -45t-30.5 -44t-51 -39t-88.5 -35l37 -33q48 -29 82.5 -54t55.5 -45l90 -82l9 -40q-19 21 -74 63.5t-120 80.5q-37 21 -65.5 35t-49.5 22q-20 8 -52 18t-71 21l-56 116q-9 6 12 -3.5
t46 -16.5l45 -9l45 -4q22 0 38 2.5t28 7.5l56 22q10 6 24.5 18.5t34.5 34.5q12 16 12 38q0 13 -3 26.5t-10 26.5q-13 30 -40 40q-23 12 -41 12q-7 0 -15 -1t-21 -8q0 -36 -18 -57l-28 -28q-26 -20 -58 -20q-10 0 -20.5 2.5t-20.5 7.5q-13 8 -18 30q-5 17 14 48l15 19l20 25
q4 3 18 9.5t38 15.5q24 6 28 15q7 14 -19 39l-24 22h-184l-39 40h370l12 2l28 2q25 4 44 32l6 15q0 22 -41 38q-19 7 -37 9.5t-34 2.5l-50 -1h-38l-29 -5q-10 0 -17 -0.5t-9 -1.5h-16q-37 0 -73 10.5t-63 35.5q-8 6 -14.5 15t-11.5 20t-8 21.5t-3 19.5q0 11 1 18t4 12
q3 11 10 19l5 2l16 3h8l-18 4q-13 -8 -13 -47l4 -26q2 -13 39 -31l40 -13l19 -2l85 8l107 3q59 0 91 -22q31 -17 49 -45q22 -32 22 -72l-2 -26h95l40 -40h-340z" />
    <glyph glyph-name="u0988" unicode="&#x988;" horiz-adv-x="616" 
d="M620 571h-425q-7 -7 -7 -8l2 1q-6 -7 -9 -21l4 -25l7 -14l21 -6q11 0 30 -10q21 -7 37 -27q18 -20 25 -31.5t9.5 -21t2 -21t5.5 -50.5l44 55l13 14l21 17l51 40q20 13 41 22l84 -55l-52 -53q-7 -7 -13.5 -18t-15.5 -26l-33 -71l-15 -51l-7 -47l-2 -41q0 -37 4.5 -64
t20.5 -59l10 -25l6 -9l-19 8l-26 79l-13 53q-7 43 -7 84q0 49 12.5 92t17.5 104q-2 -5 -27 -35l-71 -82q-39 -53 -66 -80q-45 -42 -91 -56q-47 0 -81 48q-3 3 -16 38q-2 6 -3 12.5t-2 14.5l1 4l9 8q13 -57 57 -57l22 6q18 4 39 21l53 56l21 28l6 39q0 75 -44 86l-24 5
q-13 0 -36 -17q3 -33 -11.5 -54t-42.5 -21q-29 0 -50 20t-21 48q0 14 7 29l11 22l25 19q17 11 25 13l31 6l-38 64h-128l-40 40h481q39 12 39 55q0 21 -25 29.5t-52 8.5l-34 -1l-49 -7l-41 -2l-49 -1h-24l-23 -2h-30q-10 0 -16.5 1.5t-20.5 6.5t-30 17.5t-23 18.5l-16 19
q-6 9 -10 18l-8 38q0 28 13 46l13 10l9 -11q-2 -2 -7.5 -13t-7.5 -26l5 -20l12 -19q9 -9 31 -17l39 -5l53 4l61 4l43 1h13l23 3q15 0 29 -1t27 -5q26 -2 51 -15.5t33 -23.5q7 -7 13 -16t11 -19l9 -25l4 -27l-3 -24h78z" />
    <glyph glyph-name="u0989" unicode="&#x989;" horiz-adv-x="617" 
d="M287 571v-190l9 -35l19 -15l18 -6q25 0 66 59q34 50 53 50l13 -3q7 -3 14 -7.5t12 -11.5l26 -40q14 -24 24.5 -51t10.5 -60q0 -23 -4.5 -48t-14.5 -55q-17 -56 -63 -88q-23 -16 -52.5 -24.5t-66.5 -8.5h-17l-10 1q-79 0 -137 66q-9 9 -26 37l-43 76l-11 31l-21 58
q-5 16 -11 48.5t-14 81.5l-8 71l13 -8q0 -18 4.5 -46t14.5 -61l29 -79q9 -27 21.5 -49.5t29.5 -41.5l44 -54q23 -24 77 -42q26 -7 54 -7q54 0 94 22t61 58l19 35l8 31l2 14q0 9 -2 19.5t-6 22.5t-10.5 23.5t-27.5 31.5q-7 -30 -45 -68q-14 -13 -26 -23l-23 -17
q-39 -22 -65 -22q-15 0 -27 5t-20 13q-17 18 -21 52l-3 19v42v194h-252l-39 40h447l50 20l20 16q0 17 -9 28t-22.5 19.5t-32.5 13t-41 4.5l-50 -1h-38l-29 -5q-10 0 -17 -0.5t-10 -1.5h-15q-37 0 -73 10.5t-63 35.5q-21 17 -30 37l-6 19l-2 23q0 11 3 22t7 20t6.5 11.5
t-0.5 3.5l11 -5q3 3 -5 -9l-9 -28q0 -41 44 -64q27 -12 48 -12l48 1l61 2l47 3l47 2q21 0 48 -6t44 -16q47 -24 64 -73l6 -26l1 -44h83l40 -40h-343z" />
    <glyph glyph-name="u098A" unicode="&#x98a;" horiz-adv-x="659" 
d="M362 571v-175v-51q0 -35 20 -35q36 7 67 37q19 15 35 32.5t28 36.5l21 26q1 0 7 -7q18 -16 31 -31.5t23 -30.5q15 -27 23 -55.5t8 -56.5q0 -23 -4 -47.5t-14 -51.5q-17 -50 -79 -94q-60 -40 -133 -40q-19 0 -40 4.5t-42.5 14t-44 22.5t-42.5 31q-49 37 -93 123
q-15 31 -31 73.5t-33 96.5l-9 44l-5 53l1 5h-7l20 -19l6 -28l14 -59l10 -38l26 -68q6 -16 15 -30.5t19 -28.5q32 -48 51 -66l83 -55q-39 48 -50.5 65.5t-22.5 39.5l-35 81l-14 44l-10 58l-11 84v14q0 5 -0.5 10t3.5 -14l9 -6q0 -40 12 -86l18 -58l4 -18l12 -26l8 -23l13 -20
l17 -29l19 -27l39 -40q11 -8 23 -14t27 -13l27 -6l27 -3q21 0 42 5t40 14t36.5 21.5t31.5 27.5l22 28q6 8 9.5 20t8.5 27l1 18q0 12 -2 20.5t-5 18.5l-37 67q-8 -39 -50 -78q-25 -21 -40.5 -32.5t-25.5 -16.5t-18 -6t-19 -2q-28 0 -50 19q-19 19 -22 37l-7 41l-3 46v180
h-316l-40 40h483h28q32 0 38 15l3 21q0 28 -33 43q-13 5 -18 7q-9 3 -18.5 4.5t-19.5 1.5l-42 1l-40 -4l-52 -6l-56 -2q-50 -1 -92.5 3.5t-74 14t-51.5 23t-28 33.5l-10 23q-1 3 -2.5 10.5t-2.5 18.5q0 20 9 44l6 7l7 -5l12 -17l1 -1q-6 -9 -10.5 -19t-4.5 -18q0 -4 2 -11
t7 -14.5t14.5 -14t25.5 -11.5l28 -6l37 -1h48l37 5l116 11q36 0 82 -7q46 -5 72 -19q25 -9 51 -48q25 -36 25 -82h101l40 -40h-320z" />
    <glyph glyph-name="u098B" unicode="&#x98b;" horiz-adv-x="716" 
d="M600 571v-467l2 -2q0 9 -16 43l-20 48q-10 20 -20.5 34.5t-22.5 25.5q-10 9 -26 19.5t-52 28.5v-280l-2 2l-21 58l-29 52q-10 15 -22 29t-26 29q-5 3 -8.5 6t-8.5 7l-20 13q-10 7 -21 14q-7 4 -15 8l-16 9q-10 5 -19 8.5t-17 6.5l-67 15l-54 79l56 42l36 24l102 54l80 41
q-15 18 -24 27t-21 18q-3 2 -8.5 5t-11.5 5.5t-14 4.5t-21 2q-5 -11 -18.5 -22t-37.5 -27q-25 -15 -43.5 -21.5t-31.5 -6.5q-26 0 -43.5 1.5t-27.5 5.5q-30 11 -41 49l-2 18q0 10 4 20t11 18t16.5 13t19.5 5q21 0 34 -15q10 -16 10 -45q94 8 139 81q11 -6 30 -19.5t37 -29.5
q16 -14 30 -33t46 -76v221l40 -40v-322l31 -22l25 -20q13 -11 23 -24t37 -64v491l34 -28l4 -77h98l41 -40h-138zM406 455q-28 -5 -42 -10.5t-25 -13.5l-42 -28l-23 -14l-23 -16l-50 -40l73 -43l34 -28l37 -37q10 -10 20 -23l41 -56v309z" />
    <glyph glyph-name="u098F" unicode="&#x98f;" horiz-adv-x="657" 
d="M570 -15q-3 1 -7 20q-6 25 -12.5 42t-16 28.5t-21 17.5t-24.5 11q-13 3 -26.5 6t-28.5 3l-38 -2l-51 -7l-61 -9l-43 -2q-31 0 -55 8.5t-49 25.5q-17 10 -29 25t-21 32l-20 51q-7 30 -7 67l1 40l9 37l21 44l11 19l10 -10l-12 -20q-12 -22 -12 -32l-1 -11l-5 -49l1 -33
l8 -34q8 -23 34 -51q20 -19 63 -30q21 -5 36.5 -7.5t32.5 -2.5l26 2l37 5l44 3q64 0 103 -19l75 -61v458q0 18 -27 23l-25 -4l-27 -11q-9 -3 -18 -9t-18 -13l-40 -32q-23 -18 -38 -42.5t-26 -76.5l44 5l20 -3q2 -1 13 -20q2 -5 3 -14l6 -23q0 -11 -5 -21.5t-13 -19.5
q-6 -6 -12.5 -9.5t-13.5 -4.5l-29 -3q-22 0 -38.5 7.5t-28.5 20t-17.5 28.5t-5.5 32l1 14q7 40 24.5 77.5t46.5 71.5q19 22 57 52l75 34l21 7l22 1q9 0 19 -4t20 -13l27 -26q13 -13 19 -23.5t6 -17.5v-561z" />
    <glyph glyph-name="u0990" unicode="&#x990;" horiz-adv-x="726" 
d="M681 557q0 -82 -74 -128q-8 -6 -15.5 -15.5t-18.5 -23.5v-418l-8 8l-11 45q-11 38 -39 58.5t-80 20.5l-102 -9l-66 -4q-17 0 -30.5 1t-21.5 4q-31 8 -53.5 17t-38.5 20q-23 16 -38 46q-11 23 -16.5 50.5t-5.5 60.5q0 40 11 84q1 6 5.5 17t11.5 26l12 17l9 -11l-11 -22
l-10 -28l-1 -13l-6 -51q0 -15 1.5 -29t6 -27t13 -26t21.5 -26q20 -19 69 -32l39 -7l36 -1q50 7 85 7q34 0 60.5 -5t45.5 -14l74 -59v453q0 18 -28 23l-25 -4l-23 -9l-20 -11l-18 -14l-13 -12l-25 -24l-15 -15q-15 -17 -26.5 -38t-26.5 -61l31 4l19 2q19 0 32 -22l7 -16
l2 -18q0 -10 -4.5 -19.5t-11.5 -17.5t-16 -14t-15 -9l-29 -2q-42 0 -65 27.5t-23 77.5q0 8 4 23t12 37q17 44 47 80q5 8 17.5 18.5t30.5 23.5q6 5 15.5 11t21.5 13l16 9l15 9l33 10l31 4l26 -12q15 -7 22.5 -12t10.5 -9q22 -25 22 -50q0 -36 19 -40l20 1l22 11q7 4 12 9.5
t9 11.5l8 34l-4 34l-6 12q-19 47 -133 84l-133 44q-46 15 -51 18q-91 44 -91 117l1 15l11 24q10 22 34 46l11 15q-1 -1 -2 -1l20 -22l-6 -3l-18 -9q-22 -16 -32 -53q-9 -50 206 -115q58 -17 96 -33.5t56 -31.5q33 -26 52 -64q6 -14 9 -28.5t3 -30.5z" />
    <glyph glyph-name="u0993" unicode="&#x993;" horiz-adv-x="662" 
d="M441 585q49 0 81 -26q33 -23 55 -78q4 -8 4 -23q0 -20 -3.5 -34t-9.5 -41q-11 -40 -39 -67q20 -25 29 -40l16 -25l8 -27q3 -13 3 -32q0 -33 -12 -67q-9 -28 -37 -56q-25 -23 -54 -30q-15 -4 -33.5 -6t-39.5 -2q-43 0 -80 18q-25 11 -45 27l-65 64q-9 10 -20.5 26
t-25.5 39l-16 30l-25 51l-48 120l-37 116l16 -9l14 -46l16 -37q9 -26 23 -54t33 -58l26 -49q20 -37 47 -64t61 -51q16 -11 34 -21l34 -17q29 -11 65 -11q50 0 87 23t53 73l3 22q0 27 -18 49l-29 22q-31 -27 -54 -27q-31 3 -45 17t-19 47q0 16 8 30q8 9 9.5 12.5t15.5 12.5
q6 6 13 8t14 2l25 -3l24 -11q53 26 53 83q0 30 -19 52q-8 13 -22.5 18.5t-41.5 8.5q-36 0 -71 -12q-25 -9 -36 -17l-46 -31q-17 -12 -35 -42q31 -17 40 -59l1 -6v-4q0 -21 -13 -32q-17 -10 -38 -10q-27 0 -50 16q-7 6 -17 25q-7 17 -7 37q0 31 10 48q37 63 98 95
q36 16 66 24.5t66 8.5z" />
    <glyph glyph-name="u0994" unicode="&#x994;" horiz-adv-x="744" 
d="M693 491q0 -51 -49 -111l-73 -73q24 -40 36 -79q4 -11 6 -23.5t2 -25.5q0 -36 -11.5 -64t-37.5 -45q-18 -11 -35 -19.5t-33 -13.5q-14 -3 -31 -4.5t-37 -1.5q-27 0 -54 8.5t-54 25.5q-34 23 -81 75q-10 10 -22 26t-25 37l-42 83l-49 124l-32 107l14 -7l29 -81
q10 -27 24.5 -54.5t31.5 -56.5l37 -61l37 -44l43 -40q20 -16 43 -28.5t51 -21.5q37 -11 73 -11q47 0 80.5 20t46.5 64l3 15v10q0 12 -4.5 24t-12.5 24l-29 29q-12 -15 -17.5 -19.5t-11.5 -7.5l-29 -5l-20 1l-16 7q-7 5 -11.5 10t-6.5 9l-7 35q0 34 29 55l13 6l19 2
q9 0 17 -1t16 -4l17 -6q12 6 21.5 14.5t16.5 19.5t12 24.5t5 27.5q0 28 -25 56q-17 17 -57 17h-21t-16.5 -1.5t-17.5 -3.5l-25 -7q-27 -7 -38 -14l-41 -27q-6 -6 -13 -16l-22 -31l24 -21q13 -16 13 -35q0 -12 -4 -22.5t-10.5 -18t-16 -11.5t-19.5 -4q-23 0 -49 17
q-23 17 -23 65l1 28q0 7 7 19q28 65 98 96q30 15 62.5 22t67.5 7q50 0 84.5 -25t49.5 -74l2 -12q0 -23 -13 -53q-14 -28 36 11.5t50 92.5q0 9 -1.5 18t-4.5 16q-12 39 -66 67l-43 15l-56 16q-60 12 -105 28.5t-77 37.5q-72 46 -72 108q-2 12 3 26t14.5 28t24 26t26.5 17
l11 -11l6 -8q-16 -5 -31 -16.5t-15 -31.5q0 -13 5 -18q0 -38 56 -69l119 -41q59 -19 98.5 -37t61.5 -34q18 -14 32 -32t23 -39l12 -34l4 -35v-16z" />
    <glyph glyph-name="u0995" unicode="&#x995;" horiz-adv-x="677" 
d="M368 445q-58 -17 -88 -34l-65 -35l-41 -29l-51 -38q36 -14 123 -76t122 -136v348zM408 571v-67l23 4q55 0 118 -58q83 -70 83 -179q0 -21 -7 -40t-19 -32.5t-27.5 -20.5t-33.5 -7q-30 0 -56 29q-16 27 -9.5 47t10.5 25q21 21 48 20q44 -4 65 -43l5 32q0 28 -9 49
q-12 36 -41 60q-20 21 -48 36q-37 19 -78 19l-25 -2v-464l-3 3l-18 50q-5 16 -18.5 36.5t-33.5 45.5q-41 56 -80 75l-32 18l-40 17q-12 5 -30.5 10t-41.5 7l-74 91q14 11 42 30.5t62 40.5q61 37 106 58q45 20 124 46v64h-371l-41 40h700l39 -40h-289z" />
    <glyph glyph-name="u0996" unicode="&#x996;" horiz-adv-x="583" 
d="M488 571v-591l2 -2l-10 18l-10 19l-8 22l-19 37l-14 23l-25 32q-22 26 -53 47q-44 27 -90.5 43.5t-91.5 22.5l-82 102l28 -2l45 4l47 10q31 9 56 22.5t44 31.5q30 29 30 56q0 23 -7.5 37.5t-33.5 34.5l-56 -53l-34 -18l-48 -18q-33 -9 -52 -9q-16 0 -30 4.5t-24 12.5
t-16 19t-6 25l1 29q0 2 2.5 6t7.5 10q15 20 40 20q27 0 40 -14q3 -5 5.5 -12t2.5 -29q38 5 50 13l55 47l33 32l31 -26l34 -30q7 -8 16.5 -22t21.5 -34q4 -10 7 -20t3 -22q0 -30 -16 -60.5t-53 -56.5l-32 -19l-46 -18l58 -31l35 -25q32 -26 65 -61q12 -13 21.5 -27t36.5 -57
v618l14 -10l3 -32l7 -40q4 -7 10 -10.5t16 -8.5h68l36 -40h-115z" />
    <glyph glyph-name="u0997" unicode="&#x997;" horiz-adv-x="567" 
d="M481 571v-617l-35 34v354l-11 38q-1 11 -7 21l-8 19q-8 23 -45 60l-50 43l-19 9l-26 11q-32 13 -55 9q-23 -5 -41 -9.5t-29 -11.5q-34 -20 -67 -92l46 10l38 4l31 -3q10 0 27 -10q48 -26 48 -69q0 -12 -1.5 -21.5t-4.5 -17.5q-1 -8 -9 -23.5t-23 -37.5l-36 -55l-26 -31
l-55 62l19 16l43 47l37 39q11 12 17 23t6 22q0 12 -7 18q-13 18 -36 18q-20 0 -63 -26q-37 -24 -54 -24q-9 0 -16 5q-23 13 -32.5 30.5t-9.5 39.5q0 37 28 79q21 31 47 48q19 11 41.5 17t49.5 6q20 0 41.5 -3.5t41 -9.5t35.5 -14t25 -18l41 -39q13 -13 21.5 -25.5
t14.5 -24.5t16.5 -30.5t28.5 -61.5q-6 113 -9 141.5t-3 47.5v143l15 -14l-2 -12q0 -12 3 -25.5t9 -26.5q4 -13 22 -22h58l40 -40h-110z" />
    <glyph glyph-name="u0998" unicode="&#x998;" horiz-adv-x="565" 
d="M464 571l1 -597l-10 9l-24 61q-19 43 -72 91q-29 24 -61.5 39.5t-69.5 22.5l-34 4l-28 1l-70 72l52 53q15 16 31.5 31t84.5 70l-83 -33l-21 -2q-36 0 -71 28q-15 11 -22 20t-10 17l-2 6q-2 6 -3.5 14t-1.5 17l3 32l20 44h-71l-39 40h580l40 -40h-119zM424 571h-208
q-29 3 -55 -17q-7 -8 -12.5 -15.5t-11.5 -19.5l-9 -33q0 -16 7 -29t18 -22.5t24.5 -15t26 -5.5t27 4.5t28 11.5t26 16.5t13.5 10.5l47 -47q-5 -2 -24 -17.5t-43 -36.5q-21 -21 -39.5 -41t-40.5 -49l55 -23q10 -3 18 -6.5t16 -9.5q18 -9 31 -20l14 -14q7 -6 17 -17
q17 -17 31 -34.5t44 -69.5v499z" />
    <glyph glyph-name="u0999" unicode="&#x999;" horiz-adv-x="548" 
d="M518 146q0 -70 -43 -116q-47 -51 -133 -51l-25 2l-24 3q-27 3 -54.5 17t-53 37t-48 54t-39.5 67l-24 54l-21 63l-14 56l-9 60l-8 58l10 -7q10 -49 17.5 -80.5t11.5 -42.5l30 -71q15 -31 33.5 -59t39 -51.5t44 -41.5t49.5 -27q36 -12 73 -12q62 0 105 29q52 37 52 101
q0 39 -46 89l-16 -25l-9 -9l-42 -32l-52 -34q-5 -3 -12 -4.5t-14 -1.5q-10 0 -21 5t-24 15l-18 14l-18 23q-14 23 -15 35v150l-36 26l-23 19l-43 38l-30 33l-16 20l-10 14l67 19l46 -87l15 -18l27 -24q12 36 20 51t16 24q17 19 58 39q23 11 51 11q30 0 57 -13q24 -10 35 -35
l5 -21l4 -21q0 -44 -50 -72q-47 -22 -100 -22q-35 0 -58 37v-143q0 -21 10.5 -34.5t35.5 -16.5q26 0 51 20l37 38l24 27l13 24q20 -8 43 -28.5t39 -52.5q15 -29 22.5 -58.5t7.5 -60.5zM411 521q-8 17 -33 17q-7 0 -14.5 -1t-14.5 -4l-20 -6q-29 -8 -51 -29
q-11 -10 -19 -23.5t-16 -34.5q9 -18 42 -18l36 4q21 4 37.5 12t29 18t19.5 22.5t7 25.5q0 10 -3 17z" />
    <glyph glyph-name="u099A" unicode="&#x99a;" horiz-adv-x="483" 
d="M133 571q0 -16 0.5 -19.5t2.5 -7.5l7 -19l7 -19q7 -11 14.5 -20t17.5 -16l28 -21q18 -12 58 -26l111 -39q16 -9 27 -24.5t17 -30.5l3 -19q0 -10 -0.5 -17.5t-1.5 -10.5l-10 -38q-5 -16 -12.5 -33t-18.5 -35q-25 -37 -51 -66t-51.5 -50t-50 -31t-46.5 -10l-14 1
q-21 3 -48 39q-27 37 -27 63v449h-91l-39 40h504l41 -40h-377zM304 336q-11 5 -18 8t-11 8q-26 14 -45.5 27.5t-29.5 24.5q-11 10 -22.5 26t-43.5 67v-374q0 -17 6 -28t26 -16q10 0 20 3t23 10q15 9 28 18.5t24 19.5l50 56q4 4 13 18t19 35q11 29 11 51v13l-4 18z" />
    <glyph glyph-name="u099B" unicode="&#x99b;" horiz-adv-x="542" 
d="M569 -110q-98 104 -239 149l-72 23q-25 7 -54.5 13t-59.5 10l-45 84q9 -3 34.5 -7.5t47.5 -4.5l37 1l44 7q11 2 18.5 4.5t14 5t14.5 6.5l15 10q14 8 37.5 26.5t56.5 47.5l21 25q6 10 9.5 20.5t5.5 23.5q0 27 -22 61l-50 14l-51 10l5 -35q0 -31 -26.5 -62t-75.5 -59
q-38 -24 -72 -24l-21 3q-11 3 -22 10.5t-20 16.5t-14 19t-5 19v264h-79l-37 40h556l37 -40h-443q13 -31 17 -42.5t10 -16.5q9 -10 69 -39q13 -5 29 -7.5t35 -2.5h22l22 5l14 2h12q55 0 97 -52q43 -52 43 -116v-16t-1 -12t-3 -13l-6 -20q-5 -11 -12 -21.5t-18 -20.5
q-17 -17 -71 -50l-34 -21l-51 -17l76 -37l26 -15q4 -1 8.5 -4t10.5 -8q13 -8 37 -28.5t59 -54.5l62 -62zM234 426q-25 6 -43 23l-37 20l-35 57v-208q0 -27 9 -35q9 -6 28 -6q14 2 23.5 6t15.5 9l20 14q60 44 60 86l-2 21z" />
    <glyph glyph-name="u099C" unicode="&#x99c;" horiz-adv-x="710" 
d="M395 571l-44 -24q-10 -44 38 -75l39 -15l47 -6l18 1l22 1q10 0 32 10l50 17l52 -53l27 -28q-16 -16 -49 -71q-41 -70 -41 -127l-5 -45v-31q0 -36 11.5 -79t27.5 -79q5 0 -1 0.5t-9 1.5q-23 7 -25 9l-33 143l-10 54l-3 41q0 39 15 98q4 22 9.5 40.5t16.5 44.5l-26 5
l-35 -1q-24 0 -50.5 5t-50 13.5t-43 20.5t-30.5 26l-35 46q-18 20 -64 -33q-33 -44 -51 -94l-1 -10v-6q0 -52 55 -52l19 4q12 0 34 12l50 25l19 9q6 3 10 -1q7 0 16 -8l16 -22q10 -11 18 -27t16 -38q17 -44 17 -69q0 -17 -5 -26q-12 -47 -33 -68q-8 -8 -21.5 -17t-30.5 -17
q-14 -6 -32.5 -10.5t-32.5 -4.5q-47 0 -94 24q-20 11 -39.5 29.5t-38.5 44.5q-21 29 -42 73l-18 51q-8 20 -13 47t-8 60l-2 56l-1 48v11l-2 -12l10 -7l9 -11q4 -7 4 -28v-24q0 -31 4 -46l19 -69q19 -57 63 -98q27 -24 45.5 -38t33.5 -20.5t28 -7.5t29 -3q24 0 47.5 6
t47.5 18q50 27 50 69q0 17 -8 32q-5 23 -34 27l-17 -4l-50 -19l-28 -5h-15q-12 0 -26 3t-28 10q-12 8 -25 22.5t-28 35.5q-20 34 -20 72q0 26 8 45q3 11 13.5 27.5t27.5 37.5l50 53h-268l-40 40h718l40 -40h-316z" />
    <glyph glyph-name="u099D" unicode="&#x99d;" horiz-adv-x="662" 
d="M578 571v-513l-11 10l-17 51l-9 22l-12 22l-30 38q-30 33 -84 61v-274l-7 9l-22 52q-5 12 -16 29.5t-28 39.5q-33 41 -62.5 67t-58 41t-55.5 21t-51 7l-71 88l22 15l32 21q18 13 33 22l25 15l53 30q26 15 54 28l115 51v18v29h-374l-39 40h450v-304q13 -5 20 -10t15 -12
l22 -21l23 -27l40 -61v535l9 -8l6 -35l3 -16l10 -26l23 -15h54l41 -40h-103zM378 451q-28 -9 -47 -17t-42 -20l-72 -41l-32 -20l-47 -33q41 -18 57.5 -27.5t25.5 -16.5l37 -32l26 -26l31 -35q13 -17 24 -33.5t39 -67.5v369z" />
    <glyph glyph-name="u099E" unicode="&#x99e;" horiz-adv-x="926" 
d="M863 96q-12 -15 -26.5 -23t-35.5 -8q-18 0 -39.5 7.5t-47.5 22.5q-19 11 -38 26t-39 36q-6 3 -14 10t-19 18l-36 43l-1 -254l-10 10l-17 50q-5 20 -20 39q-25 28 -54 32l-40 3h-32l-28 -5q-41 -6 -68.5 -8.5t-41.5 -2.5l-25 1h-18.5t-12 1t-11.5 3t-16 5q-9 5 -20.5 11
t-25.5 14q-13 9 -25.5 23.5t-23.5 31.5l-20 51q-6 26 -6 65l1 39l9 37l20 44l12 19l10 -10l-15 -23l-10 -27l-4 -23l-1 -30l3 -47q3 -11 8 -22t14 -23q25 -38 107 -57q26 -5 52.5 -7.5t60.5 -2.5q76 0 127 -17l82 -49v412l-6 24q-5 26 -38 26q-16 0 -33 -8l-18 -12l-21 -14
l-22 -17l-14 -15q-11 -9 -20 -19t-15 -20q-18 -29 -31 -76l47 5q7 0 15 -5q5 -2 13 -14l8 -19l4 -21q0 -12 -4.5 -22t-11.5 -18t-14.5 -12t-13.5 -4l-15 -1h-11q-43 0 -69 26q-10 13 -15.5 32t-5.5 44q0 50 56 124q6 8 20 24l35 36q26 15 45.5 25.5t33.5 17t26 8.5t23 2
l29 -14q16 -6 25.5 -12.5t13.5 -12.5q11 -9 17 -24q6 -9 6 -19v-211q23 87 38 109q8 15 16.5 27t20.5 22q28 34 56 53q35 22 65 22q37 0 75 -37q23 -20 34.5 -45t11.5 -49q0 -32 -12.5 -60t-36.5 -54l37 -75q5 -19 8 -34t3 -25v-16l-6 -24q0 -7 -4 -14zM847 166q11 17 15 40
q0 22 -15 36l-29 29l-32 -16l-37 -11q-11 0 -22.5 4t-20 11t-13 16.5t-4.5 22.5q0 10 5 20.5t13.5 18.5t19 13t21.5 5q7 0 24 -8l16 2l26 -6l14 8q23 32 23 62q0 19 -11 36q-28 34 -69 34l-20 -1q-7 0 -13.5 -2.5t-12.5 -7.5q-11 -3 -22.5 -8.5t-21.5 -14.5q-41 -26 -76 -72
q-36 -45 -36 -82l2 -14q22 -86 117 -135q32 -15 72 -15q60 0 87 35z" />
    <glyph glyph-name="u099F" unicode="&#x99f;" horiz-adv-x="497" 
d="M113 571v-412q0 -18 13 -38q16 -15 43 -15q14 0 31.5 5.5t36 18.5t40 33.5t44.5 50.5q29 39 36 94l-30 -5q-25 0 -48 16q-18 16 -18 42l1 18q9 29 27.5 41t42.5 12q6 0 10 -0.5t7 -1.5q34 -7 58 -45l11 -26l5 -40q0 -25 -3.5 -46.5t-10.5 -40.5t-18.5 -36t-27.5 -34
q-28 -30 -55 -52t-52 -37q-22 -15 -48 -19l-29 -4h-10q-12 0 -31 13q-11 6 -27 28q-12 15 -19 29t-12 28l-4 35v47v341h-72l-33 40h413v34q0 17 -5 29.5t-21 24.5q-31 17 -74 17l-51 -1h-36l-30 -5q-10 0 -17 -0.5t-9 -1.5h-15q-38 0 -74 10t-61 35q-9 7 -16 16.5t-12 20
t-8 20.5t-3 20t1 17t4 12q4 11 13 23q1 2 6 3v0v2l2 -6q-14 -13 -14 -35l3 -18l7 -20l29 -22l23 -10l32 -7l36 2l41 3l62 2l62 4q30 0 53 -5.5t39 -16.5q17 -11 34.5 -30t28.5 -42q4 -14 5.5 -25t1.5 -19v-31h71l32 -40h-411z" />
    <glyph glyph-name="u09A0" unicode="&#x9a0;" horiz-adv-x="486" 
d="M271 571q33 -34 47 -54t27 -41l34 -81q9 -23 15.5 -43t10.5 -37l5 -77q0 -15 -1.5 -25.5t-4.5 -18.5l-13 -44q-3 -13 -8.5 -24.5t-13.5 -22.5q-11 -21 -25 -30q-11 -11 -26.5 -21t-37.5 -24q-31 -17 -63 -17l-22 3l-30 5q-16 3 -28 11q-15 6 -31 20t-32 34q-13 15 -25 48
q-5 16 -7.5 30.5t-2.5 31.5q0 16 2 29.5t5 19.5q13 4 27.5 10t24.5 12q13 7 26.5 16.5t26.5 23.5q48 49 67 87q11 22 16 41.5t5 42.5q0 21 -3 42.5t-12 52.5h-218l-41 40h224v27q-4 12 -32 53q-13 19 -24.5 43t-21.5 53q-8 28 -12 48t-4 32q0 32 18 64q7 13 17 24.5t18 17.5
l53 -45q-8 -3 -23 -11t-25 -18q-27 -26 -27 -73q0 -43 49 -117l43 -60l34 -38h203l43 -40h-227zM375 294q0 21 -4.5 45.5t-14.5 50t-24 51.5t-53 75l6 -82q0 -45 -16.5 -89.5t-48.5 -83.5q-19 -26 -53 -44l-38 -21l-23 -13q-13 -7 -13 -38q0 -14 3 -28.5t9 -26.5t14 -21.5
t18 -12.5l28 -9l27 -4l22 1l24 9l22 12q13 4 35 25q11 7 21 17.5t18 22.5l13 22l13 32q7 25 11 52.5t4 57.5z" />
    <glyph glyph-name="u09A1" unicode="&#x9a1;" horiz-adv-x="627" 
d="M286 571v-253q36 0 80 29q22 16 39 33.5t29 36.5l10 15l10 11q9 -4 17 -12l24 -26q9 -12 18.5 -27t16.5 -31q20 -48 20 -94q0 -43 -17 -99q-18 -53 -72 -86q-28 -17 -63.5 -25t-76.5 -8q-77 0 -135 68q-9 11 -26 39l-42 75l-33 89q-5 16 -11.5 48.5t-13.5 81.5l-7 71
l12 -7q0 -19 4.5 -47t14.5 -61q3 -8 5.5 -18.5t7.5 -22.5l17 -39q13 -31 26 -55t27 -42l35 -42q27 -27 84 -47q26 -7 54 -7q25 0 49 5.5t44.5 16t37.5 24.5t27 30q11 16 17.5 34.5t11.5 39.5l-1 19q0 12 -8 33q-4 8 -11 19.5t-29 38.5q-7 -35 -46 -71q-15 -13 -27.5 -23.5
t-23.5 -17.5q-33 -21 -61 -21q-13 0 -23 4.5t-18 13.5q-11 13 -29 53l-3 103v105v25v21h-242l-39 40h641l40 -40h-361z" />
    <glyph glyph-name="u09A2" unicode="&#x9a2;" horiz-adv-x="498" 
d="M136 571v-414q0 -17 9 -31.5t35 -18.5q14 0 28.5 6t30.5 19q38 26 85 84q14 15 20 38l11 55l-32 -3q-22 0 -46 16q-19 15 -19 43l3 24q2 9 6 17t12 15t19 11t26 4l15 -3l20 -3q3 0 7.5 -3t12.5 -11t14.5 -16.5t12.5 -18.5q3 -8 5.5 -14.5t4.5 -13.5l5 -36q0 -25 -3 -46
t-9 -37q-6 -15 -17.5 -35t-30 -44t-41 -44t-50.5 -37l-48 -22l-30 -3q-8 -2 -22.5 6.5t-29.5 23t-26.5 30.5t-14.5 27l-1 435h-94l-39 40h517l41 -40h-387z" />
    <glyph glyph-name="u09A3" unicode="&#x9a3;" horiz-adv-x="527" 
d="M434 571v-594l-46 47v258l1 70v16q0 8 -2 24t-12 35q-6 15 -16 30.5t-21.5 29.5t-24 25t-22.5 17q-9 5 -20 9t-24 7l-27 3q-46 0 -78 -30q-43 -40 -43 -84l-1 -21q0 -54 39 -90l46 -9l-6 29l-1 14q0 19 12 29q16 10 35 10q10 0 18 -1t13.5 -4.5t11.5 -11.5t12 -23l5 -24
q0 -27 -29 -49q-24 -23 -64 -23h-13q-56 0 -101 54q-39 53 -39 126q0 65 36.5 109t98.5 60l43 4q9 0 18.5 -1.5t17.5 -4.5l24 -12q78 -43 108 -118l24 -61l-2 55q-2 27 -5.5 57t-3.5 48v137v-4l2 -2l12 -20q3 -14 8.5 -26t13.5 -22l36 -28h39l40 -40h-113z" />
    <glyph glyph-name="u09A4" unicode="&#x9a4;" horiz-adv-x="662" 
d="M2 571l-40 40h671l43 -40h-674zM611 257q0 -58 -26 -104q-21 -40 -65 -72l-46 -23l-28 -11q-13 -3 -57 -3q-40 0 -82 18q-19 9 -32 16.5t-22 15.5l-21 21l-38 47l-46 73l-15 30l-11 22l-58 145q-6 14 -12 38t-9 39l13 -5l26 -62l51 -105l44 -75l35 -48q11 -15 22 -27
t21 -19l39 -30l43 -15l38 -4l41 3l33 10q17 5 36 17.5t40 32.5q7 5 12.5 13.5t11.5 18.5l16 29q6 13 8.5 26.5t2.5 26.5v13q0 5 -0.5 9.5t-1.5 7.5q0 12 -10.5 35t-30.5 43l-16 12l-21 15q-7 2 -13.5 3.5t-16.5 3.5q-13 0 -24 -1.5t-34 -9.5q30 -39 30 -74q0 -26 -13 -45.5
t-39 -26.5l-21 -3l-20 -1q-17 0 -32 8t-28 23q-12 17 -21 55l-2 22q0 30 15 51l22 26q17 17 42 26.5t51 9.5l27 -3l27 -4q34 -8 62.5 -28t51.5 -51l26 -47l14 -37q11 -36 11 -71z" />
    <glyph glyph-name="u09A5" unicode="&#x9a5;" horiz-adv-x="535" 
d="M477 571v-594l-18 25l-35 52q-14 23 -34.5 44t-49.5 41q-35 25 -91 49q-3 0 -8 2l-13 3q-7 3 -15 5l-18 4l-54 3l-79 104h12l17 2l30 6q38 4 98 38q64 37 91 79q14 29 14 50q0 17 -7 31.5t-18.5 26t-27 18t-33.5 6.5q-9 0 -15.5 -0.5t-8.5 -3.5l-8 -3l-49 -25
q-23 -11 -33 -33l21 -25q12 -17 12 -35q0 -7 -4.5 -16t-12.5 -17l-22 -15l-27 -4q-17 0 -29 6t-20.5 17t-12.5 24.5t-4 27.5l2 14l6 23q16 50 72 78q28 15 57.5 22.5t60.5 7.5q51 0 94 -45q45 -44 45 -106q0 -27 -10 -54q-9 -24 -20 -42t-23 -32q-23 -25 -105 -75
q38 -8 49 -18l33 -21q19 -10 73 -59q21 -21 36.5 -39t43.5 -63v648l13 -15l2 -8q0 -51 27 -69h34l41 -40h-79z" />
    <glyph glyph-name="u09A6" unicode="&#x9a6;" horiz-adv-x="562" 
d="M585 571h-469v-283l41 31l80 71q18 13 38 26l44 27l74 33l93 -70l-26 -56q-31 -73 -42 -137l-5 -42l-2 -65l3 -27l3 -19l1 -21l7 -33l8 -30l3 -10l-17 6l-18 56l-13 41l-9 50l-7 71l-2 25v24l2 31l4 28l21 86l-48 -19q-18 -6 -36 -18l-29 -16q-13 -8 -26 -22
q-23 -21 -41.5 -40.5t-31.5 -39.5q-18 -23 -31.5 -46t-15.5 -30l-67 69v349h-67l-39 40h579z" />
    <glyph glyph-name="u09A7" unicode="&#x9a7;" horiz-adv-x="539" 
d="M546 571h-105v-603l4 -6l-25 61q-8 25 -52 72q-41 45 -72 66q-46 32 -62 37q-44 22 -111 29l-62 83l94 72l27 18l46 35q-51 0 -64 2t-29 10q-23 11 -38 38l-9 19l-5 29q0 17 6 34t34 37q25 14 59 14q19 0 35.5 -11.5t18.5 -25.5l-2 -11q-3 -12 -14 -19.5t-34 -7.5
q-6 0 -9 0.5t-5 1.5l-18 15q-20 -12 -20 -46q0 -32 27.5 -52t60.5 -20q14 0 23 3l17 8l89 53l51 30v75h104zM402 74v372q-30 -10 -46 -17t-32 -17l-59 -36l-49 -34l-59 -51q48 -18 72 -38q13 -7 26 -17l31 -24q31 -24 53 -51l22 -27z" />
    <glyph glyph-name="u09A8" unicode="&#x9a8;" horiz-adv-x="522" 
d="M445 -47l-38 41v152q-17 51 -38 94q-10 21 -27 40l-38 38q-58 45 -112 45l-8 -21q34 -47 34 -75q3 -22 -18.5 -49t-51.5 -24q-38 -10 -79 22q-13 15 -24 57l-3 25q0 27 10.5 50.5t28.5 40t43.5 26.5t53.5 10l25 -1q8 0 27 -9q20 -4 44 -23q35 -25 79 -77l52 -89v345h-414
l-40 40h542l41 -40h-89v-618z" />
    <glyph glyph-name="u09AA" unicode="&#x9aa;" horiz-adv-x="631" 
d="M552 571v-603l-38 34v303l-6 22l-14 35l-7 19l-20 33q-7 18 -18 24l-22 15l-206 -206l-65 24l41 44q7 6 10.5 16.5t3.5 23.5q0 12 -3 24t-9.5 22.5t-15.5 17.5t-22 7q-16 0 -24 -8q-5 -3 -52 -15q-3 0 -24 9q-15 10 -15 28q0 6 10 29q18 30 37 53t39 39q54 40 135 40
q38 0 72 -13t64 -40q23 -20 41 -44.5t31 -53.5l8 -24l9 -21l23 -49l-1 168v158l5 -3l1 -1q0 -30 18 -51l32 -16h38l37 -40h-93zM390 501q-7 15 -20 25l-20 14q-21 16 -62 16q-34 0 -62 -8.5t-50 -29.5q-8 -7 -15.5 -18t-25.5 -40q36 0 48 -6q13 -3 20 -14q9 -11 17 -31
q6 -11 9 -32l-9 -45z" />
    <glyph glyph-name="u09AB" unicode="&#x9ab;" horiz-adv-x="702" 
d="M137 571q44 -32 64 -50l45 -41l39 -43l29 -37l-26 -22l-31 -26l-98 -81q27 -8 39 -14t28 -16l53 -34q32 -24 57.5 -51t62.5 -93v445q8 3 35 3l36 -1q5 -1 14 -2t20.5 -4t27 -9t35.5 -19q18 -10 33 -27.5t25.5 -39t16 -44.5t5.5 -44q0 -31 -9.5 -50t-33.5 -34
q-21 -12 -47 -12q-19 0 -31 7l-19 22q-6 13 -10 30q0 35 36 48l19 3q17 0 31 -9l14 -12q9 -9 24 3l4 17q0 15 -5 30.5t-15 28.5t-24 23t-33 14l-51 6l-26 3q-26 0 -33 -15l1 -450l-6 5l-16 32q-9 18 -19 34t-21 28q-11 14 -22.5 27t-23.5 24l-52 38q-31 21 -70 33.5
t-79 12.5l-62 89l52 49l60 54l61 50l-38 28l-27 16l-44 9q-32 3 -42 8l-32 19l-18 17l-31 21l-41 43h702l40 -40h-573z" />
    <glyph glyph-name="u09AC" unicode="&#x9ac;" horiz-adv-x="533" 
d="M433 571v-598l-13 18l-12 29l-15 29l-15 25q-13 21 -25 36t-22.5 25.5t-28.5 23.5t-43 27q-7 4 -18 9l-20 11l-21 10l-18 9q-20 6 -39.5 9t-34.5 3l-68 96l64 44l75 44l103 50l48 21l64 21v58h-392l-39 40h528l40 -40h-98zM394 438q-46 -16 -79.5 -30.5t-67.5 -33.5
l-55 -33l-61 -39q36 -15 54 -24.5t36 -21.5q18 -11 33 -22t32 -26l39 -38q11 -12 24 -28.5t45 -68.5v365z" />
    <glyph glyph-name="u09AD" unicode="&#x9ad;" horiz-adv-x="641" 
d="M6 571l-40 40h649l42 -40h-651zM598 299q0 -34 -4 -60.5t-13.5 -48.5t-25 -42t-38.5 -40l-24 -22q-12 -8 -23 -14t-22 -9q-45 -11 -77 -11q-25 0 -65 11q-21 6 -38.5 14.5t-31.5 16.5q-11 8 -25 23l-33 39l-30 42l-27 42q-9 17 -18 35l-20 45q-5 13 -14 40t-21 67l-20 62
l15 -4q3 -14 11 -35.5t18 -44.5l22 -47l17 -34q20 -36 43.5 -67t50.5 -57l31 -25l33 -21q12 -5 33 -10t52 -10l27 -2q42 0 80 19q26 12 48.5 36t42.5 64l6 49q0 39 -9 55q-3 7 -10.5 20t-30.5 46q-16 -41 -44 -69q-9 -9 -27 -20.5t-45 -26.5l-29 -8h-27l-38 1q-10 0 -25 8
q-24 7 -52 39q-19 22 -19 65l2 21q14 62 93 62q25 -3 45 -26q3 -3 5 -8t4 -11l4 -19q0 -8 -2.5 -15.5t-6.5 -13.5l-28 -39l52 9q83 48 108 109l58 -50q62 -80 62 -130z" />
    <glyph glyph-name="u09AE" unicode="&#x9ae;" horiz-adv-x="566" 
d="M575 571h-115v-598l-6 6l-15 52q-5 15 -12 29.5t-14 25.5q-14 34 -30 44q-20 19 -39 33t-34 23l-37 20v-19l-5 -5l-27 -22l-30 -16l-31 -4q-20 0 -38.5 6.5t-26.5 16.5l-15 18l-7 23l-3 26q0 19 10 38l19 29q12 12 27 17l32 8l26 2q30 0 53 -35q0 74 -13.5 105.5
t-55.5 62.5l-79 28q-50 14 -58 23l-13 11l-19 21l-11 26l-44 45h571zM423 112v459h-316l101 -87l27 -26q6 -6 12.5 -15.5t14.5 -23.5q8 -13 14 -25t9 -24l11 -44q7 -27 7 -40l-3 -28l24 -23q4 -11 21 -24l37 -44z" />
    <glyph glyph-name="u09AF" unicode="&#x9af;" horiz-adv-x="534" 
d="M436 571v-601l-7 7q-11 31 -37 73q-21 40 -69 82q-27 23 -50 39t-43 23q-38 16 -104 16l-72 90l46 45l56 49l82 63l-69 39q-29 14 -74 22l-36 13l-38 18l-14 18l-44 44h511l42 -40h-80zM396 571h-276l63 -39l16 -11l18 -13l33 -30l23 -27q10 -11 17 -18.5t8 -8.5l-6 -6
l-9 -10l-14 -13l-14 -14q-7 -7 -13 -11q-5 -2 -37 -35l-56 -63q32 -9 46 -14.5t26 -13.5l26 -17l39 -28l44 -43l66 -82v497z" />
    <glyph glyph-name="u09B0" unicode="&#x9b0;" horiz-adv-x="496" 
d="M418 571v-595l-5 4l-53 98q-7 14 -50 64q-29 28 -62 49l-56 29q-49 23 -97 23l-69 95l61 41l38 23l38 20l102 49l113 44v56h-373l-40 40h506l41 -40h-94zM238 35q-13 -24 -38 -24q-9 0 -19 4t-18 11.5t-13 17.5t-5 22q0 7 2 13t7 13q14 23 39 23q9 0 19 -4t17.5 -11
t12 -16t4.5 -20q0 -5 -0.5 -8t-0.5 -5zM378 446l-56 -17l-28 -12l-64 -32l-54 -33l-61 -45q73 -26 122 -67l35 -32q64 -58 106 -123v361z" />
    <glyph glyph-name="u09B2" unicode="&#x9b2;" horiz-adv-x="601" 
d="M624 571h-110v-601l-42 38v328q0 15 -11 34q-7 19 -24 32l-9 6q-26 15 -50 15q-21 0 -40 -28l-8 -22l-1 -26l3 -23l-8 -3l-4 10l-5 9q-17 35 -35 50q-18 19 -67 31l-27 5q-39 0 -70.5 -24t-43.5 -68l-4 -27q0 -38 26 -64q25 -22 84 -32q-27 43 -27 60q0 21 18 38t39 17
q34 0 53 -40q5 -17 8 -28t4 -21l-2 -10q-9 -24 -31 -37t-51 -13q-23 0 -47 7.5t-37 14.5q-31 20 -56 57q-17 34 -17 77l3 39q4 27 15.5 49.5t28 38.5t35 24.5t37.5 8.5q40 0 76 -20l29 -24l36 -14q1 -1 5 6.5t14.5 18t24 19.5t22.5 11q30 0 48 -18l21 -29l11 -16l37 -48v192
h-471l-41 40h620z" />
    <glyph glyph-name="u09B6" unicode="&#x9b6;" horiz-adv-x="625" 
d="M646 571h-110v-601l-44 36l-1 376q0 26 -40 88q-41 63 -86 63q-29 0 -49.5 -16.5t-22.5 -48.5q15 -3 31 -19l18 -16q11 -9 19 -18t13 -18q9 -15 9 -30q0 -10 -0.5 -14.5t-0.5 -6.5l-8 -22q-2 -8 -4.5 -11.5t-7.5 -6.5q-26 -13 -45 -13q-37 0 -70 37l-23 35l-13 -32
q-12 -17 -31 -24l-32 -12l-19 -4l-13 2l-11 5l-17 15q-4 4 -8 11.5t-9 16.5l-4 28q0 16 6 26l16 22l24 26l31 25q9 8 33 12l-43 65l-21 12q-23 12 -39 12h-70l-39 40h98q36 -1 67 -21l26 -27l20 -28q10 -16 20 -58q32 72 56.5 92.5t69.5 37.5l13 3l12 2q20 -1 47 -20t68 -91
l20 -36l22 -47l-13 170v118v0l20 -25q5 -7 5 -16l2 -21l15 -21l34 -12h39z" />
    <glyph glyph-name="u09B7" unicode="&#x9b7;" horiz-adv-x="519" 
d="M440 571v-593l-6 6l-15 27l-19 35q-9 19 -24 37.5t-33.5 36t-41 32.5t-46.5 27q-15 9 -28.5 16t-26.5 11l-42 6l-26 1l-72 93l39 36l47 41l54 46l47 34l-39 19l-28 7l-23 2l-23 -1h-23q-18 0 -31 2t-23 7t-17.5 14.5t-14.5 26.5q-3 9 -6 11l-5 7.5t-6 7.5l-17 18l-25 27
h542l36 -40h-104zM401 571h-275l93 -65q20 -14 37 -31t33 -37l50 -46q34 -29 62 -33v212zM403 301l-53 55l-43 34l-12 12l-29 -19q-14 -10 -23.5 -18t-17.5 -18l-66 -69l59 -28l48 -34q14 -11 29.5 -24t31.5 -28t30.5 -31t43.5 -57z" />
    <glyph glyph-name="u09B8" unicode="&#x9b8;" horiz-adv-x="610" 
d="M498 571v-598l-38 44l1 258l-13 33l-27 41q-19 21 -44 21q-11 0 -20 -2t-17.5 -7.5t-16.5 -14.5t-17 -22l-84 -117q-22 -29 -30 -30l-23 -1h-15q-3 0 -6 0.5t-5 1.5l-20 8q-5 1 -12.5 7.5t-17.5 19.5l-30 45l-13 22l-7 15l19 18l13 -20l21 -32q6 -7 14 -10.5t18 -5.5
q20 0 38 19l27 35l55 73l-6 39q0 7 -1 14t-4 13q-6 16 -16.5 31t-25.5 29l-31 13q-19 6 -29 6.5t-15 0.5q-23 0 -36.5 1.5t-21.5 4t-13.5 6.5t-11.5 9l-20 28l-16 9l-36 35h617l40 -40h-124zM460 571h-298l56 -45q7 -6 14 -16t14 -26q6 -17 8.5 -30.5t2.5 -23.5l5 -43l33 28
q25 22 35 24l16 1q8 0 13.5 -0.5t9.5 -3t9 -6.5t12 -11l71 -82z" />
    <glyph glyph-name="u09B9" unicode="&#x9b9;" horiz-adv-x="504" 
d="M366 35l-32 19q-26 14 -52 27l-57 26q-23 8 -54 17.5t-65 16.5l-53 130l17 -10l49 -18q23 -7 47 -10.5t45 -3.5h28l22 4l19 5q20 4 32 13q18 7 32 15.5t23 16.5l23 19q24 24 24 53q0 14 -5 27.5t-16 30.5q-6 8 -17 16t-24.5 13.5t-27.5 8.5t-28 3q-20 0 -34 -8
q0 -34 -20 -60l-30 -28l-10 -8q-3 -3 -9 -6t-14.5 -5t-22.5 -2q-23 0 -38 11.5t-22 35.5l-1 14l3 17q3 12 21 33q18 24 60 40l46 16q17 10 2 30q-22 29 -53 37h-170l-41 40h526l40 -40h-285l14 -43q5 -15 19 -23l12 -4q3 0 15 -4t35 -11q42 -16 75 -63q17 -24 24.5 -45
t7.5 -45q0 -10 -0.5 -15t-1.5 -8q-10 -47 -43 -80q-34 -33 -127 -71l13 -23l62 -34l52 -36q38 -28 61 -54l80 -84l10 -37l1 -1l-48 45z" />
    <glyph glyph-name="u09BC" unicode="&#x9bc;" horiz-adv-x="1" 
d="M-214 -52q-17 -34 -51 -34q-26 0 -44 17q-17 16 -17 42q0 17 7.5 29.5t23.5 25.5q9 4 31 7q10 0 20.5 -4t19 -12t13.5 -18.5t5 -22.5q0 -8 -2 -15.5t-6 -14.5z" />
    <glyph glyph-name="u09BE" unicode="&#x9be;" horiz-adv-x="249" 
d="M270 571h-120v-613l-37 39v446q0 19 -2 27q-5 27 -17 43q-14 22 -42 40.5t-61 17.5l-41 40v0l41 2q26 -2 40.5 -9t22.5 -16q39 -25 61 -77l3 93l-5 71v26q0 17 3 2l-1 1l5 -28l5 -20l6 -15l15 -19l10 -11h73z" />
    <glyph glyph-name="u09BF" unicode="&#x9bf;" horiz-adv-x="228" 
d="M528 770q-15 14 -36 25.5t-48 19.5q-53 19 -81 22l-48 4q-31 0 -64 -7q-31 -4 -60 -24q-28 -18 -31 -24l-27 -32l-28 -43q-13 -24 -16 -40l27 -60h110l33 -40h-126v-607l-42 36l1 571h-93l-40 40h153l-69 73q-6 6 -6 21t4 25l8 20l32 50q13 18 20 26q10 9 31 21t51 26
t75 14q32 0 66 -7t75 -24l53 -22q13 -6 24.5 -12t21.5 -14q17 -10 38 -27t46 -41l20 -21l1 -6z" />
    <glyph glyph-name="u09C0" unicode="&#x9c0;" horiz-adv-x="243" 
d="M260 571h-139v-600l-38 38v562h-104l-32 40h147l-20 59q-3 9 -7.5 20.5t-11.5 23.5l-11 21q-4 15 -17 28q-29 42 -72 64q-17 7 -38.5 15t-52.5 18l-56 10l-61 5l-29 -2h-28q-18 0 -30.5 -2.5t-27.5 -9.5q-11 -3 -24 -11l-31 -18l-7 -8l-6 -16q0 -19 25 -28l36 -11l75 -4
q61 0 96 -9l52 -11q19 -6 36 -26l20 -30l4 -25l-1 -23l-2 -18h-30l1 2q8 11 13 29q0 35 -49 51l-65 5h-33q-27 0 -47 1t-34 5q-15 2 -32 10.5t-37 21.5q-17 10 -26.5 26t-9.5 35q0 31 16 44l34 31q33 18 122 30l21 2l15 1h18q13 0 22.5 -1.5t27.5 -6.5l83 -22q10 -3 20 -8
l25 -12l47 -37q35 -25 65 -81q10 -17 18 -35l17 -40l17 -63h97z" />
    <glyph glyph-name="u09C1" unicode="&#x9c1;" horiz-adv-x="1" 
d="M43 -242l-9 -7l-13 18l-35 39l-9 9l-10 9q-9 8 -20 16l-23 18l-29 23l-31 19l-44 -42q-15 -10 -30 -17t-31 -7q-18 0 -36 5t-32 12t-22 16t-10 16l-3 30q0 23 21 47l23 18q4 2 11.5 5t17.5 6l26 3q25 0 41 -8l39 -23q16 -6 22 12l1 16l-1 42l-1 14l12 -8q22 -30 22 -58
l1 -15l-1 -17q-1 -7 -0.5 -13.5t5.5 -11.5l29 -24l27 -26l35 -36l34 -45zM-204 -48q-15 4 -45 4q-26 0 -45 -12q-18 -15 -16 -41q5 -17 20 -22.5t40 -5.5q16 2 28.5 7t22.5 11q20 12 18 39z" />
    <glyph glyph-name="u09C2" unicode="&#x9c2;" horiz-adv-x="1" 
d="M-74 -172q-19 -12 -35.5 -18t-38.5 -11l-21 -5l-19 -1q-25 0 -44 8t-32 33q-8 12 -12 24.5t-4 25.5q0 15 3 21q0 8 8 24q4 8 8.5 14.5t11.5 12t18.5 10.5t29.5 10l20 4l14 2q11 0 38 -21l-5 51v5l1 -1l23 -24q7 -10 7 -36q0 -9 2 -8l-23 5l-26 1l-36 -4q-11 -2 -21 -6
t-19 -11q-11 -7 -18 -23l-6 -28q0 -19 17 -32q25 -15 51 -15q10 0 19.5 1.5t17.5 4.5q12 1 21 4l15 5q17 4 29 13l154 -131q3 -4 10 -26q5 -20 5 -16z" />
    <glyph glyph-name="u09C3" unicode="&#x9c3;" horiz-adv-x="1" 
d="M-172 -336l-10 10l-38 28l-54 36q-26 18 -53 33l-69 39l-51 29l166 120l15 41l34 -67l-141 -101q29 -15 47 -27t36 -28l52 -39l21 -14l17 -13q23 -16 25 -36z" />
    <glyph glyph-name="u09C7" unicode="&#x9c7;" horiz-adv-x="354" 
d="M305 542q-61 -26 -85 -45q-31 -23 -53 -54t-37 -71l-16 -72l-8 -58l-2 -45l3 -47q2 -11 5.5 -24.5t9 -27.5t13 -26.5t17.5 -22.5q19 -16 54 -40q12 -6 29 -6h20l9 17l-20 17q-6 5 -10 14t-7 21v15q4 28 31 42l27 8q8 0 15 -4l18 -7q5 -3 11 -8.5t11 -13t7.5 -16.5
t2.5 -19q0 -11 -2.5 -22t-9 -21.5t-18 -20t-28.5 -17.5q-22 -7 -39 -7q-23 0 -46 6t-39 20q-57 48 -86 131q-10 32 -15 63.5t-5 64.5v31l4 45q0 20 27 83q15 30 36.5 62.5t65.5 83.5h-197l-41 40h358l45 -46z" />
    <glyph glyph-name="u09C8" unicode="&#x9c8;" horiz-adv-x="347" 
d="M331 605q53 -31 37 -31l-54 -7l-39 -10q-41 -21 -71.5 -41.5t-51.5 -42.5q-19 -22 -36.5 -58.5t-31.5 -88.5q-3 -14 -6 -29.5t-5 -30.5l-3 -56q0 -71 20.5 -116t56.5 -66q32 -14 51 -19l29 6l-14 22l-8 12q-3 4 -5 10t-4 15l4 24q3 11 18 24l15 8l17 2l18 -1q8 0 14 -2
t10 -6l16 -13q10 -10 15.5 -22.5t5.5 -27.5q0 -27 -30 -57q-6 -6 -14 -11t-18 -9t-20 -5.5t-20 -1.5l-26 1l-27 9q-7 3 -16 8t-18 12q-59 50 -87 129q-20 65 -20 130l1 34l4 42q0 10 7.5 31t22.5 52q15 33 37 65t64 82h-169l-40 40h254q16 9 22 23q3 10 0 22t-10.5 22
t-19 18.5t-28.5 11.5l-58 6l-76 14l-55 25q-19 12 -36 39q-4 9 -6.5 18t-2.5 18q0 22 12 43l2 1l5 -5q-8 -5 -8 -28q0 -14 6 -27.5t23 -22.5l22 -9q22 -4 62 -4q46 0 75 -3q25 0 51.5 -10.5t47.5 -31.5q20 -16 29 -46l5 -22l2 -26v-26h47z" />
    <glyph glyph-name="u09CB" unicode="&#x9cb;" horiz-adv-x="1147" 
d="M305 542q-61 -26 -85 -45q-31 -23 -53 -54t-37 -71l-16 -72l-8 -58l-2 -45l3 -47q2 -11 5.5 -24.5t9 -27.5t13 -26.5t17.5 -22.5q19 -16 54 -40q12 -6 29 -6h20l9 17l-20 17q-6 5 -10 14t-7 21v15q4 28 31 42l27 8q8 0 15 -4l18 -7q5 -3 11 -8.5t11 -13t7.5 -16.5
t2.5 -19q0 -11 -2.5 -22t-9 -21.5t-18 -20t-28.5 -17.5q-22 -7 -39 -7q-23 0 -46 6t-39 20q-57 48 -86 131q-10 32 -15 63.5t-5 64.5v31l4 45q0 20 27 83q15 30 36.5 62.5t65.5 83.5h-197l-41 40h358l45 -46zM1208 571h-120v-613l-37 39v446q0 19 -2 27q-5 27 -17 43
q-14 22 -42 40.5t-61 17.5l-41 40v0l41 2q26 -2 40.5 -9t22.5 -16q39 -25 61 -77l3 93l-5 71v26q0 17 3 2l-1 1l5 -28l5 -20l6 -15l15 -19l10 -11h73z" />
    <glyph glyph-name="u09CC" unicode="&#x9cc;" horiz-adv-x="1147" 
d="M305 542q-61 -26 -85 -45q-31 -23 -53 -54t-37 -71l-16 -72l-8 -58l-2 -45l3 -47q2 -11 5.5 -24.5t9 -27.5t13 -26.5t17.5 -22.5q19 -16 54 -40q12 -6 29 -6h20l9 17l-20 17q-6 5 -10 14t-7 21v15q4 28 31 42l27 8q8 0 15 -4l18 -7q5 -3 11 -8.5t11 -13t7.5 -16.5
t2.5 -19q0 -11 -2.5 -22t-9 -21.5t-18 -20t-28.5 -17.5q-22 -7 -39 -7q-23 0 -46 6t-39 20q-57 48 -86 131q-10 32 -15 63.5t-5 64.5v31l4 45q0 20 27 83q15 30 36.5 62.5t65.5 83.5h-197l-41 40h358l45 -46zM1087 571v-613l-45 44v569h-103l-41 40h138q20 22 20 49
q0 20 -11 36q-5 9 -14.5 14.5t-25.5 7.5t-40 3t-60 1h-45h-18h-14l-45 1q-18 0 -29 5q-28 4 -49.5 14t-38.5 24q-40 34 -40 81q0 33 19 64l6 4l11 -9q-2 -2 -7 -13q-6 -6 -10 -29q0 -8 0.5 -13.5t1.5 -9.5l4 -13q5 -27 31 -35.5t67 -8.5h33l33 1h12l61 1l39 2h21l28 -3
l27 -6l28 -11q39 -15 56 -67l7 -41l-6 -49h82l41 -40h-124z" />
    <glyph glyph-name="u09CD" unicode="&#x9cd;" horiz-adv-x="1" 
d="M98 -204l-39 -4l-152 96l64 4z" />
    <glyph glyph-name="u09CE" unicode="&#x9ce;" horiz-adv-x="490" 
d="M435 -5l3 8q8 17 8 34q0 49 -63 92q-16 10 -43 23t-66 26t-66.5 25t-43.5 22q-48 27 -81 71l-19 30l-22 40q-6 16 -9 32.5t-3 33.5l1 27l7 30q5 18 12.5 33.5t18.5 28.5q17 20 57 46l11 6l25 10q15 4 24.5 4.5t13.5 0.5h31q8 0 14.5 -0.5t11.5 -2.5q18 0 36 -11
q19 -12 33.5 -28t25.5 -35q7 -14 10 -29t3 -30l-2 -29q-4 -35 -24.5 -55t-68.5 -20h-12l-16 2q-28 0 -51.5 15.5t-42.5 45.5q-3 5 -6 15t-7 24q-3 29 -16 47q-17 0 -40 -34q-4 -6 -6 -13t-6 -16l-2 -26q4 -39 29 -74t78 -62l75 -35l33 -14l29 -13q11 -5 25 -13.5t33 -22.5
q12 -8 22.5 -17t19.5 -18q8 -8 15 -20t15 -28l17 -52q8 -23 8 -50l-3 -32zM335 479q4 40 -21.5 61t-67.5 21h-20l-19 1q-12 0 -22.5 -0.5t-23.5 -6.5l-4 -33q0 -20 13 -43l20 -19l24 -20q7 -4 15 -6.5t21 -5.5q16 0 29.5 4.5t24.5 11t19 16t12 19.5z" />
    <glyph glyph-name="u09D7" unicode="&#x9d7;" horiz-adv-x="263" 
d="M149 571v-613l-45 44v569h-103l-41 40h138q20 22 20 49q0 20 -11 36q-5 9 -14.5 14.5t-25.5 7.5t-40 3t-60 1h-45h-18h-14l-45 1q-18 0 -29 5q-28 4 -49.5 14t-38.5 24q-40 34 -40 81q0 33 19 64l6 4l11 -9q-2 -2 -7 -13q-6 -6 -10 -29q0 -8 0.5 -13.5t1.5 -9.5l4 -13
q5 -27 31 -35.5t67 -8.5h33l33 1h12l61 1l39 2h21l28 -3l27 -6l28 -11q39 -15 56 -67l7 -41l-6 -49h82l41 -40h-124z" />
    <glyph glyph-name="u09DC" unicode="&#x9dc;" horiz-adv-x="629" 
d="M288 571v-169v-25l3 -34q5 -29 23 -32l18 4l13 7l46 35l31 28l25 31l18 24q8 10 7 10l8 -4q41 -38 66 -91l19 -54q7 -26 7 -54l-4 -49q-1 -10 -4.5 -22.5t-7.5 -25.5q-18 -55 -66 -94q-56 -42 -130 -42l-28 1q-11 0 -18.5 0.5t-13.5 1t-12 2.5l-15 5q-24 10 -52 31
q-42 34 -110 166l-20 43l-15 45q-10 33 -24 130l-8 71l14 -7q0 -42 18 -107l29 -80q4 -11 9 -23.5t12 -22.5l20 -32l44 -62q19 -21 44.5 -36t58.5 -25q27 -7 53 -7q27 0 52.5 7.5t48 19.5t41 28.5t28.5 35.5l17 32q8 19 8 39q0 45 -43 102q-8 -32 -49 -67l-52 -41
q-16 -11 -31.5 -16.5t-29.5 -5.5q-30 0 -49.5 20.5t-33.5 62.5l-3 12v41v193h-245l-40 40h636l41 -40h-354zM400 -140q-17 -34 -51 -34q-26 0 -44 17q-17 16 -17 42q0 17 7.5 29.5t23.5 25.5q9 4 30 7q11 0 21.5 -4t19 -12t13.5 -18.5t5 -22.5q0 -8 -2 -15.5t-6 -14.5z" />
    <glyph glyph-name="u09DD" unicode="&#x9dd;" horiz-adv-x="505" 
d="M144 571v-401q0 -16 9 -31q12 -15 30 -17q12 0 27.5 6.5t33 19.5t38.5 35t45 55l18 30l9 55l-32 -4q-21 0 -46 16q-18 14 -18 41l2 19q7 28 22 42q15 11 39 11l30 -3q14 -1 25.5 -13t24.5 -32q19 -33 19 -71q0 -17 -1 -30t-3 -23q-1 -12 -4 -23t-11 -29q-6 -19 -43 -59
q-43 -49 -81 -74q-9 -6 -23.5 -12.5t-33.5 -13.5l-29 -3q-12 0 -33 13q-3 2 -9.5 9t-13.5 18.5t-15 26.5t-15 31l-4 20l-1 27v36v328h-94l-40 40h514l40 -40h-376zM272 -110q-6 -22 -24 -33q-7 -5 -15.5 -8t-16.5 -3q-12 0 -23 4t-18.5 11.5t-12.5 18.5t-5 24q0 18 5 28
q5 11 11.5 19t12.5 13l16 9l18 3q12 0 22.5 -4t18.5 -11.5t12.5 -17.5t4.5 -24q0 -10 -1.5 -17t-4.5 -12z" />
    <glyph glyph-name="u09DF" unicode="&#x9df;" horiz-adv-x="528" 
d="M438 571v-603l-7 7q-8 19 -17.5 39t-21.5 37q-10 18 -26.5 38t-39.5 41q-25 23 -47.5 39t-46 25.5t-50 13t-54.5 3.5l-71 91l48 46l56 49l79 61q-19 9 -25 13t-14 12q-13 11 -34.5 18t-50 10.5t-49.5 11t-38 19.5q-4 2 -9 7.5t-12 14.5l-45 47h547l42 -40h-114zM250 17
q-15 -24 -40 -24q-11 0 -21 5t-18 13t-13 18t-5 21q0 13 5 22.5t12 15.5t16 9t17 3q11 0 21.5 -4t18.5 -11.5t12.5 -17t4.5 -20.5t-10 -30zM398 571h-263l58 -37q14 -10 30 -29l41 -42l36 -42l-13 -14l-43 -38l-34 -34l-57 -64l51 -19l23 -10q14 -6 30.5 -18t35.5 -28
l44 -44q5 -6 12 -14l11 -16q6 -8 11 -15l27 -45v509z" />
    <glyph glyph-name="u09E6" unicode="&#x9e6;" horiz-adv-x="601" 
d="M522 233q-10 -78 -82 -141q-74 -64 -158 -64q-103 0 -164 88q-50 79 -50 175l3 40q13 78 79 133q68 57 148 57q17 0 37 -3.5t41 -11.5q36 -14 64.5 -37.5t48.5 -60.5q18 -32 26.5 -66.5t8.5 -71.5v-18zM471 329q0 33 -8 57.5t-25 43.5q-24 27 -72 38l-25 3
q-27 0 -52.5 -9t-52.5 -26q-55 -34 -80 -83l-28 -62q-8 -24 -10.5 -42t-2.5 -30q0 -17 2.5 -31.5t9 -29t18 -28t29.5 -28.5q17 -10 33.5 -15t35.5 -5q72 0 142 61q36 32 57 68t26 79z" />
    <glyph glyph-name="u09E7" unicode="&#x9e7;" horiz-adv-x="525" 
d="M275 -24l-28 -13q-12 -2 -24 -3.5t-23 -1.5q-21 0 -38 6l-19 11q-11 5 -19 11.5t-15 14.5q-3 7 -6 16.5t-4 18.5q0 12 5.5 26t17 27.5t27 25t34.5 19.5l18 3l17 1q15 0 31.5 -3t32.5 -8t29 -12.5t27 -25.5l36 37q9 18 9 40q0 51 -15 80l-23 30l-38 43l-62 65l-86 82
l-31 32q-11 12 -16.5 21.5t-6.5 15.5l-4 23l2 17l7 19q6 12 28 24q4 3 11.5 4.5l17.5 3.5q14 0 27.5 -11t22.5 -35l1 -12q0 -10 -0.5 -16.5t-1.5 -9.5l-3 -23l35 -35l43 -45l74 -89q40 -53 56 -106l8 -33l2 -34q0 -61 -36 -110q-31 -41 -92 -77z" />
    <glyph glyph-name="u09E8" unicode="&#x9e8;" horiz-adv-x="575" 
d="M537 -92l-10 10q-5 6 -12 11q-2 2 -7 6l-16 12q-20 16 -46.5 33.5t-58.5 37.5q-39 25 -72 43.5t-70 35.5q-58 27 -137 44l-77 266q0 -83 11 -94l20 -19q20 -15 48 -29t65 -28l60 -20q9 -1 14 -2.5t9 -2t9 -1t12 -0.5q28 0 47 4l39 15q59 28 59 72q0 6 -2 12.5t-5 13.5
q-28 65 -109 109l-114 50q-50 27 -50 69q0 15 6 39l13 9q9 5 17 8t14 3q7 0 11 -3l19 -2q21 -7 26 -57l19 -5q5 -2 11 -5q11 -4 22.5 -10.5t24.5 -15t29 -22.5l38 -31q64 -55 64 -137l-2 -26q-4 -28 -9.5 -45t-15.5 -31q-6 -7 -20.5 -19.5t-37.5 -30.5l-30 -15l-67 -22
q40 -21 62.5 -36.5t50.5 -37.5l56 -43l34 -26l20 -19l53 -49l8 -42z" />
    <glyph glyph-name="u09E9" unicode="&#x9e9;" horiz-adv-x="609" 
d="M567 275q0 -29 -2.5 -54.5t-8.5 -46.5l-16 -53q-11 -29 -31 -53.5t-45.5 -42.5t-56 -28t-61.5 -10q-101 0 -202 148q-34 52 -58 102t-38 100l-19 81l-10 67l29 -14q1 -15 5 -36.5t11 -40.5q7 -30 21.5 -65t35.5 -75q12 -23 27 -45t36 -42q56 -65 113 -74l37 -4
q81 0 144 66q25 30 38.5 62.5t13.5 68.5q0 54 -10 92.5t-30 63.5q-24 31 -133 68q23 -30 25.5 -37t5.5 -18l6 -36q0 -21 -10.5 -44.5t-36.5 -41.5l-22 -11l-26 -4q-36 0 -69 39q-6 6 -10.5 15.5t-9.5 23.5q-4 14 -6.5 26t-2.5 19q0 26 9 49l9 23q14 20 25.5 33.5t24 20.5
t29 10.5t40.5 3.5q36 4 72 -14t75 -60q31 -32 50 -78t29 -106z" />
    <glyph glyph-name="u09EA" unicode="&#x9ea;" horiz-adv-x="597" 
d="M476 152q0 -70 -65 -117q-29 -20 -64.5 -32.5t-79.5 -17.5l-22 -1q-79 0 -139 55q-50 48 -50 103q0 7 0.5 13t3.5 10q21 63 78 95q8 4 21 8.5t68 19.5q-51 12 -62 16.5t-20 10.5q-70 40 -70 119q0 66 57 123q28 28 64.5 42t82.5 14l14 1q69 0 117 -46q43 -43 43 -96
l-1 -17q-7 -39 -37 -74q-15 -18 -30.5 -29t-58.5 -27q54 -15 73.5 -28t36.5 -30q40 -44 40 -115zM161 536q-22 -22 -22 -54q0 -45 41 -86q20 -18 45 -31t58 -20l47 25l23 15q50 39 50 83q0 24 -11.5 45t-30.5 36t-43 24t-51 9h-18t-13 -1.5t-13 -4.5l-18 -6q-23 -9 -44 -34z
M411 127q0 57 -73 110q-57 37 -83 37q-13 0 -17 -5q-64 -43 -89 -78q-16 -26 -16 -59q0 -25 13.5 -47.5t48.5 -43.5q16 -7 33.5 -10.5t37.5 -3.5q48 0 91 23q12 6 22 18t19 28z" />
    <glyph glyph-name="u09EB" unicode="&#x9eb;" horiz-adv-x="601" 
d="M545 387q-9 -3 -19 -7l-22 -11q-43 -20 -79 -50q-45 -37 -68 -69q-14 -22 -22 -45.5t-8 -49.5v-15l3 -17q12 -74 84 -120l27 -12l17 -7q-6 -2 -29 -7l-62 -5q-23 0 -49.5 3.5t-53 10t-50.5 16.5t-41 22q-66 36 -97 96q-27 50 -27 115l3 59q2 13 8 29.5t16 37.5
q45 96 137 171q74 55 127 65l57 -13q3 -11 -6 -23t-14 -26.5t-5 -29.5q0 -25 16 -44q3 -8 30 -15l39 -4l47 -29q21 -13 33.5 -18.5t14.5 -5t-7 -2.5zM457 396q-66 9 -75 16l-38 32q-8 9 -15 31l-11 47q-34 -16 -58.5 -33.5t-48 -41.5t-44 -53.5t-34.5 -62.5
q-14 -34 -21 -63.5t-7 -57.5q1 -15 1 -28t4.5 -28t17 -33t38.5 -42q67 -60 130 -76l66 -8q-51 48 -71 90q-9 21 -13 40.5t-4 35.5q0 85 51 151q37 47 132 84z" />
    <glyph glyph-name="u09EC" unicode="&#x9ec;" horiz-adv-x="597" 
d="M562 189q-10 -76 -46 -130q-21 -28 -48 -47.5t-61 -29.5l-27 -4l-21 -1q-27 2 -51 8t-48.5 21t-52.5 43t-61 74q-23 34 -50 95q-24 58 -38 97t-20 60q-4 21 -6.5 46t-2.5 39l14 -7q9 -45 20 -84t24 -68q13 -27 35.5 -64.5t56.5 -85.5q11 -17 27 -30.5t37 -25.5
q18 -10 39.5 -17t48.5 -12l25 -1q62 0 108 30t65 95l5 26l1 23q0 48 -40 108q-11 -30 -21.5 -43t-25.5 -25t-32.5 -22t-35.5 -15l-39 -3q-32 0 -55.5 14.5t-40.5 37.5q-6 9 -10.5 21t-7.5 27l-24 170q-23 0 -31 5l-16 17l-3 9t-4 16q0 8 4 16.5t11 15.5t18 11t25 4
q16 0 27.5 -6t19 -16.5t12 -26t4.5 -34.5v-190q0 -18 15 -33q11 -7 33 -11q33 0 68 35l34 40q17 19 29.5 41t16.5 34q15 -11 35 -35t34.5 -52.5t22 -59t7.5 -62.5v-14z" />
    <glyph glyph-name="u09ED" unicode="&#x9ed;" horiz-adv-x="522" 
d="M478 -5q-3 -14 -17 -27l-17 -6l-28 -1q-10 3 -20 10t-17 17q-12 26 -12 57v224l-187 -2q-24 0 -68 33q-50 37 -61 85l-3 24q0 65 58.5 125.5t119.5 60.5q67 0 130 -67q65 -67 65 -129l-2 -13v-330q35 0 47.5 -9t12.5 -36zM369 361q0 38 -28 103q-29 67 -69 87
q-38 9 -96 -38q-57 -45 -65 -80l-5 -45q0 -39 35 -48l31 -4l196 1z" />
    <glyph glyph-name="u09EE" unicode="&#x9ee;" horiz-adv-x="621" 
d="M567 373q-11 -33 -60 -50l-62 -3q-58 0 -61 -28l4 -14q18 -37 18 -69q0 -68 -59 -128q-29 -31 -68.5 -54t-89.5 -37q-17 -3 -53 30q-37 34 -52 74v405q-34 0 -53 12q-15 13 -15 39q0 25 11.5 38.5t31.5 13.5q11 0 21.5 -4t20 -11.5t16 -17.5t8.5 -22l7 -61v-181
q23 38 31 46t22 18q14 11 26 16.5t20 7.5l28 3q23 0 42 -13q10 -5 22.5 -18t30.5 -36l23 -16l11 27q1 6 12 18q19 33 77 33q53 0 76 15l18 31l-3 1l2 -10l1 -21l-1 -13zM335 265q0 30 -37 55q-13 7 -27 10t-27 3q-12 0 -21 -0.5t-11 -1.5q-3 0 -11.5 -2.5t-18.5 -7.5
q-10 -3 -21.5 -9t-29.5 -19l1 -211l8 -25l10 -16q70 0 150 109q7 10 13.5 23t10.5 27q5 16 7 28.5t2 20.5z" />
    <glyph glyph-name="u09EF" unicode="&#x9ef;" horiz-adv-x="578" 
d="M528 192q0 -73 -93 -139q-83 -59 -132 -59l18 105l1 21v16q0 8 -1 14t-3 11.5t-5 11.5q-5 12 -14.5 26.5t-19.5 26.5l-29 28q-6 5 -50 13q-26 5 -58 -39q-27 -40 -27 -81q0 -35 26 -54l19 1q23 0 32 -11.5t9 -32.5q0 -19 -6 -36q-9 -21 -37 -21q-14 0 -27.5 6.5
t-27.5 18.5q-30 29 -37 71l-1 26q0 29 7.5 56t21.5 50t33.5 41t42.5 29q29 12 53 12q60 0 104 -51q47 -53 47 -115q0 -26 -20 -75l85 59q38 30 38 79q0 78 -83 124l-170 68q-112 44 -160 108q-24 34 -24 61l1 16q3 11 8 20.5t11 17.5q15 18 33 18q3 0 8 -1.5t11 -4t11 -6.5
t9 -10q2 -4 3.5 -11.5t4.5 -17.5q0 -19 -23 -36l51 -47l177 -58q80 -35 128 -101q20 -28 33.5 -61.5t19.5 -71.5z" />
    <glyph glyph-name="u09F0" unicode="&#x9f0;" horiz-adv-x="516" 
d="M432 -26l-13 17l-12 29l-15 29l-14 25l-27 36q-10 15 -22 26t-28 23l-42 26l-78 39q-20 8 -39 10.5t-34 2.5l-68 96l64 44l74 44l103 50l48 21l64 21v58h-389l-39 40h544l39 -40h-116v-597zM393 235v203q-46 -16 -72.5 -28.5t-60.5 -31.5l-16 -12zM393 195l-182 158
l-20 -12l-61 -39q37 -15 54.5 -24.5t36.5 -21.5q18 -11 32.5 -22t32.5 -26l38 -38q13 -13 25.5 -29.5t44.5 -54.5z" />
    <glyph glyph-name="u09F1" unicode="&#x9f1;" horiz-adv-x="486" 
d="M517 571h-99v-595l-5 4l-53 98q-12 26 -50 64q-14 13 -30 26t-32 23l-56 29q-49 23 -97 23l-69 95l62 41q37 24 75 43l102 49l113 44v56h-373l-39 40h510zM279 3l-7 9q-4 7 -13 18t-21 21l-21 20l-17 16q-19 15 -43.5 23t-44.5 27q1 -1 8 8.5t11 12.5q-2 -1 8.5 -5.5
t26.5 -12.5t29.5 -16.5t17.5 -12.5q18 -16 27 -21.5t23 -19.5q1 -2 8 -11l14 -22l13 -21l1 -1zM378 65v381l-56 -17l-28 -12l-64 -32l-54 -33l-61 -45l49 -20q16 -8 21.5 -11t19.5 -13l32 -23l35 -32l50 -53q9 -11 16 -23.5t40 -66.5z" />
    <glyph glyph-name="u09F3" unicode="&#x9f3;" horiz-adv-x="460" 
d="M444 264q0 -69 -14 -101l-30 -54q-16 -38 -69 -78q-20 -14 -36.5 -24.5t-31.5 -14.5l-44 -5q-18 0 -28 5q-13 6 -26 16t-29 24q-26 30 -29 51l-4 96v95v20v20h-58l-39 46h102v144q0 26 -12.5 39.5t-38.5 18.5q-12 0 -21 -2.5t-4 2.5l-5 11q-5 13 -6.5 22t-1.5 10
q3 4 8.5 9.5t13.5 10.5t17 8t19 3l14 -2q24 -11 42 -39.5t18 -75.5v-43l2 -50v-24q0 -11 -1 -17t-6 -21h42l40 -50h-75l-2 -201q0 -28 19 -51q20 -18 50 -18q16 0 31.5 5t33.5 18t32 32t27 42l23 44l5 49l-26 -1q-69 0 -69 70l2 13q1 21 7.5 35.5t15 22.5t20.5 12t26 4
q8 0 14.5 -0.5t11.5 -3.5q32 -15 55 -55l13 -32q2 -7 2 -35z" />
    <glyph glyph-name="u200C" unicode="&#x200c;" horiz-adv-x="0" 
 />
    <glyph glyph-name="u200D" unicode="&#x200d;" horiz-adv-x="0" 
 />
    <glyph glyph-name="endash" unicode="&#x2013;" horiz-adv-x="536" 
d="M479 302v-52h-423v52h423z" />
    <glyph glyph-name="emdash" unicode="&#x2014;" horiz-adv-x="656" 
d="M596 302v-52h-540v52h540z" />
    <glyph glyph-name="quoteleft" unicode="&#x2018;" horiz-adv-x="246" 
d="M167 692v-84h-60v-28q0 -42 7 -62q13 -37 53 -38v-19q-85 0 -85 121v110h85z" />
    <glyph glyph-name="quoteright" unicode="&#x2019;" horiz-adv-x="246" 
d="M82 692h85v-110q0 -121 -85 -121v19q40 1 53 38q7 20 7 62v28h-60v84z" />
    <glyph glyph-name="quotedblleft" unicode="&#x201c;" horiz-adv-x="412" 
d="M333 692v-84h-60v-28q0 -42 7 -62q13 -37 53 -38v-19q-85 0 -85 121v110h85zM156 692v-84h-60v-28q0 -42 7 -62q13 -37 53 -38v-19q-85 0 -85 121v110h85z" />
    <glyph glyph-name="quotedblright" unicode="&#x201d;" horiz-adv-x="412" 
d="M71 692h85v-110q0 -121 -85 -121v19q40 1 53 38q7 20 7 62v28h-60v84zM248 692h85v-110q0 -121 -85 -121v19q40 1 53 38q7 20 7 62v28h-60v84z" />
    <glyph glyph-name="u20B9" unicode="&#x20b9;" horiz-adv-x="479" 
d="M412 570h-138q52 -47 62 -85h97l-22 -36h-71q-24 -129 -217 -157l226 -281h-72l-223 278v28q10 -2 33 -2q72 0 125.5 36.5t59.5 97.5h-228l22 36h199q-50 71 -127 85h-93l22 36h367z" />
    <glyph glyph-name="trademark" unicode="&#x2122;" horiz-adv-x="608" 
d="M434 421h-25l-101 321v-321h-16v298h35l95 -300l94 300h35v-298h-16v322zM160 703v-282h-17v282h-98v16h213v-16h-98z" />
    <glyph glyph-name="u25CC" unicode="&#x25cc;" horiz-adv-x="0" 
 />
    <glyph glyph-name="vowelsignebng.init" horiz-adv-x="324" 
d="M283 539q-33 -14 -56.5 -27.5t-41 -27.5t-30.5 -29.5t-23 -34.5t-20 -41l-21 -52l-12 -57l-4 -48v-21l5 -28q19 -67 32 -88q11 -22 23.5 -36.5t27.5 -26.5l49 -13l44 -3l-25 25q-20 15 -25 40q0 18 4 29.5t16 20.5l17 7l18 3h14h11q2 0 5 -1.5t7.5 -5.5l13.5 -12
q20 -25 20 -46q0 -10 -4 -21t-11.5 -22t-19.5 -21t-26 -18q-18 -6 -41 -6q-24 0 -44.5 6.5t-36.5 20.5q-60 50 -89 133q-10 32 -14.5 64t-4.5 66l3 64q2 17 9 40t20 49t31.5 54.5t41.5 56.5l36 28l22 13q69 39 99 38l46 -47z" />
    <glyph glyph-name="vowelsignaibng.init" horiz-adv-x="316" 
d="M284 561q-99 -41 -138 -83q-49 -50 -73 -154l-9 -56l-2 -47q0 -19 1 -33.5t4 -24.5l12 -35l12 -31l11 -22l14 -21q17 -17 77 -46l56 -7l-43 36q-15 15 -18 35l3 27q3 11 19 24l13 7l17 2l19 -1q7 0 17 -5.5t18.5 -15t14.5 -23t6 -27.5q0 -10 -9 -29q-21 -21 -49 -28
q-13 -3 -43 -3l-18 -2q-24 0 -46 11t-41 27t-32 35t-20 35l-20 54q-6 25 -9 51.5t-3 51.5l1 34l2 24q2 18 3.5 30t4.5 20q2 10 5.5 20t9.5 22q12 28 28 54t37 51l68 72l18 18l16 19q14 21 10 32q3 16 -27 45l-31 10l-38 2l-3 -3l-19 -1h-24l-44 2q-10 0 -19 1t-18 4
q-7 1 -17.5 8t-23.5 20q-17 16 -23.5 33t-9.5 39q0 18 6 33l13 16l3 -2q-13 -7 -13 -39q0 -25 10 -34q2 -5 8 -8.5t14 -7.5l24 -4l18 -2l13 2l32 2l18 1l26 3q7 0 18 -2t27 -5l23 -6l19 -7q29 -14 41 -25q10 -8 18 -20t14 -29l2 -26l1 -20v-22l49 -50z" />
    <glyph glyph-name="uni099509CD0995.akhn" horiz-adv-x="683" 
d="M572 186.5q12 -29.5 12 -43.5l-2 -16q0 -16 -5 -28t-13 -20.5t-18 -12.5t-21 -4q-6 0 -10 0.5t-9 3.5q-15 3 -24.5 13.5t-12.5 31.5q0 10 6.5 16.5t19.5 12.5l22 4q10 0 17 -7l25 -16q8 61 -50 108l-37 15l-39 7l-27 -3v-348l-24 17l-1 11l-4 20q-5 10 -9 17.5t-9 12.5
l-14 17l-24 26l-24 20q-14 12 -26 19l-44 23l-42 15l-33 3l-61 78l89 55q-9 20 -43 28l-38 6l-68 81q25 18 59 38.5t67 38.5l92 41l117 50v54h-363l-39 40h690l39 -40h-287v-57l33 -5q6 -2 11.5 -3.5t10.5 -3t11.5 -4.5t14.5 -7l15 -9l12 -6l10 -6l15 -11q33 -23 59 -68
q13 -21 19 -37.5t6 -27.5q0 -12 -2 -21.5t-7 -18.5q-6 -16 -16.5 -24.5t-47.5 -8.5l-15 1q-35 27 -21 62l2 8q1 6 9 9l15 6q8 0 16 -4.5t18 -21.5q26 12 12 35t-43 47l-61 30l-28 10l-24 4q-11 0 -24 -7v-118l81 -41q24 -11 36.5 -20t24.5 -23t24 -43.5zM366 437
q-35 -10 -54 -16.5t-35 -13.5l-73 -37l-30 -15l-60 -40q34 -16 47.5 -23t21.5 -14l29 -22l154 61v120zM366 250l-45 -14l-16 -7l-65 -34l-29 -18l-50 -31l46 -17q7 -2 14.5 -6t16.5 -10q17 -10 47 -36l81 -75v248z" />
    <glyph glyph-name="uni099509CD099F.akhn" horiz-adv-x="529" 
d="M309 571v-47l32 -2q5 -1 9.5 -3t8.5 -4l24 -11q17 -8 31 -21.5t24 -30t15.5 -35t5.5 -36.5v-20q0 -9 -0.5 -16t-2.5 -12q-13 -36 -45 -44l-14 -2q-12 0 -20.5 2.5t-14.5 5.5q-20 13 -20 34q0 15 3.5 24.5t8.5 16t12 10t14 4.5q20 0 30 -10q1 -4 16 -26l9 21l1 17
q0 10 -2 17.5t-5 13.5q-5 12 -11 20t-13 13l-17 13l-32 14l-49 14v-41l-10 -44l-7 -27l-8 -25l-8 -26l-16 -39l-9 -22l-14 -24l-20 -35l-48 -75l-3 -16l-4 -33q0 -32 11.5 -52t43.5 -20q20 0 50 12.5t66 38.5l25 19q6 6 10 13t16 30q-31 0 -44 3.5t-22.5 10.5t-15 16
t-5.5 21q-1 9 4 22t14.5 24.5t21 18.5t23.5 5l24 -3l33 -8q17 -2 28 -28q4 -10 6.5 -21t2.5 -24v-8l-2 -5q0 -17 -17 -51l-19 -31q-6 -10 -17 -20q-39 -32 -84 -53q-25 -10 -65 -17q-66 0 -101 32q-35 34 -35 94l8 29q6 14 14.5 28.5t17.5 27.5l40 51l8 12q-2 14 -4 20.5
t-4 9.5q-16 25 -57 31h-40l-56 98l9 7l94 64l46 21q27 12 44.5 17.5t35.5 5.5v46h-266l-40 40h433l10 32l-3 15l-1 5q-11 18 -26 22.5t-40 7.5l-31 -1q-9 0 -17 -0.5t-11 -1.5l-41 -2h-74l-19 3q-47 0 -81 23q-21 15 -24 37q-6 5 -6 22q0 10 1.5 22t4.5 23.5t6.5 20.5t2.5 7
l13 -7q8 3 -4 -13l-6 -27v-15l5 -12l16 -16l36 -12q28 -4 90 -4h89l44 -3q11 -2 19.5 -5t18.5 -8q29 -11 44 -42q6 -13 6 -31q0 -7 -0.5 -11t-1.5 -7l-6 -22h88l41 -40h-229zM230 470q-32 -9 -46 -22l-50 -35l-36 -28l39 -17q11 -6 20.5 -12t15.5 -12q16 -14 26.5 -32
t12.5 -38q25 33 41 93l10 48l4 39l-3 27z" />
    <glyph glyph-name="uni099509CD099F09CD09F0.akhn" horiz-adv-x="529" 
d="M309 571v-47l32 -2q5 -1 9.5 -3t8.5 -4l24 -11q17 -8 31 -21.5t24 -30t15.5 -35t5.5 -36.5v-20q0 -9 -0.5 -16t-2.5 -12q-13 -36 -45 -44l-14 -2q-12 0 -20.5 2.5t-14.5 5.5q-20 13 -20 34q0 15 3.5 24.5t8.5 16t12 10t14 4.5q20 0 30 -10q1 -4 15 -28l10 23l1 17
q0 10 -2 17.5t-5 13.5q-5 12 -11 20t-13 13l-17 13l-32 14l-49 14v-41l-10 -44l-7 -27l-8 -25l-8 -26l-16 -39l-9 -22l-14 -24l-20 -35l-48 -75l-3 -16l-4 -33q0 -32 11.5 -52t43.5 -20q20 0 50 12.5t66 38.5l25 19q6 6 10 13t16 30q-31 0 -44 3.5t-22.5 10.5t-15 16
t-5.5 21q-1 9 4 22t14.5 24.5t21 18.5t23.5 5l24 -3l33 -8q17 -2 28 -28q4 -10 6.5 -21t2.5 -24v-8l-2 -5q0 -17 -17 -51l-19 -31q-6 -10 -17 -20l-16 -13q-8 -5 -20 -14v-183h-3l-2 4l-16 20l-14 16l-19 10l-19 9l-36 6l-32 -1l-37 -4l-43 -3l-29 1l-29 6q-8 3 -16.5 7.5
t-15.5 12.5l-13 17q-5 4 -10 16q-12 17 -10 47l1 13l1 33v0l17 -12l-3 -4l-5 -22l-2 -17q0 -19 16 -33q6 -4 13.5 -8t18.5 -8l22 -5l22 -5l39 -2h49l20 -1l20 -2q48 -6 63.5 -13.5t34.5 -21.5v116q-19 -10 -23 -11l-8 -4q-25 -10 -65 -17q-66 0 -101 32q-35 34 -35 94l8 29
q6 14 14.5 28.5t17.5 27.5l40 51l8 12q-2 14 -4 20.5t-4 9.5q-16 25 -57 31h-40q-3 9 -41 73l-15 25l9 7l94 64l46 21q27 12 44.5 17.5t35.5 5.5v46h-266l-40 40h433l10 32l-3 15l-1 5q-11 18 -26 22.5t-40 7.5l-31 -1q-9 0 -17 -0.5t-11 -1.5l-41 -2h-74l-19 3
q-47 0 -81 23q-21 15 -24 37q-6 5 -6 22q0 10 1.5 22t4.5 23.5t6.5 20.5t2.5 7l13 -7q8 3 -4 -13l-6 -27v-15l5 -12l16 -16l36 -12q28 -4 90 -4h89l44 -3q11 -2 19.5 -5t18.5 -8q29 -11 44 -42q6 -13 6 -31q0 -7 -0.5 -11t-1.5 -7l-6 -22h93l41 -40h-234zM230 470
q-32 -9 -46 -22l-50 -35l-36 -28l39 -17q11 -6 20.5 -12t15.5 -12l15 -24q4 -7 7 -15.5t11 -34.5q31 37 47 97l10 48l4 39l-3 27z" />
    <glyph glyph-name="uni099509CD09A4.akhn" horiz-adv-x="840" 
d="M795 293q0 -11 -1 -18t-4 -14t-8 -15.5t-14 -22.5q-2 -6 -10 -11l-13 -12l-23 -13l-18 -7l-16 -3h-19l-16 4q-3 0 -8 3t-12 8l-17 17q-3 3 -5 9t-4 15q0 18 2.5 27.5t8.5 17.5l15 14q2 2 23 6q26 0 34 -9l10 -11q5 -7 5 -19q0 -15 -13 -33q27 -10 41 1l18 18q5 12 8 32
v19l-9 27l-6 10l-13 15l-20 13l-20 8l-20 2l-21 1q-9 0 -17.5 -0.5t-14.5 -4.5q-9 -2 -28 -11l-32 -19l-4 -3q-4 -5 -4 -8t-1 -4q-5 -19 -12 -34t-21 -34q16 -16 24 -26.5t13 -19.5l9 -33l4 -36q0 -42 -11 -71.5t-39 -45.5l-65 -28q-17 -4 -31.5 -6.5t-26.5 -2.5
q-37 0 -79 17q-11 7 -22.5 13.5t-21.5 13.5l-61 63l-48 64l-39 78l-27 62l-22 59l-33 105l15 -8l28 -77q18 -50 55 -111l28 -45q9 -16 20.5 -30.5t25.5 -28.5l40 -40q18 -15 39 -28t47 -25q28 -12 60 -12q50 0 88 24.5t50 71.5l3 23q0 30 -23 50l-22 18q-17 -16 -29 -22
l-24 -4q-12 0 -20 1.5t-14 5.5t-11.5 9.5t-10.5 13.5q-6 11 -6 30q0 10 1.5 17.5t5 14t10 13.5t16.5 15q3 1 9.5 2.5t14.5 3.5l24 -3l24 -11q15 6 23.5 14t16.5 20l8 22t4 24q0 15 -5 29t-15.5 24.5t-26 17.5t-35.5 7q-30 0 -64 -12q-16 -6 -26.5 -10t-13.5 -8l-45 -30
q-15 -12 -32 -39q14 -10 18.5 -14.5t7.5 -10t5 -13.5l6 -21q3 -25 -9 -38l-16 -8q-2 -1 -8 -2.5t-17 -2.5q-23 0 -46 16q-25 19 -25 62q0 12 3 23t9 22q34 57 95 92q16 8 31.5 14t30.5 10q16 3 31.5 5.5t33.5 2.5q91 0 135 -100q3 -9 3 -25v-33q22 19 28 22l11 6
q14 5 25.5 9t19.5 5l29 4l24 -4q16 -1 31 -10l15 -7l15 -14q7 -7 12 -15l10 -14l11 -33zM4 571l-40 40h860l33 -40h-853z" />
    <glyph glyph-name="uni099509CD09A409CD09F1.akhn" horiz-adv-x="827" 
d="M404 -18q-42 -24 -61 -38l-32 -24l-52 -50q59 -10 89 -30q11 -8 20 -16.5t35 -43.5zM4 571l-40 40h860l33 -40h-853zM437 -9v-288l-22 8q-19 39 -39 61q-57 65 -131 65l-36 62l103 77q13 10 24 18q-11 3 -22 8q-11 7 -22.5 13.5t-21.5 13.5l-61 63l-48 64l-39 78l-27 62
l-22 59l-33 105l15 -8l28 -77q18 -50 55 -111l28 -45q9 -16 20.5 -30.5t25.5 -28.5l40 -40q18 -15 39 -28t47 -25q28 -12 60 -12q50 0 88 24.5t50 71.5l3 23q0 30 -23 50l-22 18q-17 -16 -29 -22l-24 -4q-12 0 -20 1.5t-14 5.5t-11.5 9.5t-10.5 13.5q-6 11 -6 30
q0 10 1.5 17.5t5 14t10 13.5t16.5 15q3 1 9.5 2.5t14.5 3.5l24 -3l24 -11q15 6 23.5 14t16.5 20l8 22t4 24q0 15 -5 29t-15.5 24.5t-26 17.5t-35.5 7q-30 0 -64 -12q-16 -6 -26.5 -10t-13.5 -8l-45 -30q-15 -12 -32 -39q14 -10 18.5 -14.5t7.5 -10t5 -13.5l6 -21
q3 -25 -9 -38l-16 -8q-2 -1 -8 -2.5t-17 -2.5q-23 0 -46 16q-25 19 -25 62q0 12 3 23t9 22q34 57 95 92q16 8 31.5 14t30.5 10q16 3 31.5 5.5t33.5 2.5q91 0 135 -100q3 -9 3 -25v-33q22 19 28 22l11 6q14 5 25.5 9t19.5 5l29 4l24 -4q16 -1 31 -10l15 -7l15 -14
q7 -7 12 -15l10 -14l11 -33l3 -22q0 -11 -1 -18t-4 -14t-8 -15.5t-14 -22.5q-2 -6 -10 -11l-13 -12l-23 -13l-18 -7l-16 -3h-19l-16 4q-3 0 -8 3t-12 8l-17 17q-3 3 -5 9t-4 15q0 18 2.5 27.5t8.5 17.5l15 14q2 2 23 6q26 0 34 -9l10 -11q5 -7 5 -19q0 -15 -13 -33
q27 -10 41 1l18 18q5 12 8 32v19l-9 27l-6 10l-13 15l-20 13l-20 8l-20 2l-21 1q-9 0 -17.5 -0.5t-14.5 -4.5q-9 -2 -28 -11l-32 -19l-4 -3q-4 -5 -4 -8t-1 -4q-5 -19 -12 -34t-21 -34q16 -16 24 -26.5t13 -19.5l9 -33l4 -36q0 -42 -11 -71.5t-39 -45.5l-65 -28
q-7 -2 -14 -3z" />
    <glyph glyph-name="uni099509CD09A409CD09F0.akhn" horiz-adv-x="834" 
d="M4 571l-40 40h860l33 -40h-853zM519 24l6 -5v-221l-13 10l-24 31l-20 20l-25 15l-28 14l-50 6l-44 -1l-53 -5l-61 -4l-43 1l-41 9q-12 4 -24 11t-23 19l-19 22q-4 5 -7 10l-8 17q-8 20 -11.5 37t-3.5 31l1 18l2 47l2 7l34 -24l-7 -8l-6 -29l-3 -25q0 -26 20 -43
q8 -6 18 -11t27 -11l28 -8l33 -6l54 -2h70l29 -2l29 -5l27 -4q9 0 28 -8.5t39 -23.5l12 -12l28 -38v159l-41 -18q-17 -4 -31.5 -6.5t-26.5 -2.5q-37 0 -79 17q-11 7 -22.5 13.5t-21.5 13.5l-61 63l-48 64l-39 78l-27 62l-22 59l-33 105l15 -8l28 -77q18 -50 55 -111l28 -45
q9 -16 20.5 -30.5t25.5 -28.5l40 -40q18 -15 39 -28t47 -25q28 -12 60 -12q50 0 88 24.5t50 71.5l3 23q0 30 -23 50l-22 18q-17 -16 -29 -22l-24 -4q-12 0 -20 1.5t-14 5.5t-11.5 9.5t-10.5 13.5q-6 11 -6 30q0 10 1.5 17.5t5 14t10 13.5t16.5 15q3 1 9.5 2.5t14.5 3.5
l24 -3l24 -11q15 6 23.5 14t16.5 20l8 22t4 24q0 15 -5 29t-15.5 24.5t-26 17.5t-35.5 7q-30 0 -64 -12q-16 -6 -26.5 -10t-13.5 -8l-45 -30q-15 -12 -32 -39q14 -10 18.5 -14.5t7.5 -10t5 -13.5l6 -21q3 -25 -9 -38l-16 -8q-2 -1 -8 -2.5t-17 -2.5q-23 0 -46 16
q-25 19 -25 62q0 12 3 23t9 22q34 57 95 92q16 8 31.5 14t30.5 10q16 3 31.5 5.5t33.5 2.5q91 0 135 -100q3 -9 3 -25v-33q22 19 28 22l11 6q14 5 25.5 9t19.5 5l29 4l24 -4q16 -1 31 -10l15 -7l15 -14q7 -7 12 -15l10 -14l11 -33l3 -22q0 -11 -1 -18t-4 -14t-8 -15.5
t-14 -22.5q-2 -6 -10 -11l-13 -12l-23 -13l-18 -7l-16 -3h-19l-16 4q-3 0 -8 3t-12 8l-17 17q-3 3 -5 9t-4 15q0 18 2.5 27.5t8.5 17.5l15 14q2 2 23 6q26 0 34 -9l10 -11q5 -7 5 -19q0 -15 -13 -33q27 -10 41 1l18 18q5 12 8 32v19l-9 27l-6 10l-13 15l-20 13l-20 8l-20 2
l-21 1q-9 0 -17.5 -0.5t-14.5 -4.5q-9 -2 -28 -11l-32 -19l-4 -3q-4 -5 -4 -8t-1 -4q-5 -19 -12 -34t-21 -34q16 -16 24 -26.5t13 -19.5l9 -33l4 -36q0 -42 -11 -71q-10 -28 -36 -44z" />
    <glyph glyph-name="uni099509CD09A8.akhn" horiz-adv-x="685" 
d="M380 -118l-9 63q-7 19 -12 30.5t-14 23.5l-25 34q-23 29 -49 43.5t-73 14.5v-21q25 -23 25 -44l-4 -22q-6 -22 -22 -35.5t-42 -13.5l-13 1q-34 7 -50 22.5t-16 51.5q0 24 9 42.5t24.5 31.5t36.5 19.5t45 6.5q30 0 52.5 -7t39.5 -19q15 -12 25 -20.5t16 -15.5l43 -56l1 59
q-9 19 -20 34.5t-16 18.5q-19 26 -39 40.5t-39 24.5l-32 18l-40 17q-11 6 -30 10t-42 7l-74 91q14 11 41.5 30t62.5 41q61 37 106 58q45 20 124 46v64h-371l-42 40h704l39 -40h-292v-67l23 4q55 0 118 -57q83 -71 83 -180q0 -22 -7 -40.5t-19 -32t-27.5 -20.5t-33.5 -7
q-30 0 -56 29l-10 18l-3 16l3 20l4.5 9t6.5 9l16 15l31 5q22 0 39 -16l23 -24l9 29q0 28 -9 48q-12 37 -41 61q-20 21 -48 36q-36 19 -78 19l-25 -2l-1 -571zM309 175l14 -17l14 -19q7 -11 31 -49v356q-58 -18 -88 -35l-65 -36l-41 -28l-51 -37q36 -15 51 -22t25 -14
q5 -3 9 -6l10 -6l12 -9l15 -12q13 -10 26.5 -23t26.5 -29z" />
    <glyph glyph-name="uni099509CD09F1.blwf" horiz-adv-x="678" 
d="M382 -43q-20 33 -38 49q-29 29 -63 36t-68 7l-34 48l100 63q3 2 6.5 3.5t19.5 12.5q-23 15 -32.5 18.5t-17.5 8.5l-30 17l-41 16q-25 10 -70 17l-73 87q12 10 39 28l62 40l57 31q27 14 48 24q23 9 52 19.5t71 24.5v64h-370l-42 40h699l40 -40h-288l-2 -67l22 4
q56 0 118 -55q82 -67 82 -172q0 -42 -26 -68.5t-60 -26.5q-29 0 -55 27l-10 17l-3 17l3 17q5 12 10 17l16 15l31 4q25 0 39 -14l24 -26l7 31q0 12 -1.5 24t-7.5 23q-13 36 -40 59q-10 10 -22.5 18t-25.5 14q-34 19 -77 19l-25 -2v-496zM368 198v251q-35 -10 -53 -17t-34 -16
l-64 -35l-40 -27l-52 -35l52 -23q14 -5 24 -12q10 -8 19 -13t26 -20q14 -9 30 -21.5t28 -29.5q3 -3 5.5 -6.5t10.5 -11.5l28 13q6 3 9 3h11zM371 138q-4 8 -7.5 12.5t-9.5 2.5t-11.5 -4.5t-16.5 -6.5l-24.5 -14t-20.5 -11l-66 -36q48 -8 67.5 -16.5t34.5 -16.5l21 -14
q8 -8 33 -36v140z" />
    <glyph glyph-name="uni099509CD09AE.akhn" horiz-adv-x="768" 
d="M-43 611h778l39 -40h-85l-1 -691l-15 13l-25 49l-12 20q-5 7 -8 11.5t-6.5 7.5t-7.5 5l-32 28l-28 5h-23.5t-23.5 -8l-8 -9l-5 -26q0 -8 -8 -14q-9 -10 -19.5 -18t-19.5 -8l-15 1q-4 0 -8.5 1.5l-13.5 4.5q-7 1 -10.5 3t-7.5 5l-13 10l-6 17l-3 12l1 19l4 17l5 5l13 10
l-6 20q-5 17 -19 37t-35 45q-10 14 -19.5 23.5t-19 16t-18.5 11.5l-19 9l-32 19l-43 14q-11 5 -30 9.5t-42 7.5l-74 91q14 10 41.5 29.5t62.5 41.5q30 19 56.5 32t49.5 22q23 11 52 21.5t72 24.5v56h-371zM648 571h-240v-60l23 4q27 0 53 -9t58 -37q43 -36 63.5 -79
t20.5 -98q0 -22 -7.5 -40.5t-19.5 -32t-28 -20.5t-33 -7q-30 0 -55 28l-11 18l-2 17l3 19q1 5 3.5 9.5t6.5 8.5l15 15l32 5q22 0 39 -15l22 -24l10 28q0 28 -9 49q-12 37 -41 61q-11 11 -24 17l-24 12q-10 4 -19 6t-18 1.5t-17 -1.5t-17 -1l-25 -2v-387l28 11q4 1 9.5 2.5
t12.5 3.5l19 2l20 -2q13 0 24 -3t27 -12l26 -13l32 -25l41 -49zM368 449l-54 -17q-19 -5 -34 -14l-65 -31l-41 -28l-51 -38q36 -15 51 -21.5t25 -13.5q5 -3 9 -6l10 -6l12 -10l15 -11q14 -11 27.5 -18.5t25.5 -22.5q12 -16 25 -31t45 -70v338z" />
    <glyph glyph-name="uni099509CD09F0.blwf" horiz-adv-x="805" 
d="M502 -29q-1 1 -9 27q-2 14 -6 25t-11.5 20t-17.5 15.5t-24 12.5q-12 4 -24.5 6.5t-28.5 2.5h-26l-35 -5q-42 -5 -70 -8t-40 -3l-27 2q-30 0 -54.5 6t-41.5 18q-14 9 -24.5 23t-19.5 32l-5 14l-11 35q-3 12 -5 26.5t-2 30.5q0 45 12 83l6 17l14 27l11 19l10 -10l-14 -22
l-11 -28l-3 -25l-3 -33q0 -41 11.5 -70t33.5 -49q10 -10 43 -23l27 -5l28 -1h17l13 3q46 6 80 6q36 0 63.5 -4.5t47.5 -13.5l78 -56v367l-5 21q-4 14 -11 14l-4 4l-20 5l-20 -2l-15 -6l-24 -11q-14 -9 -28 -20l-19 -17l-27 -22q-23 -27 -44 -88l48 7l15 -3q3 -2 15 -19
l7 -19l4 -20q0 -11 -5 -21t-11.5 -17t-14 -11t-12.5 -4l-16 -2h-11q-44 0 -69 26q-10 13 -16 31.5t-6 43.5q0 8 1 13.5t2 10.5l11 34q15 39 44 64l21 22q26 22 52 39t52 28l24 8l20 5l13 -2q11 0 25 -8l9 -4q56 -30 56 -70v-59q23 19 30 22l12 7q27 9 45 13l29 4l23 -4
q18 -2 32 -10l15 -7l14 -14q7 -7 12 -15l10 -14l12 -33l2 -22q0 -11 -1 -18t-3.5 -14t-7.5 -15.5t-14 -22.5q-2 -3 -4 -5t-7 -5l-13 -13l-22 -13l-19 -8l-16 -2h-18l-16 4q-3 1 -8 3.5t-12 7.5l-17 17q-4 3 -6 9.5t-3 14.5q0 18 2.5 28t7.5 17l15 14q3 3 23 6q26 0 35 -9
l9 -10q5 -8 5 -20q0 -15 -12 -32q24 -11 41 0l17 19q3 5 5 12.5t3 18.5v19l-8 26l-6 11l-13 14l-20 14l-21 8l-20 2l-20 2q-22 0 -32 -6q-5 0 -12 -3t-17 -8l-31 -19v-400zM4 571l-39 40h812l37 -40h-810z" />
    <glyph glyph-name="uni099509CD09B2.akhn" horiz-adv-x="685" 
d="M378 -83l-11 43l-11 27l-15 23q-14 19 -38 19q-14 0 -22 -9q-12 -12 -17 -31l-2 -15l-16 -2l-13 17l-19 17l-26 16l-29 7q-29 0 -43 -7q-19 -5 -31 -33l-6 -28q0 -17 6 -26l5 -11q6 -12 39 -23l-11 34l1 11q1 4 4 9t9 10q9 7 18 7q1 0 3 -0.5l6 -1.5l19 -9l10 -15
q2 -5 3.5 -12t1.5 -15q-1 -12 -6 -22t-13 -17q-16 -14 -34 -14q-20 0 -38 7q-18 5 -33 19q-17 18 -29.5 37.5t-12.5 40.5l1 19l4 24q6 26 34 53q10 9 28.5 17t37.5 8l32 -1q8 0 13 -3l17 -9l19 -13l17 -19l25 -39q5 37 8 45t7 13l13 18q3 2 16 4q7 0 12 -1t8 -2.5t6 -4.5
l8 -8l11 -18l27 -67v79l-17 24q-9 12 -21 26q-41 54 -79 74l-32 18l-40 17q-11 6 -30 10t-42 7l-74 91q14 11 41.5 30t62.5 41q61 37 106 58q45 20 124 46v64h-371l-42 40h699l39 -40h-287v-67l23 4q55 0 118 -57q83 -71 83 -180q0 -22 -7 -40.5t-19 -32t-27.5 -20.5
t-33.5 -7q-30 0 -56 29l-10 18l-3 16l3 20l4.5 9t6.5 9l16 15l31 5q22 0 39 -16l23 -24l9 29q0 28 -9 48q-12 37 -41 61q-20 21 -48 36q-36 19 -78 19l-25 -2v-542zM368 446q-58 -18 -88 -35l-65 -36l-41 -28l-51 -37q36 -15 51 -22t25 -14q5 -3 9 -6l10 -6l12 -9l15 -12
q13 -10 26.5 -23t26.5 -29q12 -15 25 -34t45 -74v365z" />
    <glyph glyph-name="uni099509CD09B7.akhn" horiz-adv-x="766" 
d="M789 571h-266v-117l52 6q19 0 32.5 -2.5t34.5 -11.5q11 -3 23 -11.5t23.5 -19.5t21.5 -24t15 -24q11 -23 11 -50l-2 -23q0 -11 -6.5 -30.5t-22.5 -32.5q-17 -11 -34 -11l-24 2q-42 8 -55 32q-5 11 -5 22q0 17 13 30l22 13q26 0 46 -6q10 -3 32 -44l15 58q0 19 -20 44
q-11 9 -39 23l-47 12l-38 -2q-19 0 -45 -9v-411l-20 10l-15 75l-19 43l-25 41q-15 22 -38 39l-55 31q-7 -29 -17 -37q-8 -9 -26 -18l-34 -8q-20 0 -45 19q-20 20 -20 48q0 7 2 15.5t8 16.5q5 7 12 14t16 13q20 9 40 9l21 -2l8 32v11q0 29 -21 60q-28 36 -69 36
q-18 0 -41 -19q0 -16 -8 -30q-7 -19 -20 -29t-28 -12q-41 0 -57 30q-13 18 -13 43q0 22 9.5 40t24.5 24h18q15 0 20 13q3 14 -4.5 28.5t-22.5 29.5l-12 12l-13 9h-79l-38 40h783zM487 133l-1 261h-32q-6 1 -10.5 2t-8.5 3q-20 4 -37 17q-35 19 -59 57q-28 34 -38 98h-172
l22 -47l15 -31q47 -7 97 -44q48 -28 93 -118l8 -26l5 -40q15 -10 27.5 -20.5t27.5 -27.5l13 -17q6 -9 14 -22zM485 460v111h-122q-23 0 -23 -36q0 -40 24 -64q31 -23 84 -23q22 0 37 12z" />
    <glyph glyph-name="uni099509CD09B709CD09A3.akhn" horiz-adv-x="773" 
d="M526 -92l-8 3l-14 43l-12 23q-5 10 -15 21l-26 30q-25 31 -54 44.5t-97 10.5q44 -18 45 -61l-3 -23q-6 -22 -22 -34.5t-42 -12.5l-13 1q-35 6 -50.5 21.5t-15.5 50.5q0 24 8.5 42t24.5 30t37 18t45 6q30 0 52.5 -6.5t38.5 -18.5q30 -23 41 -36l43 -63v92l-16 31l-26 34
q-15 21 -37 38l-52 39q-9 -22 -11 -29t-5 -10q-9 -9 -26 -17l-35 -9q-20 0 -45 19l-17 22q-6 7 -6 20q0 7 2 15.5t7 16.5q5 7 12 14t17 13q19 9 39 9l21 -2l9 32v11q0 29 -21 60q-28 36 -70 36q-18 0 -41 -19q0 -16 -7 -30q-7 -19 -20.5 -29t-28.5 -12q-40 0 -57 30
q-12 18 -12 43q0 22 9 40t25 24h17q15 0 21 13q3 14 -5 28.5t-22 29.5l-13 12l-13 9h-82l-38 40h790l41 -40h-269v-117l51 6q19 0 32.5 -2.5t34.5 -11.5q11 -3 23 -11.5t24 -19.5t21.5 -24t14.5 -24q12 -23 12 -50l-3 -23q0 -11 -6.5 -30.5t-21.5 -32.5q-17 -11 -35 -11
l-24 2q-42 8 -54 32q-6 11 -6 22q0 17 13 30l22 13q27 0 46 -6q10 -3 33 -44l15 58q0 19 -21 44q-10 9 -39 23l-47 12l-38 -2q-18 0 -45 -9v-487zM487 113v281h-33q-6 1 -10.5 2t-8.5 3q-20 4 -37 17q-34 19 -59 57q-27 34 -37 98h-172l22 -47l14 -31q47 -7 98 -44
q48 -28 92 -118l9 -26l5 -40q14 -10 27 -20.5t27 -27.5l13 -17q7 -9 15 -22zM485 460v111h-121q-23 0 -23 -36q0 -40 24 -64q30 -23 84 -23q21 0 36 12z" />
    <glyph glyph-name="uni099509CD09B709CD09F1.akhn" horiz-adv-x="770" 
d="M485 460v111h-122q-23 0 -23 -36q0 -39 24 -64q31 -23 84 -23q21 0 37 12zM467 148l19 2v244h-32q-6 1 -10.5 2t-9.5 4q-19 3 -37 15q-34 20 -58 58q-28 34 -37 98h-173l22 -47l14 -31q48 -8 99 -43q47 -29 92 -119l8 -25l6 -41q14 -10 26.5 -20.5t26.5 -26.5l14 -18
q7 -9 14 -22zM492 67l-14 30q-30 -18 -47 -29l-31 -24l-54 -50q60 -9 90 -30q10 -9 20 -17.5t35 -42.5zM525 -15v-158l-22 8q-19 39 -39 61q-58 65 -131 65l-36 62l103 77q28 21 55 39l-9 14q-15 22 -36 39l-57 31q-6 -29 -16 -37q-7 -10 -26 -17l-34 -9q-20 0 -45 20
q-20 19 -20 47q0 7 2 15.5t7 16.5q6 7 12.5 14t17.5 12q18 10 39 10l21 -2l8 33v10q0 29 -21 60q-28 36 -69 36q-19 0 -41 -19q0 -17 -7 -31q-7 -18 -20.5 -28t-29.5 -12q-39 0 -57 30q-12 18 -12 43q0 22 9.5 39.5t24.5 24.5h18q14 0 20 13q4 13 -4 28t-23 30l-13 12l-12 9
h-79l-38 40h783l41 -40h-266v-117l52 6q19 0 32.5 -2.5t34.5 -11.5q11 -3 23 -11.5t23.5 -19.5t21 -24t15.5 -24q11 -23 11 -51l-2 -23q0 -10 -7 -29.5t-22 -32.5q-17 -11 -34 -11l-25 2q-41 8 -53 31q-6 12 -6 23q0 17 13 29l22 14q26 0 46 -7q10 -2 32 -43l15 58
q0 20 -20 44q-11 9 -39 22l-47 13l-38 -2q-19 0 -45 -9v-411z" />
    <glyph glyph-name="uni099509CD09B709CD09AE.akhn" horiz-adv-x="823" 
d="M7 571l-38 40h832l39 -40h-74v-739l-13 12l-21 53q-14 27 -23.5 44t-19.5 23l-18 18l-25 6q-17 0 -30 -13l-7 -11l-4 -26q0 -6 -7 -16q-6 -9 -19 -14.5t-21 -5.5l-12 1q-4 0 -17 4q-4 3 -9 5t-9 5l-10 10l-8 19l-2 11l3 20l6 18l4 3q3 4 7 12l-20 59l-19 43l-25 41
q-15 22 -38 39l-55 31q-7 -29 -17 -37q-8 -9 -26 -18l-34 -8q-20 0 -45 19q-20 20 -20 48q0 7 2.5 15.5t7.5 16.5q5 7 12 14t17 13q19 9 39 9l21 -2l8 32v11q0 29 -21 60q-28 36 -69 36q-18 0 -41 -19q0 -16 -7 -30q-7 -19 -20.5 -29t-28.5 -12q-40 0 -57 30q-13 18 -13 43
q0 22 9.5 40t24.5 24h18q15 0 20 13q3 14 -4.5 28.5t-22.5 29.5l-12 12l-13 9h-75zM730 -61v327q-19 -32 -20 -32.5t-4 -2.5q-18 -11 -35 -11l-24 2q-42 8 -54 32q-6 11 -6 22q0 17 13 30l22 13q26 0 46 -6q10 -3 32 -44l15 58q0 19 -20 44q-11 9 -39 23l-47 12l-38 -2
q-19 0 -45 -9v-373l25 15q4 3 14 3h21l18 -2q21 0 45 -17l21 -14l17 -17zM486 113v281h-32q-6 1 -10.5 2t-8.5 3q-20 4 -37 17q-35 19 -59 57q-28 34 -38 98h-172l22 -47l15 -31q47 -7 97 -44q48 -28 93 -118l8 -26l5 -40q15 -10 27.5 -20.5t27.5 -27.5l13 -17q7 -9 14 -22z
M642 446q17 -5 36.5 -20.5t51.5 -60.5v206h-207v-117l52 6q19 0 32.5 -2.5t34.5 -11.5zM485 460v111h-122q-23 0 -23 -36q0 -40 24 -64q31 -23 84 -23q22 0 37 12z" />
    <glyph glyph-name="uni099509CD09B8.akhn" horiz-adv-x="752" 
d="M663 571v-651l-42 37l1 64l-15 27l-20 20q-6 4 -15.5 8.5t-24.5 9.5l-37 6q-32 0 -83 -36l-29 -24l-29 -27l-28 -21q-18 -7 -31 -7q-9 0 -27 6q-30 15 -59 43q-15 16 -26 33.5t-16 31.5l10 11q0 20 3.5 10.5t9.5 -19t13 -19t16 -17.5l27 -15l35 -4q39 4 66 31
q33 30 20 52l-20 28l-15 20q-24 29 -48.5 49t-50.5 34l-62 30q-37 13 -63 13l-50 83q16 13 85 47l132 65q13 6 24 10l24 10q3 1 16 5t42 15v41h-391l-38 40h763l42 -40h-109zM432 529q17 -5 29 -9t22 -11l32 -24q40 -31 62 -86q10 -22 10 -49q0 -40 -18 -75q-13 -32 -38 -32
l-12 2q-10 3 -18.5 8t-14.5 10q-8 12 -8 28t7 27.5t15 16.5l17 5q14 0 45 -22l-9 50q0 15 -7 31q-8 31 -46 54l-26 14l-42 18v-351l45 11l7 1h19q17 0 29.5 -3.5t22.5 -14.5l24 -20l41 -42v505h-188v-42zM254 418q-24 -14 -43 -27q-8 -4 -16 -9.5t-29 -25.5q52 -10 143 -104
l36 -46l51 -76v354l-53 -21l-36 -16z" />
    <glyph glyph-name="uni099609CD09F1.blwf" horiz-adv-x="565" 
d="M488 -199l-22 8q-19 39 -39 61q-58 65 -131 65l-36 62l103 77q27 20 54 38l-13 17q-22 26 -54 46q-43 28 -90 44.5t-91 22.5l-83 102l29 -2l45 3l48 10q30 10 55 23.5t44 31.5q30 29 30 56q0 24 -7.5 37.5t-32.5 34.5l-57 -53l-34 -18l-48 -17q-33 -10 -52 -10
q-15 0 -29.5 4.5t-24.5 12.5t-16 19t-6 25l1 29q0 1 2.5 5.5t7.5 10.5q15 20 40 20q28 0 40 -14q3 -4 5.5 -12t2.5 -30q39 6 50 14l55 48l33 31l30 -27l35 -29q7 -8 16.5 -22t20.5 -34q6 -10 8.5 -20t2.5 -22q0 -30 -16 -60t-53 -58l-31 -18l-47 -19l58 -30l36 -25
q31 -25 64 -61q12 -13 22 -27q8 -12 19 -29l17 2v588l14 -10l3 -32l7 -39q3 -8 9.5 -11.5t15.5 -8.5h69l36 -40h-115v-770zM455 51l-11 22q-32 -19 -50 -31l-31 -24l-54 -50q60 -9 90 -30q10 -9 20 -17.5t35 -42.5z" />
    <glyph glyph-name="uni099609CD09F0.blwf" horiz-adv-x="631" 
d="M539 571v-593q14 -24 4.5 -15.5t-57.5 61.5q-13 9 -29 18t-37 16l-26 6l-25 2l-63 -6l-95 -3l-43 1l-41 9q-26 8 -47 30l-24 29q-5 7 -9 21q-9 21 -12.5 40.5t-3.5 38.5q0 11 0.5 17t1.5 10l6 40l-1 -2l25 -21q-6 -2 -6 -34l-1 -18q0 -13 2.5 -24t10 -21t20 -19t32.5 -17
l58 -16l55 -2h70q9 0 15.5 -0.5t10.5 -2.5q9 0 18.5 -1t21.5 -4q21 -4 40 -11q19 -8 33 -16t22 -15l40 -50v35l-10 20l-15 23l-24 32q-22 26 -54 47q-43 27 -89.5 43.5t-91.5 22.5l-82 102l27 -2l46 4l47 10q31 9 55.5 22.5t44.5 31.5q29 29 29 56q0 23 -7 37.5t-33 34.5
l-57 -53l-33 -18l-48 -18q-33 -9 -52 -9q-16 0 -30 4.5t-24.5 12.5t-16 19t-5.5 25l1 29q0 2 2.5 6t6.5 10q16 20 40 20q28 0 41 -14q3 -5 5 -12t2 -29q39 5 51 13l55 47l33 32l30 -26l35 -30q7 -8 16.5 -22t20.5 -34q5 -10 7.5 -20t2.5 -22q0 -30 -15.5 -60.5t-52.5 -56.5
l-32 -19l-46 -18l57 -31l36 -25q32 -26 64 -61q13 -13 22.5 -27t36.5 -57v618l14 -10l2 -32l8 -39q3 -6 9 -10.5t17 -9.5h68l36 -40h-116z" />
    <glyph glyph-name="uni099709C1.blws" horiz-adv-x="634" 
d="M525 491l43 -78q8 -17 14.5 -38.5t9.5 -46.5q0 -22 -13 -41.5t-54 -49.5l23 -41l5 -35l2 -15q0 -14 -5.5 -32t-16.5 -39q-29 -53 -82 -53q-75 0 -100 9q-30 6 -73 39q-23 13 -41 28t-32 33q-28 38 -79 129q-19 35 -35 84t-30 112l-14 85l20 -14l5 -32l12 -48
q4 -29 15.5 -59t26.5 -60l29 -57q17 -32 44 -58l23 -22l41 -33l59 -39q48 -25 99 -25q77 0 104 48q9 15 9 30l-4 38q-35 -24 -54 -24t-34.5 10t-25.5 26l-8 32q0 29 29 50q7 4 13.5 5.5t13.5 1.5q11 0 20 -4l26 -11l17 -1q13 8 29 27q7 6 7 21q0 26 -25 83t-53 66l-50 -79
q0 -1 -9 22t-23 41q-13 18 -23 29.5t-17 16.5q-22 16 -54 16q-18 0 -31 -2.5t-22 -7.5q-16 -9 -59 -65l53 15l17 2h15t10 -1t8.5 -3.5t11.5 -8.5q42 -21 42 -56q0 -22 -18 -51q-34 -52 -50 -67l-25 -21l-59 50l83 68q20 16 25 35q0 22 -29 22l-18 -3l-51 -12l-33 -5
q-27 0 -33 27l-1 13q0 8 4 19.5t10.5 24t15.5 25t20 23.5q6 6 16.5 12.5t23 11.5t24 8t19.5 3q36 0 56 -11q60 -36 89 -104l47 118z" />
    <glyph glyph-name="uni099709CD0997.akhn" horiz-adv-x="574" 
d="M356 260q-4 4 -15 10t-28 12q-14 5 -24.5 7t-20.5 2q-4 -1 -5 -1h-7q-24 -4 -41.5 -9t-28.5 -12q-35 -18 -68 -91l47 9l37 5l31 -4q10 0 28 -9q47 -26 47 -70q0 -13 -0.5 -22.5t-3.5 -14.5l-11 -26l-21 -37q-13 -21 -22.5 -34.5t-14.5 -19.5l-27 -31l-54 61l19 17l42 45
l38 41q10 12 16.5 22.5t6.5 21.5q0 12 -8 19q-14 18 -36 18t-64 -27q-37 -24 -53 -24q-9 0 -16 5q-22 14 -32 31.5t-10 36.5t6.5 38t21.5 38q9 12 21 24t27 23l18 12q19 13 55 13q7 0 14.5 4.5t13 11t10 14.5t4.5 18q0 8 -9 24q-14 19 -37 19q-20 0 -63 -26q-37 -24 -54 -24
q-9 0 -16 5q-23 13 -32.5 30.5t-9.5 39.5q0 37 28 79q12 17 23 28t21.5 18t22 11t24.5 8l53 4q42 0 75.5 -11t53.5 -28q14 -13 30.5 -33t34.5 -46q15 -23 24.5 -43t23.5 -37l-6 118l-3 48l-1 139l18 -14l-2 -11q0 -12 3 -25.5t10 -29.5l19 -19h72l39 -40h-122v-611l-48 50
v169q-15 35 -25 46zM423 324q0 14 -3.5 32.5t-14.5 45.5q-17 52 -40 79l-39 40q-9 10 -43 22q-13 6 -24 8t-20 2q-5 -1 -7 -1h-7q-23 -5 -41 -9.5t-29 -11.5q-34 -20 -67 -92l46 10l38 4l31 -3q10 0 27 -10q17 -9 26 -14.5t11 -8.5q5 -7 8 -18.5t3 -26.5l-11 -33l9 -14
q113 -32 151 -111z" />
    <glyph glyph-name="uni099709CD09A6.akhn" horiz-adv-x="901" 
d="M419 498v113h474l41 -40h-469v-283l41 31l80 70q18 15 38 27l44 27l75 33l92 -70l-26 -56q-31 -73 -42 -138l-5 -41l-2 -65l2 -26l4 -19l1 -22l7 -32l7 -31l4 -10l-17 7l-18 55l-12 40l-10 50l-7 72l-2 24v25l2 31l4 28l20 86l-48 -19q-16 -6 -35 -17l-29 -17
q-12 -8 -26 -22q-23 -21 -41.5 -40.5t-31.5 -38.5q-18 -23 -31.5 -47t-16.5 -30l-66 69l-1 232l-30 31l-41 31l-45 22q-6 3 -15 6t-20 6l-30 2q-23 -4 -41 -9t-29 -13q-35 -19 -67 -90l47 8l36 5l33 -3q7 0 25 -10q48 -26 48 -69q0 -12 -1.5 -22t-4.5 -18q-1 -8 -9 -23
t-23 -36l-19 -30l-20 -23l-23 -27l-45 55l15 12l38 40l36 44q23 31 23 51q0 11 -6 18q-14 18 -36 18t-64 -26q-37 -24 -54 -24q-8 0 -16 5q-23 13 -32.5 31t-9.5 39q0 36 28 79q22 31 47 49q20 11 42 16.5t49 5.5q21 0 43 -4t41.5 -9.5t34 -13.5t23.5 -17l50 -35z" />
    <glyph glyph-name="uni099709CD09A7.akhn" horiz-adv-x="698" 
d="M123 247l19 16l43 47l37 39q11 12 17 23t6 22q0 12 -7 18q-13 18 -36 18q-20 0 -63 -26q-37 -24 -54 -24q-9 0 -16 5q-23 13 -32.5 30.5t-9.5 39.5q0 37 28 79q21 31 47 48q19 11 41.5 17t49.5 6q20 0 41.5 -3.5t41 -9.5t35 -14t25.5 -16q19 -18 35.5 -40t29.5 -49
q1 -3 5 -12.5t10 -26.5l13 -30q5 -12 -46 132l72 -143l-12 60q-6 40 -9.5 69t-3.5 48v91l3 51l16 -15l-2 -12q0 -12 3 -25.5t9 -27.5q5 -13 45 -21h165l40 -40h-241v-240l54 17l51 16q5 0 11 -3l20 -19q8 -3 19 -20l17 -22l6 -18l3 -12l-3 -37l-2 -76l-1 -48l1 -51
q0 -14 1 -26.5t4 -24.5l13 -74l-31 23l-8 10l-10 14l-7 21l-8 30l4 224q0 13 -17 29l-14 6q-9 0 -22 -3t-34 -9l-29 -10q-15 -4 -20 -13v-360l5 -4l-12 26l-8 17q-19 33 -24 35l-27 29l-45 42q-12 10 -26 18t-29 14t-30 10t-29 4l-35 1l-69 87l31 21zM270 256l158 67
q0 43 -30 104q-14 31 -32.5 54.5t-40.5 41.5l-19 9l-26 11q-32 13 -55 9q-23 -5 -41 -9.5t-29 -11.5q-34 -20 -67 -92l46 10l38 4l31 -3q10 0 27 -10q48 -26 48 -69q0 -15 -10 -45l-39 -68l-33 -46zM428 255l-44 -16l-33 -15l-31 -15l-24 -14l-33 -19l-46 -34q35 -14 50 -21
t28 -14.5t26 -17.5t27 -22l34 -29q6 -5 13 -12.5t33 -44.5v274z" />
    <glyph glyph-name="uni099709CD09A709CD09F0.akhn" horiz-adv-x="702" 
d="M123 247l19 16l43 47l37 39q11 12 17 23t6 22q0 12 -7 18q-13 18 -36 18q-20 0 -63 -26q-37 -24 -54 -24q-9 0 -16 5q-23 13 -32.5 30.5t-9.5 39.5q0 37 28 79q21 31 47 48q19 11 41.5 17t49.5 6q20 0 41.5 -3.5t41 -9.5t35 -14t25.5 -16q19 -18 35.5 -40t29.5 -49
q1 -3 5 -12.5t10 -26.5l13 -30q5 -12 -46 132l72 -143l-12 60q-6 40 -9.5 69t-3.5 48v91l3 51l16 -15l-2 -12q0 -12 3 -25.5t9 -27.5q5 -13 45 -21h181l40 -40h-257v-240l54 17l51 16q5 0 11 -3l20 -19q8 -3 19 -20l17 -22l6 -18l3 -12l-3 -37l-2 -76l-1 -48l1 -51
q0 -14 1 -26.5t4 -24.5l13 -74l-31 23l-8 10l-10 14l-7 21l-8 30l4 224q0 13 -17 29l-14 6q-9 0 -22 -3t-34 -9l-29 -10q-15 -4 -20 -13v-360l5 -4l-12 26l-8 17q-19 33 -24 35l-27 29l-45 42q-12 10 -26 18t-29 14t-30 10t-29 4l-35 1l-69 87l31 21zM270 256l158 67
q0 43 -30 104q-14 31 -32.5 54.5t-40.5 41.5l-19 9l-26 11q-32 13 -55 9q-23 -5 -41 -9.5t-29 -11.5q-34 -20 -67 -92l46 10l38 4l31 -3q10 0 27 -10q48 -26 48 -69q0 -15 -10 -45l-39 -68l-33 -46zM428 255l-44 -16l-33 -15l-31 -15l-24 -14l-33 -19l-46 -34q35 -14 50 -21
t28 -14.5t26 -17.5t27 -22l34 -29q6 -5 13 -12.5t33 -44.5v274zM467 -121l2 -2l-11 11l-22 30l-18 21l-22 15l-25 13l-45 7l-39 -1l-47 -5l-54 -4l-38 1l-36 9q-10 4 -21 11t-20 18l-17 23q-3 4 -6 10l-7 16q-7 21 -10.5 38t-3.5 31l2 18l1 47l1 6l29 -23l-6 -8l-6 -29
l-2 -25q0 -25 17 -43q7 -6 16.5 -11t24.5 -11l25 -8l29 -6l48 -2h35h28l25 -2l25 -5l25 -4q8 0 24.5 -8.5t33.5 -22.5l11 -12l27 -42v194l27 -25v-220z" />
    <glyph glyph-name="uni099709CD09A8.akhn" horiz-adv-x="565" 
d="M482 -77l-15 9l-19 35l-18 37l-20 24q-9 12 -19.5 20.5t-21 14.5t-21 9.5t-19.5 3.5l-21 -1q-13 0 -26 -7l-23 -16l27 -23l14 -15q4 -3 4 -22q0 -14 -10 -30q-1 -1 -4 -3.5l-9 -7.5q-16 -14 -46 -14l-12 1q-14 3 -25 8.5t-22 18.5l-16 28q-1 3 -2.5 11t-3.5 19
q0 36 32 63q5 6 16.5 11t25.5 9.5t29.5 7t28.5 2.5q27 0 52 -9.5t57 -36.5l17 -12l34 -47v331l-11 38q-1 11 -7 21l-8 19q-8 23 -45 60l-50 43l-19 9l-26 11q-32 13 -55 9q-23 -5 -41 -9.5t-29 -11.5q-34 -20 -67 -92l46 10l38 4l31 -3q10 0 27 -10q48 -26 48 -69
q0 -12 -1.5 -21.5t-4.5 -17.5q-1 -8 -9 -23.5t-23 -37.5l-36 -55l-26 -31l-55 62l19 16l43 47l37 39q11 12 17 23t6 22q0 12 -7 18q-13 18 -36 18q-20 0 -63 -26q-37 -24 -54 -24q-9 0 -16 5q-23 13 -32.5 30.5t-9.5 39.5q0 37 28 79q21 31 47 48q19 11 41.5 17t49.5 6
q20 0 41.5 -3.5t41 -9.5t35.5 -14t25 -18l41 -39q13 -13 21.5 -25.5t14.5 -24.5t15 -33.5t26 -48.5q-8 160 -8 179v143l15 -14l-2 -12q0 -12 3 -25t9 -29q4 -13 23 -20h66l39 -40h-118v-624h-1v-23z" />
    <glyph glyph-name="uni099709CD09F1.blwf" horiz-adv-x="559" 
d="M474 -169l-29 44l-19 24q-7 8 -22 17l-35 22q-13 7 -23 11.5t-21 7t-24 3.5t-24 1l-43 59l21 16l108 75l75 45q-3 -4 8 -13v199l-11 38q-1 11 -7 21l-8 19q-8 23 -45 60l-50 43l-19 9l-26 11q-32 13 -55 9q-23 -5 -41 -9.5t-29 -11.5q-34 -20 -67 -92l46 10l38 4l31 -3
q10 0 27 -10q48 -26 48 -69q0 -12 -1.5 -21.5t-4.5 -17.5q-1 -8 -9 -23.5t-23 -37.5l-36 -55l-26 -31l-55 62l19 16l43 47l37 39q11 12 17 23t6 22q0 12 -7 18q-13 18 -36 18q-20 0 -63 -26q-37 -24 -54 -24q-9 0 -16 5q-23 13 -32.5 30.5t-9.5 39.5q0 37 28 79q21 31 47 48
q19 11 41.5 17t49.5 6q20 0 41.5 -3.5t41 -9.5t35.5 -14t25 -18l41 -39q13 -13 21.5 -25.5t14.5 -24.5t15 -33.5t29 -61.5q-11 173 -11 192v143l15 -14l-2 -12q0 -12 3 -25.5t9 -26.5q4 -13 22 -22h55l40 -40h-107v-616l-2 2v-129zM446 111l-52 -29l-24 -14
q-8 -3 -17.5 -9.5t-19.5 -17.5l-49 -34q33 -6 43.5 -11t20.5 -14l26 -21l34 -28l38 -45v223z" />
    <glyph glyph-name="uni099709CD09AE.akhn" horiz-adv-x="713" 
d="M471 633q4 -14 22 -21l8 -1h200l39 -40h-89v-670l-13 12l-21 52q-27 54 -42 68l-20 19l-24 5q-17 0 -30 -12l-7 -11l-4 -27q0 -8 -8 -15q-6 -10 -18.5 -16t-20.5 -6l-13 1q-3 0 -6.5 1t-9.5 4q-11 4 -18 9l-10 10l-8 19l-2 13l3 20l6 18q6 8 14.5 16t16.5 14l19 12
q1 0 2 1l9 3v231l-11 38q-1 11 -7 21l-8 19q-8 23 -45 60l-50 43l-19 9l-26 11q-32 13 -55 9q-23 -5 -41 -9.5t-29 -11.5q-34 -20 -67 -92l46 10l38 4l31 -3q10 0 27 -10q48 -26 48 -69q0 -12 -1.5 -21.5t-4.5 -17.5q-1 -8 -9 -23.5t-23 -37.5l-36 -55l-26 -31l-55 62l19 16
l43 47l37 39q11 12 17 23t6 22q0 12 -7 18q-13 18 -36 18q-20 0 -63 -26q-37 -24 -54 -24q-9 0 -16 5q-23 13 -32.5 30.5t-9.5 39.5q0 37 28 79q21 31 47 48q19 11 41.5 17t49.5 6q20 0 41.5 -3.5t41 -9.5t35.5 -14t25 -18l41 -39q13 -13 22 -25q29 -32 63 -123l-4 83
q-6 36 -9 64.5t-3 47.5v143l15 -14l-2 -12q0 -12 3 -25.5t9 -26.5zM614 571h-133v-462q30 -2 53 -19l21 -13l17 -17l42 -51v562z" />
    <glyph glyph-name="uni099709CD09F0.blwf" horiz-adv-x="620" 
d="M559 -53l-7 8l-33 33v27l-7 10l-14 17l-19 15q-4 5 -8.5 8.5t-10.5 6.5l-35 12l-23 2q-9 0 -15.5 -0.5t-10.5 -1.5q-8 0 -16.5 -1t-16.5 -5l-38 -11l-36 -5h-29l-35 -2q-62 0 -103 23q-49 24 -67 52l-11 19l-9 21l-5 31l2 37l3 40l19 -16l-2 -3l-3 -14q0 -13 0.5 -20
t2.5 -11l10 -28q2 -9 13 -17l13 -11l18 -12l22 -10l23 -6l35 -7h25l54 4l47 8l65 6h11l13 -2l40 -7l21 -10q9 -2 13 -7l27 -21l37 -41v284l-12 39q-2 10 -6 20l-8 19q-9 23 -46 60l-50 43l-18 9l-27 11q-32 13 -55 9q-23 -5 -40.5 -9.5t-29.5 -11.5q-17 -10 -31.5 -28.5
t-34.5 -63.5l46 10l37 4l31 -3q10 0 27 -10q48 -26 48 -69q0 -12 -1.5 -21.5t-4.5 -17.5q-1 -8 -9 -23.5t-23 -37.5l-36 -55l-25 -31l-56 62l20 16l42 47l37 39q11 12 17 23t6 22q0 12 -7 18q-13 18 -37 18q-19 0 -62 -26q-37 -24 -54 -24q-8 0 -17 5q-22 13 -31.5 30.5
t-9.5 39.5q0 37 28 79q21 31 48 48q19 11 41.5 17t49.5 6q20 0 41.5 -3.5t41 -9.5t35 -14t25.5 -18l40 -39q13 -13 22 -25q30 -30 59 -122q-6 118 -8.5 146.5t-2.5 47.5l-1 143l15 -15l-1 -11q0 -12 2.5 -25t7.5 -27q6 -13 24 -22h42l39 -40h-94v-622l-1 1v5z" />
    <glyph glyph-name="uni099709CD09B2.akhn" horiz-adv-x="582" 
d="M453 -57l-10 43l-11 27l-16 23q-14 18 -38 18q-14 0 -22 -8q-12 -13 -16 -31l-3 -16l-15 -1l-13 17l-19 17l-27 15l-29 7q-28 0 -43 -6q-17 -5 -31 -33l-6 -28q0 -16 6 -27l6 -10q6 -12 37 -24l-9 35l1 11q1 8 13 19q9 7 18 7q1 0 3 -0.5t5 -1.5l20 -9l10 -15
q2 -5 3.5 -12t1.5 -16q-3 -24 -20 -39q-16 -13 -34 -13q-9 0 -18.5 1.5t-18.5 5.5q-18 5 -33 19q-18 17 -30 37t-12 41l1 18l3 24q7 28 34 54q11 9 29 17t38 8l31 -1q9 0 14 -4l17 -8l19 -13l16 -19l26 -40q5 38 8 46t6 13l14 18q3 2 15 3q8 0 13 -0.5t8 -2t6.5 -5t6.5 -7.5
l12 -18l26 -65v328l-11 38q-1 11 -7 21l-8 19q-8 23 -45 60l-50 43l-19 9l-26 11q-32 13 -55 9q-23 -5 -41 -9.5t-29 -11.5q-34 -20 -67 -92l46 10l38 4l31 -3q10 0 27 -10q48 -26 48 -69q0 -12 -1.5 -21.5t-4.5 -17.5q-1 -8 -9 -23.5t-23 -37.5l-36 -55l-26 -31l-55 62
l19 16l43 47l37 39q11 12 17 23t6 22q0 12 -7 18q-13 18 -36 18q-20 0 -63 -26q-37 -24 -54 -24q-9 0 -16 5q-23 13 -32.5 30.5t-9.5 39.5q0 37 28 79q21 31 47 48q19 11 41.5 17t49.5 6q20 0 41.5 -3.5t41 -9.5t35.5 -14t25 -18l41 -39q13 -13 22 -25q35 -39 59 -120
q-6 116 -9 144.5t-3 47.5v143l15 -14l-2 -12q0 -12 3 -25.5t9 -27.5q4 -14 23 -21h59l39 -40h-111l1 -644z" />
    <glyph glyph-name="uni099809CD09A8.akhn" horiz-adv-x="565" 
d="M466 -96l-14 9l-20 36l-17 37l-21 24q-9 11 -19.5 19.5t-21 15t-21 10t-19.5 3.5l-20 -2q-14 0 -27 -7l-23 -16l27 -23l15 -15q3 -4 3 -21q0 -15 -9 -30q-1 -2 -4 -4.5t-10 -7.5q-16 -14 -46 -14l-12 2q-13 3 -24.5 8t-22.5 18l-16 29q-2 3 -3 10.5t-2 18.5q0 36 32 63
q5 5 16 11t25 10.5t29.5 6.5t28.5 2q27 0 52 -9.5t58 -35.5l17 -13l36 -50v48l-2 7q-19 43 -72 91q-29 24 -61.5 39.5t-69.5 22.5l-34 4l-28 1l-70 72l52 53q15 16 31.5 31t84.5 70l-83 -33l-21 -2q-36 0 -71 28q-15 11 -22 20t-10 17l-2 6q-2 6 -3.5 14t-1.5 17l3 32l20 44
h-71l-39 40h573l40 -40h-112v-665zM424 571h-208q-29 3 -55 -17q-7 -8 -12.5 -15.5t-11.5 -19.5l-9 -33q0 -16 7 -29t18 -22.5t24.5 -15t26 -5.5t27 4.5t28 11.5t26 16.5t13.5 10.5l47 -47q-5 -2 -24 -17.5t-43 -36.5q-21 -21 -39.5 -41t-40.5 -49l55 -23q10 -3 18 -6.5
t16 -9.5q18 -9 31 -20l14 -14q7 -6 17 -17q17 -17 31 -34.5t44 -69.5v499z" />
    <glyph glyph-name="uni099809CD09F1.blwf" horiz-adv-x="535" 
d="M403 109q11 6 21 7v455h-208q-30 3 -55 -18q-7 -6 -13 -14.5t-10 -19.5l-10 -33q0 -15 7 -28.5t18 -23t24.5 -15t26.5 -5.5t27 4.5t27.5 11.5t26 16.5t13.5 9.5l47 -46q-5 -3 -24 -18t-43 -36q-21 -21 -39.5 -41t-40.5 -48l56 -25q10 -2 17.5 -5.5t15.5 -10.5
q18 -8 30 -19l15 -13q7 -7 17 -18q17 -17 31 -35zM432 40l-2 4q-2 6 -10 20q-32 -18 -49 -30l-31 -24l-54 -50q60 -9 90 -30q10 -9 20 -17.5t35 -42.5zM465 -207l-22 8q-19 39 -39 61q-58 65 -131 65l-36 62l103 77q24 18 51 36q-18 21 -31 32q-30 25 -62.5 41t-69.5 23
l-34 3l-28 1l-69 72l51 53q15 17 31 31.5t93 73.5l-90 -37l-21 -2q-37 0 -72 28q-15 11 -22 20t-10 17l-2 6q-2 7 -3.5 14.5t-1.5 16.5l3 31l21 45h-72l-39 40h570l39 -40h-108l1 -414v-364z" />
    <glyph glyph-name="uni099809CD09F0.blwf" horiz-adv-x="575" 
d="M424 571h-208q-29 3 -55 -17q-7 -8 -12.5 -15.5t-11.5 -19.5l-9 -33q0 -16 7 -29t18 -22.5t24.5 -15t26 -5.5t27 4.5t28 11.5t26 16.5t13.5 10.5l47 -47q-5 -2 -24 -17.5t-43 -36.5q-21 -21 -39.5 -41t-40.5 -49l55 -23q10 -3 18 -6.5t16 -9.5q18 -9 31 -20l14 -14
q7 -6 17 -17q17 -17 31 -34.5t44 -69.5v499zM465 -58l2 -1l-12 10l-21 30l-19 21l-23 14l-26 14l-46 6l-40 -1l-48 -5l-56 -4l-39 1l-37 9q-11 4 -21.5 11t-20.5 18l-17 22q-4 5 -7 10l-7 16q-7 21 -10.5 37.5t-3.5 29.5l1 19l2 46l1 6l30 -23l-6 -8l-6 -29l-2 -24
q0 -25 18 -42q7 -6 16.5 -11t24.5 -12l26 -7l30 -6l49 -2h64l27 -2l26 -5l24 -4q9 0 26 -8t35 -23l11 -12l27 -40v35l-6 16q-19 43 -72 91q-29 24 -61.5 39.5t-69.5 22.5l-34 4l-28 1l-70 72l52 53q15 16 31.5 31t84.5 70l-83 -33l-21 -2q-36 0 -71 28q-15 11 -22 20t-10 17
l-2 6q-2 6 -3.5 14t-1.5 17l3 32l20 44h-71l-39 40h580l40 -40h-119l1 -411v0v-218z" />
    <glyph glyph-name="uni099909CD0995.half" horiz-adv-x="635" 
d="M525 571l18 -46l3 -23q0 -29 -27 -44q-2 -2 -8 -4t-15 -4q-9 0 -15 -1t-8 -2q-35 0 -73 38l-32 35l-47 51h-187q32 -23 38.5 -29t11.5 -15l7 -23l59 -9q37 0 81 -29q10 -6 20 -16t19 -26q15 -20 25 -63q13 0 17 -1l42 -15q107 -47 122 -152l2 -22q0 -37 -24 -61
q-24 -22 -49 -22q-11 0 -19.5 3.5t-14.5 9.5l-13 19l-4 17q0 18 13 34l7 6l28 5q18 0 29 -9l30 -39l3 39q0 19 -12 38q-8 19 -23.5 34t-37.5 26l-30 15l-22 4l-44 2v-336l-4 3l-11 25l-13 24q-4 12 -13 22q-5 7 -15.5 17t-24.5 22l-37 27l-38 23q-13 6 -23.5 10t-20.5 6
t-21.5 3.5t-19.5 1.5l-68 79l68 44q41 26 90 49.5t110 48.5q0 43 -22 67t-55 36l-34 -2q-24 0 -51 -36l3 -25q1 -9 -3.5 -20.5t-14.5 -22.5t-24.5 -18t-31.5 -8q-14 0 -30.5 6t-23.5 17q-6 15 -9 31l3 34q3 15 30 40q8 6 21.5 13.5t38.5 17.5l6 11l-2 8q-13 25 -33.5 41
t-56.5 20h-58l-41 40h647l42 -40h-130zM355 292l-63 -26l-46 -23l-81 -51q39 -16 56.5 -25.5t30.5 -20.5l34 -31q15 -11 23.5 -19.5t11.5 -13.5l34 -48v258zM343 571l42 -46l33 -28q7 -4 17 -6t23 -5l15 1q24 6 36.5 18t13.5 28q0 14 -7 22l-11 16h-162z" />
    <glyph glyph-name="uni099909CD099509CD09F0.half" horiz-adv-x="625" 
d="M346 571l41 -46l32 -28q8 -5 18 -6.5t23 -4.5l15 1q24 6 36.5 17.5t13.5 28.5q0 14 -7 22l-11 16h-161zM357 292l-63 -26l-46 -23l-81 -51q40 -16 57 -25.5t29 -20.5l36 -31q14 -12 22.5 -19.5t12.5 -13.5l33 -51v261zM397 126l1 -1v-219l4 -4l-9 10l-19 31l-16 20
l-19 16l-23 14l-39 6l-35 -1l-41 -5l-47 -4l-32 1l-32 9q-8 4 -17.5 10.5t-17.5 18.5l-15 22q-2 5 -5 11l-6 16q-6 20 -9 37.5t-3 31.5l1 19l2 46v4l23 -21l-6 -8l-4 -30l-2 -24q0 -25 15 -42q6 -6 14 -11.5t21 -11.5l22 -8l27 -6l42 -2h55l21 -2l22 -5l21 -4q7 0 21 -8
t30 -23l9 -12l26 -46v43l-8 14q-4 13 -13 21q-5 7 -15.5 17.5t-24.5 23.5l-38 26l-37 23q-13 6 -23.5 10t-20.5 6t-21 3.5t-19 1.5l-70 79l69 44q42 26 90.5 49.5t109.5 48.5q0 43 -22 67t-55 36l-34 -2q-24 0 -51 -36l3 -26q2 -8 -3.5 -19.5t-15 -22.5t-24 -18t-31.5 -8
q-13 0 -29.5 6t-24.5 18q-6 14 -10 30l4 34q3 15 31 40q7 7 20.5 14t38.5 17l6 11l-3 8q-12 26 -32.5 41.5t-55.5 19.5h-59l-41 40h647l42 -40h-130l18 -46l3 -23q0 -29 -27 -44q-2 -2 -8 -3.5t-14 -4.5q-10 0 -16 -1t-8 -2q-35 0 -73 38l-33 35l-46 51h-183q27 -23 34 -29
t12 -15l7 -23l59 -9q37 0 82 -28q10 -7 19.5 -17t19.5 -25q14 -21 24 -64q13 0 16 -1l43 -15q107 -47 122 -152l2 -21q0 -39 -24 -62q-24 -22 -49 -22q-11 0 -19.5 3.5t-14.5 8.5l-14 20l-3 17q0 17 13 34l7 6l28 5q18 0 30 -9l29 -39l3 39q0 19 -11 39q-10 18 -25 33
t-38 26l-29 15l-22 4l-44 1v-165z" />
    <glyph glyph-name="uni099909CD0996.half" horiz-adv-x="900" 
d="M459 230q0 -26 -14 -52q-6 -15 -13 -25t-16 -18q-10 -10 -23.5 -19t-29 -16t-31.5 -11t-29.5 -4t-26.5 1t-26 4q-11 3 -22.5 9.5t-24.5 14.5l-30 21l-31 33l-27 38l-20 35l-25 58l-19 73l-7 37l-5 41l-6 37v11l12 -9l12 -56l10 -42l20 -51q4 -12 8.5 -23t15.5 -26l22 -40
l23 -27q20 -22 49 -44l40 -25l28 -9l26 -2l24 2q10 1 18 3.5t16 6.5l25 17q27 14 43 64q4 11 4 27q0 19 -6 29q-10 28 -36 54l-24 -32l-35 -30q-8 -6 -18 -9t-24 -3q-40 0 -74 26q-36 30 -36 86v30q0 10 0.5 17.5t1.5 14.5l5 25l12 31l14 35q1 4 3 8t16 25h-210l-42 40h364
q22 0 40 -2.5t32 -8.5t23 -14.5t12 -16.5l8 -34v-3q1 -3 1 -4v-17q37 5 50 13l55 47l33 32l30 -26l35 -31q7 -7 16.5 -21t20.5 -33q5 -10 7.5 -20.5t2.5 -22.5q0 -30 -15.5 -60.5t-53.5 -56.5l-31 -19l-46 -18l57 -31l36 -25q32 -26 64 -61q13 -13 22.5 -27t35.5 -57v618
l15 -10l3 -32l7 -41q4 -6 10 -9.5t15 -8.5h55l41 -40h-107v-591l3 -2l-10 18l-10 19l-8 22l-19 37l-14 23l-25 32q-22 26 -54 47q-43 27 -89.5 43.5t-91.5 22.5l-45 55q6 -42 7 -50t1 -17zM433 440q-17 0 -31.5 5t-28.5 17l-27 -3q-13 0 -27.5 3t-27.5 7.5t-22 9.5t-21 23
l-20 -40l-13 -39l-5 -34q0 -5 1.5 -15t5.5 -32q8 -26 51 -26q13 0 27.5 5t28.5 15q19 13 29 33l11 23q33 -13 61 -49l17 -1l45 4l47 10q31 9 56 22.5t44 31.5q30 29 30 56q0 23 -7.5 37.5t-33.5 34.5l-57 -53l-33 -18l-48 -18q-33 -9 -52 -9zM323 578q-9 -3 -17 -6t-15 -8
l-23 -19l-8 -21q0 -12 16 -27q13 -7 49 -12l32 -1v17l1 28q0 3 2.5 7t7.5 10q5 8 18 16v16l-35 2q-11 0 -18 -0.5t-10 -1.5z" />
    <glyph glyph-name="uni099909CD0997.half" horiz-adv-x="616" 
d="M429 571q21 -22 23 -31q0 -11 -2 -20t-5.5 -16t-10 -12t-17.5 -11l-27 -10h-3h-7q-5 0 -10 1t-10 3q-10 5 -19 10t-18 12l-39 39l-28 34l-25 2l-33 -1q-17 0 -17 -27q0 -10 0.5 -16t2.5 -11l6 -12l9 -4l12 -2l40 -15q5 -1 11 -6t14 -12l6 -10l26 -36q10 -26 10 -87l48 59
l12 14l21 17l52 40q18 13 41 22l84 -55l-53 -53q-5 -7 -12.5 -18t-15.5 -26l-33 -71l-15 -51l-7 -47l-3 -41q0 -19 1.5 -34.5t4 -29.5t7.5 -28.5t12 -30.5l11 -24l6 -11l-19 9l-26 79l-15 64l-5 74q0 23 3 45t8.5 44t14 45t67.5 149q-68 -96 -74 -104t-16 -19l-71 -82
q-40 -53 -67 -80q-44 -41 -90 -56q-48 0 -81 47q-3 5 -16 38q-2 6 -3 13t-3 15l2 4l9 8q12 -57 56 -57l23 6q18 4 39 21l53 56l20 28l7 39q0 36 -12 57t-33 29l-23 5q-14 0 -36 -17v-30l-2 -8q0 -5 -10 -18q-16 -19 -43 -19q-33 0 -50.5 17.5t-17.5 51.5l5 31q3 7 5 11.5
t4 5.5l29 23l15 6l15 2h18v19l-31 54h-125l-39 40h632l41 -40h-208zM268 571l31 -42l23 -22q24 -18 41 -18q14 0 26 9q24 22 24 47q0 8 -1 12.5t-5 13.5h-139z" />
    <glyph glyph-name="uni099909CD09AE.half" horiz-adv-x="906" 
d="M799 571v-598l-6 6l-15 52q-5 15 -11.5 29t-14.5 27q-6 15 -14 25.5t-16 16.5q-20 19 -38.5 33t-33.5 23l-38 21v-19l-5 -5l-26 -22l-30 -16l-31 -4q-20 0 -37.5 6t-36.5 24q-15 -28 -28 -39q-10 -10 -23.5 -19t-29 -16t-31.5 -11t-29.5 -4t-26.5 1t-26 4q-11 3 -22.5 9
t-24.5 15l-31 21l-31 32l-26 39l-20 35l-25 58l-19 73l-7 37l-6 40l-5 38v11l12 -9l12 -56l10 -42l20 -52q4 -12 8.5 -22.5t14.5 -26.5l23 -39l23 -27q20 -22 49 -44l40 -25l28 -9l26 -2l24 2q10 1 18 3.5t16 5.5l25 18q27 13 43 64q4 10 4 27q0 19 -6 29q-10 28 -36 53
l-24 -32l-35 -29q-8 -5 -18 -8.5t-24 -3.5q-40 0 -74 26q-36 30 -36 86v30q0 9 0.5 17t1.5 14l5 26l12 31l14 35q1 5 3.5 9.5t11.5 27.5h-206l-42 40h904l42 -40h-125zM762 571h-315l100 -87l28 -26q6 -6 12.5 -15.5t14.5 -23.5q8 -13 13.5 -25t9.5 -24l10 -44q4 -13 6 -23
t2 -17l-4 -28l25 -23q4 -10 21 -23l36 -45l41 -55v459zM441 486q-11 -11 -20 -16l-35 -10l-38 -5q-13 0 -28 3t-27.5 7.5t-21.5 9.5t-21 24l-20 -41l-13 -39l-5 -34q0 -6 1.5 -15.5t5.5 -31.5q8 -27 51 -27q13 0 27.5 5.5t28.5 16.5q19 12 29 32l11 23q45 -18 73 -67l4 -9
q2 -4 9 -20q15 13 21 16.5t13 5.5l31 8l26 2q31 0 53 -35q0 55 -2.5 72.5t-10.5 33.5t-21 31t-35 31l-80 29h-6zM326 574q-10 -3 -18 -5.5t-16 -8.5l-22 -19l-8 -21q0 -13 16 -27q13 -7 49 -12l36 -1l21 1l21 15q-12 10 -15 13l-13 10l-19 21l-12 26l-9 11q-10 -3 -11 -3z
" />
    <glyph glyph-name="uni099909CD09F0.blwf" horiz-adv-x="566" 
d="M411 521q-9 17 -33 17q-8 0 -15 -1t-14 -4l-20 -5q-29 -9 -51 -31q-11 -8 -19 -22t-16 -35q10 -18 43 -18l34 4q22 3 39 11.5t29 19t19 22.5t7 25q0 10 -3 17zM437 0v-212l3 -3l-10 10l-20 31l-17 20l-20 16l-25 14l-42 6l-37 -1l-44 -5l-50 -4l-36 1l-34 10
q-9 3 -19 9.5t-18 18.5l-16 23q-3 4 -6 10l-7 16q-6 20 -9 37.5t-3 31.5l1 19l2 46l1 5l25 -22l-5 -8l-6 -30l-2 -24q0 -25 16 -42q7 -6 15.5 -11.5t22.5 -11.5l23 -8l29 -6l45 -2h58l24 -2l23 -5l23 -4q8 0 23 -8t32 -23l9 -12l27 -42v151q-39 -10 -71 -10l-25 2l-24 3
q-27 4 -54 17.5t-53 36.5t-48.5 54t-39.5 67l-24 54l-21 63l-13 56l-10 60l-8 58l10 -8q9 -48 17 -79.5t13 -42.5l29 -71q15 -31 33.5 -59t39 -51.5t44 -41.5t49.5 -26q36 -13 73 -13q62 0 105 29q52 37 52 101q0 39 -45 90l-17 -27l-9 -8l-42 -32l-52 -34q-5 -2 -12 -4
t-14 -2q-10 0 -21 5t-24 15l-19 14l-17 24q-14 22 -15 34v150l-36 26l-22 19l-44 38l-29 33l-17 20l-10 14l67 18l46 -86l15 -18l26 -23q13 35 21 49.5t16 24.5q17 19 57 39q24 11 52 11q30 0 57 -13q24 -10 36 -35q6 -23 6 -43q0 -50 -48 -71q-47 -22 -100 -22
q-35 0 -58 35v-141q0 -20 10.5 -33.5t34.5 -17.5q27 0 52 21l37 37l23 27l14 24q20 -8 43 -28.5t39 -51.5q15 -30 22.5 -59t7.5 -61q0 -70 -43 -116q-15 -16 -38 -30z" />
    <glyph glyph-name="uni099A09CD099E.akhn" horiz-adv-x="930" 
d="M19 269q1 4 3 8t7 11l-1 283h-50l-42 40h230l39 -40h-143l7 -42q2 -9 6 -18t11 -16q6 -8 11 -14t18 -16l29 -21l19 -9l23 -7l44 -11l17 -5q13 54 73 110l57 45l42 20q16 7 28 11.5t20.5 5.5t16.5 1h12l28 -14q30 -12 40 -26l18 -25q6 -8 6 -22v-171l38 75q13 30 35 48
q29 34 56 53q35 22 65 22q37 0 75 -37q24 -20 35 -45t11 -49q0 -32 -12 -60t-36 -54l35 -75q6 -19 9 -34t3 -24v-17l-6 -24q0 -7 -4 -14l-10 -19q-23 -31 -61 -31q-19 0 -40.5 7.5t-47.5 22.5q-19 12 -38 26.5t-39 35.5q-13 7 -31 30l-35 43v-252l-11 8q-3 2 -12 28
q-7 32 -29 58q-4 6 -11.5 13t-16.5 14t-18.5 12.5t-18.5 6.5l-28 1q-12 0 -20.5 -0.5t-13.5 -1.5l-39 -11l-77 -27l-49 -15q-19 -6 -33.5 -8.5t-25.5 -2.5l-26 1q-34 0 -64 13q-14 7 -28.5 21t-29.5 36q-2 3 -4 8l-5 14q-3 8 -5.5 15.5t-4.5 12.5l-5 45v34zM27 248
q0 -38 19 -76q20 -29 49 -41l27 -7l27 -3q24 0 55 8l141 38l15 3l40 3q30 0 43 -4q15 -4 26 -12q12 -8 20.5 -15t15.5 -15l43 -40v421l-7 24q-5 26 -38 26q-10 0 -18.5 -2.5t-18.5 -8.5l-36 -22l-33 -31l-29 -31q-27 -29 -41 -90q36 5 54.5 -4.5t27.5 -32.5l3 -25
q0 -10 -12 -24l-18 -19l-18 -7l-19 -1q-35 0 -59 24q-12 12 -38 74l-14 -36l-11 -18q-12 -17 -26.5 -31t-30.5 -24t-32 -15.5t-30 -5.5q-19 0 -25 10l-11 6l-37 49zM855 156q8 12 11 22t3 18q0 15 -12 32l-25 32l-35 -14l-27 -5q-18 0 -36 15q-8 9 -12 17.5t-4 23.5
q0 19 18 38q20 17 41 17q6 0 12.5 -1.5t16.5 -5.5q5 -1 10 -9l17 8q26 20 26 51q0 11 -4.5 24t-14.5 26q-29 38 -65 38q-17 0 -32 -7q-10 -3 -19.5 -9t-19.5 -12q-40 -27 -75 -73t-35 -83l3 -31q0 -20 31 -62q14 -18 33.5 -33.5t45.5 -29.5q44 -19 80 -19q44 0 68 32z
M161 402q-5 1 -10 4t-11 8q-28 16 -29 20l-47 52l-1 -180q0 -14 9.5 -28t29.5 -14q10 0 24 7l27 15l18 20q19 23 23 39l7 46z" />
    <glyph glyph-name="uni099A09CD09F0.blwf" horiz-adv-x="465" 
d="M305 336q-12 5 -19 8t-10 8q-27 15 -46.5 28t-29.5 23q-12 11 -23.5 26.5t-42.5 69.5v-376q0 -17 5.5 -28t27.5 -16q9 0 19 3.5t23 9.5q16 10 28.5 19t23.5 19l49 55q5 5 14 19t19 35q11 29 11 51v13l-3 18zM407 224v-420l-3 1l-8 9l-18 28l-15 20l-20 14l-21 13l-38 5
h-34l-39 -5l-46 -4l-31 1l-31 8q-8 4 -16.5 10t-16.5 17l-15 22q-2 3 -5 8l-6 15q-5 19 -8 35.5t-3 28.5l1 17l2 44v2l21 -18l-4 -7l-6 -28l-1 -23q0 -23 14 -39q6 -6 14 -11t21 -10l21 -8l26 -6l40 -2h53l22 -2l20 -4l21 -4q6 0 20 -7.5t29 -20.5l8 -11l26 -46v327
q-33 -46 -49 -63q-26 -30 -51.5 -50t-50 -30.5t-47.5 -10.5l-13 1q-21 2 -48 39t-27 63v449h-91l-39 40h489l41 -40h-362q0 -16 0.5 -19.5t2.5 -6.5l7 -20l7 -20q7 -10 14.5 -18.5t17.5 -16.5l28 -20q18 -13 58 -27l111 -39q16 -9 27 -24.5t17 -30.5l3 -19q0 -11 -0.5 -18
t-1.5 -10l-11 -37q-2 -10 -6 -21z" />
    <glyph glyph-name="uni099B09CD09F1.blwf" horiz-adv-x="542" 
d="M459 -208l-10 8l-17 14l-37 19q-13 7 -30.5 12.5t-44.5 9.5l-40 1l-36 43l25 15l35 23l30 16l32 11q10 4 17.5 6.5l13.5 4.5l12 3l35 11q-46 24 -67 33t-47 18l-72 23q-25 6 -54.5 12t-59.5 10l-45 84q9 -2 34.5 -7t47.5 -5l37 1l44 8q11 2 18.5 4t14 4.5t14.5 7.5l15 9
q14 9 37.5 27t56.5 48l21 24q6 11 9.5 21.5t5.5 22.5q0 28 -22 61l-50 15l-51 10l5 -36q0 -30 -26.5 -61t-75.5 -60q-38 -24 -72 -24l-21 4q-11 3 -22 10t-20 16.5t-14 19.5t-5 19v263h-78l-37 40h545l39 -40h-438q12 -32 18.5 -43t11.5 -16q9 -10 69 -39q13 -5 29 -7.5
t36 -2.5h21l22 5l14 2h12q55 0 97 -51q43 -52 43 -116v-17t-1 -11.5t-3 -13.5l-6 -20q-5 -11 -12 -21.5t-18 -19.5q-17 -17 -71 -50l-34 -22l-51 -17l76 -37l26 -15q4 -1 8.5 -4t10.5 -8q13 -8 37 -28t59 -54l62 -62l2 -12q-36 38 -113 90l1 -188zM234 427q-25 6 -43 22
l-37 20l-35 57v-208q0 -26 9 -35q9 -6 28 -6q14 2 23.5 6t16.5 9l19 15q60 44 60 85l-2 21zM427 -57q-21 0 -28.5 -1t-12.5 -2l-29 -9l-20 -10q-8 -3 -16 -9.5t-31 -31.5l50 -2l25 -4l20 -4l42 -28v101z" />
    <glyph glyph-name="uni099B09CD09F0.blwf" horiz-adv-x="542" 
d="M569 -109q8 -9 -6.5 5t-45.5 40v-113q14 -26 1 -18q-7 0 -12 6l-42 55q-13 10 -29 18.5t-37 16.5l-27 6l-24 1l-63 -6l-95 -2l-44 1l-40 9q-26 8 -47 30l-24 28q-5 7 -10 21q-8 21 -11.5 40.5t-3.5 38.5q0 11 0.5 17t1.5 9l6 41l-1 -2l25 -20q-6 -3 -6 -35l-1 -18
q0 -12 2.5 -23.5t10 -21.5t20 -18.5t32.5 -16.5l58 -16l54 -3h71q9 0 15 -0.5t11 -1.5q9 0 18.5 -1.5t20.5 -4.5q22 -3 41 -11q19 -7 32.5 -15t22.5 -16l40 -50v101q-77 52 -153 77l-72 23q-25 7 -54.5 13t-59.5 10l-45 84q9 -3 34.5 -7.5t47.5 -4.5l37 1l44 7
q11 2 18.5 4.5t14 5t14.5 6.5l15 10q14 8 37.5 26.5t56.5 47.5l21 25q6 10 9.5 20.5t5.5 23.5q0 27 -22 61l-50 14l-51 10l5 -35q0 -31 -26.5 -62t-75.5 -59q-38 -24 -72 -24l-21 3q-11 3 -22 10.5t-20 16.5t-14 19t-5 19v264h-79l-37 40h553l37 -40h-440q13 -31 17 -42.5
t10 -16.5q9 -10 69 -39q13 -5 29 -7.5t35 -2.5h22l22 5l14 2h12q55 0 97 -52q43 -52 43 -116v-16t-1 -12t-3 -13l-6 -20q-5 -11 -12 -21.5t-18 -20.5q-17 -17 -71 -50l-34 -21l-51 -17l76 -37l26 -15q4 -1 8.5 -4t10.5 -8q13 -8 37 -28.5t59 -54.5l62 -62zM234 426
q-25 6 -43 23l-37 20l-35 57v-208q0 -27 9 -35q9 -6 28 -6q14 2 23.5 6t15.5 9l20 14q60 44 60 86l-2 21z" />
    <glyph glyph-name="uni099C09CD099C.akhn" horiz-adv-x="931" 
d="M328 571q-27 5 -30 -22v-30q11 -17 29.5 -26.5t44.5 -15.5l52 -11l34 -3l29 2q6 0 17 2t24 6t27 9.5t17 8.5l5 -7q13 -18 25.5 -30.5t26 -21.5t29 -15t35.5 -11l67 -7l42 13l31 9l65 -74q-16 -20 -33.5 -48.5t-30 -57.5t-19.5 -57t-7 -53v-55l7 -71l8 -64l-19 8l-8 23
l-7 31l-6 44l-5 42l-3 37l4 49q2 10 3 21t3.5 24.5t8.5 32t17 45.5l18 47h-69q-17 3 -24 5q-25 5 -44 14l-39 18q-6 2 -11.5 5.5t-16.5 13.5q-20 13 -42 39l-47 -35q-17 -16 -27.5 -30t-18.5 -28l-3 -29q0 -24 16 -36q17 -7 42 -7q13 0 29 6.5t34 18.5q30 21 35 19
q38 -26 50 -48l15 -43l3 -17l1 -14q0 -19 -5 -38.5t-14 -37t-21.5 -31t-26.5 -21.5q-8 -3 -26 -8.5t-41 -5.5h-15l-16 2q-18 2 -31.5 6.5t-24.5 10.5l-47 40q-8 6 -14.5 14t-13 18.5t-12 24.5t-25.5 68q-10 -56 -18.5 -70.5t-21 -24t-28 -14.5t-32.5 -5q-29 0 -52.5 4.5
t-42.5 13.5l-42 27q-30 22 -54 58q-18 32 -30 65l-21 71l-9 48l-11 95l18 -9l6 -41q5 -28 10.5 -49t11.5 -35l31 -63q17 -32 31 -52.5t26 -30.5q54 -40 100 -40l17 1q48 8 76 40q21 24 21 57q0 10 -3.5 20.5t-8 18t-11.5 13.5t-17 6q-7 -2 -18 -6.5t-25 -14.5
q-12 -8 -23 -11t-19 -3q-16 0 -26 4q-37 11 -56 40.5t-19 78.5q0 20 2.5 33.5t10.5 31.5q14 32 68 75h-216l-39 40h948l40 -40h-625zM670 194q9 5 0 27q-3 10 -8 17t-16 19l-43 -23l-37 -12l-32 3q-51 13 -70 60q-4 14 -6 25.5t-2 18.5q0 15 0.5 23.5t1.5 13.5t3 10.5
l6 16.5l5 27l-52 5q-14 0 -39.5 10.5t-65.5 34.5l-15 12l-16 15q-8 9 -13 15.5t-13 23.5l-51 -40q-36 -49 -36 -94q0 -38 47 -38q21 0 43.5 8.5t51.5 30.5l9 3q2 0 5.5 -2t8.5 -6l27 -28q19 -25 24 -63l10 -54q4 -22 18.5 -44t39.5 -45q50 -47 107 -52l14 -1q36 0 60.5 18
t32.5 51z" />
    <glyph glyph-name="uni099C09CD099C09CD09F1.akhn" horiz-adv-x="924" 
d="M809 -154l-8 8l-19 14l-36 20q-12 7 -30.5 12.5t-44.5 8.5l-40 3l-37 43l25 19l33 22l29 17l31 14q36 14 72 17l-6 45l-3 37l4 49q2 10 3 21t3.5 24.5t8.5 32t17 45.5l18 47h-69q-17 3 -24 5q-25 5 -44 14l-39 18q-6 2 -11.5 5.5t-16.5 13.5q-20 13 -42 39l-47 -35
q-17 -16 -27.5 -30t-18.5 -28l-3 -29q0 -24 16 -36q17 -7 42 -7q13 0 29 6.5t34 18.5q30 21 35 19q38 -26 50 -48l15 -43l3 -17l1 -14q0 -19 -5 -38.5t-14 -37t-21.5 -31t-26.5 -21.5q-8 -3 -26 -8.5t-41 -5.5h-15l-16 2q-18 2 -31.5 6.5t-24.5 10.5l-47 40q-8 6 -14.5 14
t-13 18.5t-12 24.5t-25.5 68q-10 -56 -18.5 -70.5t-21 -24t-28 -14.5t-32.5 -5q-29 0 -52.5 4.5t-42.5 13.5l-42 27q-30 22 -54 58q-18 32 -30 65l-21 71l-9 48l-11 95l18 -9l6 -41q5 -28 10.5 -49t11.5 -35l31 -63q17 -32 31 -52.5t26 -30.5q54 -40 100 -40l17 1
q48 8 76 40q21 24 21 57q0 10 -3.5 20.5t-8 18t-11.5 13.5t-17 6q-7 -2 -18 -6.5t-25 -14.5q-12 -8 -23 -11t-19 -3q-16 0 -26 4q-37 11 -56 40.5t-19 78.5q0 20 2.5 33.5t10.5 31.5q14 32 68 75h-216l-39 40h933l39 -40h-609q-27 5 -30 -22v-30q11 -17 29.5 -26.5
t44.5 -15.5l52 -11l34 -3l29 2q6 0 17 2t24 6t27 9.5t17 8.5l5 -7q13 -18 25.5 -30.5t26 -21.5t29 -15t35.5 -11l67 -7l42 13l31 9l65 -74q-16 -20 -33.5 -48.5t-30 -57.5t-19.5 -57t-7 -53v-284zM670 194q9 5 0 27q-3 10 -8 17t-16 19l-43 -23l-37 -12l-32 3q-51 13 -70 60
q-4 14 -6 25.5t-2 18.5q0 15 0.5 23.5t1.5 13.5t3 10.5l6 16.5l5 27l-52 5q-14 0 -39.5 10.5t-65.5 34.5l-15 12l-16 15q-8 9 -13 15.5t-13 23.5l-51 -40q-36 -49 -36 -94q0 -38 47 -38q21 0 43.5 8.5t51.5 30.5l9 3q2 0 5.5 -2t8.5 -6l27 -28q19 -25 24 -63l10 -54
q4 -22 18.5 -44t39.5 -45q50 -47 107 -52l14 -1q36 0 60.5 18t32.5 51zM778 -3q-20 0 -28.5 -0.5t-12.5 -2.5l-28 -8l-21 -10q-8 -4 -15.5 -10t-31.5 -30l50 -3l25 -3l20 -5l42 -27v99z" />
    <glyph glyph-name="uni099C09CD099D.akhn" horiz-adv-x="795" 
d="M395 571l-44 -24q-10 -44 38 -75l39 -15l47 -6l18 1l23 1q11 1 31 10l32 9l49 -73q-45 -55 -46 -236v-359l-22 8q-19 39 -39 61q-58 66 -131 66l-36 62l102 77q66 48 80 48l13 7q-5 127 7.5 183.5t23.5 82.5l-26 5l-35 -1q-20 0 -51 4q-26 5 -49.5 14t-43 21t-30.5 26
l-35 46q-18 20 -64 -33q-33 -44 -51 -94l-1 -10v-6q0 -52 55 -52l19 4q12 0 34 12l50 25l19 9q6 3 10 -1q7 0 16 -8l16 -22q10 -11 18 -27t16 -38q17 -44 17 -69q0 -17 -5 -26q-12 -47 -33 -68q-8 -8 -21.5 -17t-30.5 -17q-14 -6 -32.5 -10.5t-32.5 -4.5q-47 0 -94 24
q-20 11 -39.5 29.5t-38.5 44.5q-21 29 -42 73l-18 51q-8 21 -13 47q-5 27 -8 60l-2 56l-1 48v11l-2 -12l10 -7l9 -11q4 -7 4 -28v-24q0 -31 4 -46l19 -69q19 -57 63 -98q27 -24 45.5 -38t33.5 -20.5t28 -7.5t29 -3q24 0 47.5 6t47.5 18q50 27 50 69q0 17 -8 32q-5 23 -34 27
l-17 -4l-50 -19l-28 -5h-15q-12 0 -26 3t-28 10q-12 8 -25 22.5t-28 35.5q-20 34 -20 72q0 26 8 44q6 15 14 28q10 17 27 38l50 53h-268l-40 40h825l40 -40h-423zM549 83q-42 -24 -61 -38l-32 -24l-52 -50q59 -9 89 -30q11 -7 20 -16t35 -42zM733 -189l2 -2q0 9 -16 43
l-20 48q-10 20 -20.5 34.5t-22.5 25.5q-10 9 -26 19.5t-32 18.5v50l11 -8l25 -20q13 -11 23 -24t37 -64v641l34 13z" />
    <glyph glyph-name="uni099C09CD099E.akhn" horiz-adv-x="806" 
d="M359 571l-5 -33v-32l9 -36q10 -39 15 -46l19 -33q20 -28 42 -28q14 0 29 15l12 14q28 32 53 49l30 20q11 8 27 11l25 2q26 0 51 -7q12 -2 20 -5t15 -9q21 -13 31 -32l15 -34q3 -8 5 -14t2 -13q0 -8 -7 -27q-6 -14 -12.5 -24.5t-11.5 -15.5l-33 -23l24 -44l15 -29l8 -21
l5 -28q0 -23 -17.5 -42t-43.5 -30l-25 -6l-26 -2l-38 3q-9 2 -14.5 4t-9.5 5q-20 13 -35.5 25t-25.5 24q-6 7 -15 24.5t-35 74.5q-9 -44 -10.5 -53.5t-7.5 -22.5q-4 -9 -11 -19t-19 -23q-39 -42 -109 -42q-20 0 -42 5t-43.5 15.5t-42 26.5t-37.5 37l-33 46q-17 28 -24 48
l-20 66l-19 89l-16 80l22 -11l10 -63l12 -54q2 -12 8 -28.5t14.5 -35t20.5 -38t27 -36.5q12 -14 25 -27t28 -25q35 -28 61 -37l27 -3q51 0 99 35q51 34 51 86q0 13 -4.5 26t-13.5 26q-8 12 -46 -12q-14 -11 -36.5 -18.5t-49.5 -7.5q-13 0 -24 0.5t-20 2.5t-17.5 7.5
t-17.5 14.5l-23 35q-8 18 -12 33.5t-4 29.5q0 45 28 96q27 52 82 94h-268l-39 40h826l39 -40h-469zM713 179q0 11 -3 19.5t-7 16.5q-3 7 -9 15t-21 24q-34 -26 -65 -26q-21 0 -33 10q-13 13 -13 30q0 12 6 28q16 37 51 37q9 0 18 -5.5t24 -23.5q49 44 49 71q0 9 -6 18.5
t-18 20.5q-22 13 -38 19t-30 6q-22 0 -40 -10q-41 -20 -87 -68q-38 -38 -41 -59q0 -22 8 -47.5t26 -53.5q17 -25 38 -44.5t47 -33.5q17 -7 31.5 -10.5t29.5 -3.5q24 0 43.5 10t33.5 35zM347 428q-17 26 -26 43t-12 34l-43 -11q-71 -55 -71 -103q0 -39 11.5 -62.5t46.5 -23.5
q8 0 15.5 1t14.5 4q35 10 56 23l46 36z" />
    <glyph glyph-name="uni099C09CD09F1.blwf" horiz-adv-x="710" 
d="M395 571l-44 -24q-10 -44 38 -75l39 -15l47 -6l18 1l23 1q11 1 31 10l50 17l52 -53l27 -28q-16 -16 -49 -71q-41 -70 -41 -127l-4 -38v-359l-22 8q-19 39 -39 61q-58 66 -131 66l-36 62l102 77q66 48 80 48l13 8l-7 41l-3 41q0 39 14 98q8 33 11 41q5 18 16 44l-26 5
l-35 -1q-20 0 -51 4q-26 5 -49.5 14t-43 21t-30.5 26l-35 46q-18 20 -64 -33q-33 -44 -51 -94l-1 -10v-6q0 -52 55 -52l19 4q12 0 34 12l50 25l19 9q6 3 10 -1q7 0 16 -8l16 -22q10 -11 18 -27t16 -38q17 -44 17 -69q0 -17 -5 -26q-12 -47 -33 -68q-8 -8 -21.5 -17
t-30.5 -17q-14 -6 -32.5 -10.5t-32.5 -4.5q-47 0 -94 24q-20 11 -39.5 29.5t-38.5 44.5q-21 29 -42 73l-18 51q-8 21 -13 47q-5 27 -8 60l-2 56l-1 48v11l-2 -12l10 -7l9 -11q4 -7 4 -28v-24q0 -31 4 -46l19 -69q19 -57 63 -98q27 -24 45.5 -38t33.5 -20.5t28 -7.5t29 -3
q24 0 47.5 6t47.5 18q50 27 50 69q0 17 -8 32q-5 23 -34 27l-17 -4l-50 -19l-28 -5h-15q-12 0 -26 3t-28 10q-12 8 -25 22.5t-28 35.5q-20 34 -20 72q0 26 8 44q6 15 14 28q10 17 27 38l50 53h-268l-40 40h718l40 -40h-316zM549 83q-42 -24 -61 -38l-32 -24l-52 -50
q59 -9 89 -30q11 -7 20 -16t35 -42z" />
    <glyph glyph-name="uni099C09CD09F0.blwf" horiz-adv-x="710" 
d="M576 -135q14 -26 1 -18q-4 0 -6 1.5l-6 4.5l-40 55q-14 10 -30.5 18.5t-37.5 16.5l-26 6l-25 1l-62 -6l-96 -2l-43 1l-41 10q-12 3 -24 10t-23 19l-33 29q-5 6 -10 20q-8 21 -11.5 41.5t-8.5 40.5q-2 10 -2.5 16t-1.5 11l-5 27l-2 5l19 -11q1 -7 7 -21l9 -24l6 -17
q4 -12 9 -22.5t13 -20.5t20.5 -18t31.5 -16l59 -16l54 -3h71q9 0 15 -0.5t11 -1.5q9 0 18 -1.5t21 -4.5q22 -3 40 -10q19 -8 33 -16t22 -16l40 -49l1 90l2 119l-3 61l-3 42q0 39 15 98q4 22 9.5 40.5t16.5 44.5l-26 5l-35 -1q-24 0 -50.5 5t-50 13.5t-43 20.5t-30.5 26
l-35 46q-18 20 -64 -33q-33 -44 -51 -94l-1 -10v-6q0 -52 55 -52l19 4q12 0 34 12l69 34q6 3 10 -1q7 0 16 -8l16 -22q10 -11 18 -27t16 -38q17 -44 17 -69q0 -17 -5 -26q-12 -47 -33 -68q-8 -8 -21.5 -17t-30.5 -17q-14 -6 -32.5 -10.5t-32.5 -4.5q-47 0 -94 24
q-20 11 -39.5 29.5t-38.5 44.5q-21 29 -42 73l-18 51q-8 20 -13 47t-8 60l-2 56l-1 48v11l-2 -12l10 -7l9 -11q4 -7 4 -28v-24q0 -31 4 -46l19 -69q19 -57 63 -98q27 -24 45.5 -38t33.5 -20.5t28 -7.5t29 -3q24 0 47.5 6t47.5 18q50 27 50 69q0 17 -8 32q-5 23 -34 27
l-17 -4l-50 -19l-28 -5h-15q-12 0 -26 3t-28 10q-12 8 -25 22.5t-28 35.5q-20 34 -20 72q0 26 8 45q3 11 13.5 27.5t27.5 37.5l50 53h-268l-40 40h728l39 -40h-325l-44 -24q-10 -44 38 -75l39 -15l47 -6l18 1l22 1q10 0 32 10l50 17l52 -53l27 -28q-16 -16 -49 -71
q-41 -70 -41 -127l-5 -45v-31q0 -27 -3 -62t-3 -75l1 -3v-120z" />
    <glyph glyph-name="uni099D09CD09F0.blwf" horiz-adv-x="648" 
d="M378 451q-28 -10 -47 -17.5t-42 -19.5l-72 -41l-31 -20l-49 -33q43 -18 58.5 -27t26.5 -18l36 -31l27 -26l29 -35q14 -17 25 -33t39 -68v369zM414 -10v-37l-6 6l-20 31l-16 20l-19 16l-24 14l-40 6l-36 -1l-42 -5l-48 -4l-34 1l-32 9q-9 4 -18.5 10.5t-17.5 18.5l-16 22
q-2 5 -5 11l-7 16q-5 20 -8 37.5t-3 31.5l1 19l1 46l1 5l24 -22l-5 -8l-6 -30l-2 -24q0 -25 16 -42q6 -6 14.5 -11.5t21.5 -11.5l23 -8l27 -6l43 -2h56l23 -2l22 -5l22 -4q7 0 21.5 -8t30.5 -23l9 -12l63 -99l-42 104q-5 13 -16 30t-28 39q-33 41 -62 67t-58 40.5t-56.5 21
t-50.5 7.5l-71 88l23 15l31 22q18 11 33 20l25 16l53 30q27 15 53 28l116 52v46h-374l-39 40h450v-306q14 -3 20.5 -8t14.5 -12l23 -21l23 -27l39 -61v535l10 -8l5 -35l3 -17l10 -25l23 -15h54l41 -40h-103v-513l-10 10l-18 52l-9 21l-12 21l-29 39q-31 33 -85 60v-273z" />
    <glyph glyph-name="uni099E09CD099A.akhn" horiz-adv-x="751" 
d="M702 155q-34 -48 -87 -48q-49 0 -100 40q-19 18 -34 38l-26 42q-12 24 -51 140l-3 -401v1l-34 67q-8 20 -37 49q-16 16 -36 31t-41 25q-36 18 -67 26l-65 9l-63 104l105 69l82 49l90 50q-5 33 -18.5 52.5t-34 32t-46 18t-52.5 5.5q-71 0 -83 -53q0 -18 19 -24q17 0 20 -1
q8 -4 8 -23q0 -15 -4 -27.5t-12 -22t-18.5 -14.5t-22.5 -5q-13 0 -19 3l-37 18q-9 7 -17 43l-1 17q0 19 10 36.5t26.5 32.5t38 27.5t43.5 18.5q15 3 30 5.5t32 2.5q38 0 59 -13q18 -10 31.5 -19t23.5 -17q12 -11 21 -23t35 -69v206l37 -44v-253q30 104 47 133l31 34
q12 14 26.5 26t31.5 22q40 24 75 24q12 0 22 -2.5t19 -8.5q22 -10 36 -34q23 -36 23 -89q0 -35 -10.5 -61.5t-42.5 -53.5q30 -24 44 -55t14 -71q0 -20 -4.5 -36.5t-13.5 -28.5zM683 491q-8 15 -34 27l-39 10q-16 0 -28.5 -2.5t-24.5 -7.5q-50 -17 -99 -75q-7 -9 -14 -21
t-12 -22l-5 -38q0 -30 18.5 -64t56.5 -81q41 -48 92 -48q17 0 33.5 5.5t30.5 16.5t23 26t9 34q0 9 -2 18.5t-7 16.5q-4 7 -11 14.5t-25 21.5q-31 -29 -65 -29q-22 0 -35 13t-13 45q0 12 5 25t14.5 23t20.5 16t23 6q10 0 21 -4.5t27 -21.5l29 20q22 17 22 43q0 15 -11 33z
M365 387l-112 -71l-99 -70l65 -31q16 -9 30.5 -18.5t25.5 -21.5l40 -38l50 -69v319z" />
    <glyph glyph-name="uni099E09CD099B.akhn" horiz-adv-x="655" 
d="M31 460q0 53 61 98q33 23 64.5 34.5t60.5 11.5l26 -4q33 -10 55 -34.5t38 -76.5l59 61l36 33q11 7 21 12t20 9l21 6l18 1q26 0 48 -19q36 -36 36 -80l-1 -18q0 -20 -7 -37t-31 -43l26 -30l11 -19l7 -16q3 -8 4.5 -14.5t1.5 -10.5l-1 -14v-20t-2 -14.5t-4.5 -12.5
t-9.5 -14q-6 -9 -13.5 -15t-15.5 -12l-32 -5l-25 3q-53 16 -97 57q-15 12 -26 25t-20 27q-15 26 -26 85l-66 -83l18 -40l17 -27q6 -7 28 -26l61 -49q50 -41 59 -85l1 -12q0 -23 -11 -44l-15 -24q-3 -6 -11 -14.5t-19 -17t-24.5 -16t-53.5 -16.5l47 -24l43 -29l62 -45l33 -25
l38 -35q44 -37 65 -62l1 -23q-22 23 -80 65l-55 36l-73 42l-54 27l-58 20q-26 5 -58.5 10.5t-67.5 10.5l-54 94l27 -10l57 -4q76 0 111 7q18 3 33.5 9.5t28.5 15.5t22 18t14.5 19.5t7.5 23t2 32.5q-4 7 -10.5 12.5t-16.5 12.5l-38 22q-5 -12 -7 -13l-8 -9q-4 -3 -8 -7
l-27 -21l-49 -26l-17 -2l-31 -5l-35 4q-11 2 -19.5 4.5t-18.5 7.5q-19 6 -31 14t-19.5 16.5t-12.5 18.5t-8 23l-3 15q-2 6 -2.5 11t-0.5 11.5v16.5q0 34 98 91q33 19 57 34t40 27l42 38q22 26 22 55q0 19 -5 33q-16 45 -60 45q-11 0 -19.5 -1.5t-15.5 -4.5
q-25 -10 -42 -17.5t-25 -14.5q-7 -7 -13.5 -16t-16.5 -31q21 -9 22 -12q13 -11 13 -29q0 -7 -1 -12.5t-4 -11.5q-9 -26 -46 -26q-23 0 -40.5 14t-21.5 45zM570 314q3 9 2 16.5t-5 16.5l-37 41q-19 -32 -41 -32q-18 0 -35 15q-14 17 -14 37l2 16q1 2 5 7t10 11q11 8 27 8
q11 0 33 -12q14 8 20.5 13.5t11.5 12t7.5 14.5t4.5 18l-1 14q-5 38 -51 38q-30 0 -63 -17l-47 -27q-30 -22 -40 -51l-8 -37q0 -22 9.5 -41.5t31.5 -45.5q8 -11 20.5 -22.5t28 -20t32 -14t32.5 -5.5q45 0 65 47zM289 213q7 5 -4 32l-13 33l-1 21l-10 19l-160 -101l-9 -9
l-2 -9q0 -18 36 -36q38 -13 57 -13l38 5q12 2 32 12q39 16 36 46z" />
    <glyph glyph-name="uni099E09CD099C.akhn" horiz-adv-x="685" 
d="M645 241q-6 -5 -21 -18.5t-29 -30.5l-22 -30l-17 -34q-7 -20 -10 -37.5t-3 -35.5q0 -41 7 -66q2 -6 10 -21t18 -30l-17 -15l-29 50q-9 16 -14 30.5t-7 25.5l-3 34v16l1 32l11 62q3 10 8 24t17 37l10 42q-56 0 -92 20l-59 45l-37 37q-10 13 -17 25t-18 37l-54 -74
q-20 -38 -29.5 -62t-9.5 -37q0 -27 33 -27q13 0 26 4t25 11.5t20.5 18t9.5 12.5q1 -1 10.5 -5.5t17.5 -10t14.5 -12t12.5 -16.5q15 -18 23 -47t8 -69q0 -13 -1.5 -22.5t-4.5 -17.5q-1 -7 -6 -15.5t-13 -19.5q-11 -16 -23.5 -27.5t-27.5 -19.5q-31 -15 -68 -15t-69 12
q-45 13 -91 79q-16 27 -30 57.5t-23 65.5l-22 99l-6 42l14 -12l26 -102l19 -44q10 -23 18 -38.5t14 -21.5q9 -13 25.5 -26t39.5 -28q44 -23 67 -19q43 4 82.5 34t39.5 70l-3 17q0 5 -3.5 11.5t-9.5 13.5q-5 5 -12 8t-19 5l-15 -2l-29 -10l-17 -6l-19 -3l-24 3q-11 3 -25 12
q-2 1 -7.5 8t-11 18.5t-9.5 25t-4 27.5q0 17 4.5 34t13.5 34l37 62l35 52q7 11 11 34l2 21q0 21 -4 30q-3 5 -6.5 8.5t-12.5 7.5q-16 0 -26 -1.5t-17 -4.5q-14 -4 -44 -31q-14 -11 1 -27q10 -15 10 -44q0 -20 -14.5 -33t-44.5 -20q-22 -3 -43 10q-23 15 -23 48q0 48 51 101
q51 55 111 55q26 0 44 -8q22 -7 39 -27q8 -8 21 -32q11 -25 32 -11l37 25q17 12 29.5 19.5t20.5 10.5l18 6l33 6l31 1l21 -4q9 -1 15 -3t11 -4l27 -20q8 -7 15 -20t12 -31v-17l-3 -17q-2 -6 -7 -12l-21 -25l-11 -16l27 -33l9 -16q1 -4 2.5 -9t2.5 -12q0 -25 -7 -42t-36 -41z
M588 398q-7 14 -22 18q-6 -2 -9.5 -3t-12.5 -8l-16 -8l-8 -1h-3l-15 3l-23 11q-12 10 -12 34q0 9 5.5 18.5t13.5 17.5t16.5 11.5t16.5 2.5q6 0 11 -1.5t9 -4.5l28 -12q31 11 31 45q0 16 -5.5 28t-19.5 24l-27 5q-42 0 -88 -27l-36 -23q-18 -12 -30 -22q-40 -31 -30 -57
q9 -23 26 -50l34 -45q7 -7 14 -12.5t17 -11.5l44 -17l27 -3q21 0 44 14q14 6 22.5 20.5t8.5 28.5t-6 18z" />
    <glyph glyph-name="uni099E09CD099D.akhn" horiz-adv-x="797" 
d="M715 306l20 -35q3 -9 6 -18.5t4 -20.5l4 -49q0 -21 -8 -34l-5 -7q-7 -7 -16.5 -13t-20.5 -11q-8 -3 -18 -23v-129l-23 10l-21 32l-23 20q-14 13 -27.5 21t-28.5 14l-85 29v-126l-21 9q-4 32 -57 80q-15 13 -40 31l-59 41q-19 12 -40 22t-47 19l-67 18l-51 72l63 37l65 38
l73 43l62 39l17 19q8 14 11 29q0 11 -8 27.5t-24 33.5l-22 21l-18 7l-57 12q-27 0 -38 -6l-16 -6l-23 -13l-30 -23q-20 -22 -36 -90l30 30l11 4q6 0 25 -16l5 -5l4 -20q0 -14 -11 -28l-27 -12l-18 -2q-10 0 -16 3l-11 7l-12 15l-17 23q-3 8 -3 35q1 11 2.5 19t3 12t2.5 6
t5 6q4 11 11 18q27 34 69 54q0 1 5 2l10 4l12 4l11 3l42 4q9 0 22.5 -3t28 -8t29.5 -12.5t26 -15.5q29 -25 41 -50q13 -22 38 -192v299l42 -26v-162q26 54 30.5 62t6.5 10l22 26q8 11 22.5 22t38.5 24l39 15q16 0 29 -2.5t22 -6.5q7 -2 18 -10q10 0 26 -17l17 -19l8 -22
l6 -28q0 -13 -4 -27.5t-9.5 -29t-12.5 -26.5t-12 -21q-7 -11 -11.5 -15.5t-20.5 -9.5zM736 214l1 13q0 17 -6 30q-2 6 -6.5 12.5t-11.5 13.5l-14 18q-14 10 -34 16v-15.5t-1 -3t-4.5 -4.5t-10.5 -7l-24 -7q-19 0 -33 7q-11 2 -18 13l-14 22l-5 17q0 4 2.5 11.5t6 14.5
t7 11.5t6.5 5.5l15 9q4 2 11 4t15 4l20 -3l16 -9l15 -12q14 0 28 10.5t23 23.5l11 16l9 24l-3 24q0 17 -12 34l-19 20q-6 7 -14 10t-16 5l-26 3l-37 -3l-28 -8l-42 -30q-7 -4 -14.5 -12.5t-15.5 -18.5t-15.5 -22t-13.5 -26l-9 -41v-75l11 -26l20 -45l33 -33l32 -26l34 -22
q13 -8 38 -12h15q5 0 9.5 0.5t8.5 2.5l30 17q16 12 27 35zM429 389l-266 -160q90 -37 157 -82q19 -11 45 -43l64 -77v362zM660 103q-34 0 -75 31q-37 27 -56 50l-14 17l-42 62v-125l48 -26l41 -25q21 -12 42 -31.5t56 -63.5v111z" />
    <glyph glyph-name="uni099F09CD099F.akhn" horiz-adv-x="525" 
d="M169 571v-300q0 -26 13 -48q3 -4 5 -7t4 -5q11 -12 32 -12q14 0 28 6t28 16l21 16q6 5 11 10.5t11 12.5q10 14 18 29t15 31l21 68l-27 9q-4 1 -8 3t-9 5q-4 2 -9.5 6.5t-15.5 13.5q-7 10 -7 28q0 5 2.5 13.5t6.5 17.5t10 15.5t10 9.5q16 6 31 9l21 -3q10 -2 19.5 -8
t16.5 -14l19 -32l4 -24l2 -41v-28t-1 -18t-3 -13.5t-5 -15.5q-4 -16 -13.5 -38t-25.5 -54l28 -65l5 -21l5 -21l-3 -31q-5 -14 -13 -27q-13 -23 -49 -48q-42 -29 -89 -29q-52 0 -100 34l-25 14l-21 17q-22 14 -48 49l-16 27l-12 25l-23 59q-6 21 -10 36.5t-4 8.5l12 -6
l20 -43q8 -16 16 -30t17 -25l40 -46l20 -15l31 -19q34 -19 77 -19q18 0 37.5 4t40.5 12q78 32 78 71q0 17 -9 30.5t-38 30.5q-8 -11 -16 -17.5t-17 -12.5t-17.5 -11t-15.5 -7q-30 -13 -50 -13q-19 0 -36 11q-18 3 -38 22q-10 8 -16.5 17t-10.5 19l-9 18q-5 8 -5 38v305h-128
l-39 40h415l18 9q18 21 18 40q0 18 -10 28q-3 7 -35 17l-47 5l-24 -1l-51 -3l-72 -1q-66 0 -96 7q-27 7 -66 42q-8 9 -15 19t-13 20l-6 18l-2 23q0 13 3 24.5t7 20t7.5 12t0.5 3.5l13 -8q11 5 4.5 0t-13.5 -13l-7 -25l1 -24q0 -18 33 -35l30 -12l27 -3l27 -1h23l31 1h119
l32 -5q32 -4 59.5 -25t47.5 -55q13 -37 13 -78h64l41 -40h-371z" />
    <glyph glyph-name="uni099F09CD09F1.blwf" horiz-adv-x="499" 
d="M332 77q-41 -24 -61 -37l-31 -24l-54 -50q60 -9 90 -30q10 -9 20 -17.5t35 -42.5zM365 163v-364l-22 8q-19 39 -39 61q-58 65 -131 65l-36 62l75 56l-43 -1q-12 0 -32 12q-10 7 -26 29q-12 15 -19.5 29t-11.5 28l-4 36v387h-71l-34 40h413v34q0 17 -5 30t-22 24
q-30 17 -73 17l-50 -1h-37l-30 -5q-9 0 -16 -0.5t-10 -1.5h-15q-38 0 -74.5 10t-60.5 35q-9 7 -15.5 16t-12 20t-8.5 21t-3 20t1.5 17t3.5 12q4 11 13 23q1 2 5 3h1v2l2 -7q-14 -13 -14 -34l3 -18l8 -20l28 -22l23 -11l32 -6l36 2l42 3l60 2l62 4q31 0 54 -5.5t39 -16.5
q18 -11 35 -30t28 -43q4 -13 5.5 -24.5t1.5 -18.5v-31h71l32 -40h-411v-412q0 -18 13 -39q16 -14 43 -14q15 0 31.5 5.5t35.5 18.5t40 33.5t45 50.5q29 39 36 94l-31 -5q-25 0 -47 16q-18 16 -18 42l2 18q9 29 27 41t42 12q6 0 10 -0.5t6 -1.5q35 -7 59 -45l11 -27l5 -39
q0 -25 -4 -46.5t-10.5 -40.5t-17.5 -36q-10 -15 -26 -33z" />
    <glyph glyph-name="uni099F09CD09AE.akhn" horiz-adv-x="639" 
d="M318 160l62 18q47 0 58.5 -4t23.5 -13l21 -14l17 -18l43 -48v490h-374v-300q0 -26 13 -48q3 -4 4.5 -6.5t4.5 -5.5q11 -12 32 -12q14 0 28 6t28 16l21 16q6 5 11.5 10.5t10.5 12.5q10 14 18 28.5t15 30.5l21 69l-26 10q-5 1 -9.5 3t-8.5 4t-9.5 7t-14.5 13q-8 10 -8 28
q0 6 2 14t6.5 17t10 15.5t10.5 9.5q16 6 31 9l21 -3q10 -2 19.5 -8t16.5 -14l18 -32l5 -24l2 -41v-28t-1 -18t-3 -13.5t-5 -15.5q-4 -16 -16.5 -48.5t-37.5 -56.5q-19 -18 -61 -56zM636 611l38 -40h-95v-600l-13 12l-21 52q-26 54 -41 67l-20 19l-25 6q-17 0 -30 -13l-7 -10
l-4 -27q0 -8 -7 -16q-7 -9 -19 -15t-21 -6l-12 1q-4 0 -7.5 1t-9.5 4q-11 4 -17 9l-11 11l-7 19l-3 12l4 20l6 19q3 4 35 44q-48 -24 -53 -26q-31 -13 -51 -13q-19 0 -36 10q-17 4 -38 23q-11 8 -17 17t-11 20l-8 18q-5 7 -5 37v305h-128l-39 40h415l18 9q18 21 18 40
q0 18 -9 28q-4 7 -36 17l-47 5l-24 -1l-51 -3l-72 -1q-67 0 -96 7q-27 6 -66 42q-8 9 -15 18.5t-13 20.5l-6 18l-2 23q0 13 2.5 24.5t7 20t8 12t0.5 3.5l14 -8q10 5 3.5 0t-13.5 -13l-7 -25l1 -24q0 -18 33 -35l31 -12l26 -3l27 -1h23l31 1h118l33 -5q32 -5 59.5 -25.5
t47.5 -54.5q13 -37 13 -78h201z" />
    <glyph glyph-name="uni099F09CD09F0.blwf" horiz-adv-x="522" 
d="M211 12l42 -1h20l21 -1q8 0 22 -7l16 -7l21 -17l13 -13l34 -44l-5 245q-43 -42 -66.5 -61.5t-46.5 -32.5q-22 -15 -48 -19l-29 -4h-10q-12 0 -31 13q-11 6 -27 28q-12 15 -19.5 29t-11.5 28l-4 35v388h-116l-24 40h448v34q0 17 -5 29.5t-21 24.5q-31 17 -74 17l-51 -1
h-36l-30 -5q-10 0 -17 -0.5t-9 -1.5h-15q-38 0 -74.5 10t-61.5 35q-8 7 -15 16.5t-12 20t-8 20.5t-3 20t1.5 17t3.5 12q4 11 12 23q1 2 7 3v0v2l2 -6q-14 -13 -14 -35l3 -18l7 -20l28 -22l25 -10l32 -7l35 2l42 3l61 2l62 4q30 0 52.5 -5.5t38.5 -16.5q18 -11 35.5 -30
t28.5 -42q4 -14 5.5 -25t1.5 -19v-31h69l17 -40h-394v-412q0 -18 13 -38q16 -15 43 -15q15 0 31.5 5.5t35.5 18.5t40.5 33.5t44.5 50.5q29 39 36 94l-31 -5q-24 0 -47 16q-19 16 -19 42l3 18q8 29 26.5 41t42.5 12q5 0 9.5 -0.5t7.5 -1.5q34 -7 58 -45l11 -26l4 -40
q0 -33 -4.5 -57t-10.5 -30v-365l-6 5l-27 44q-34 42 -89 42l-92 -3l-61 -1l-39 -2q-18 0 -38 2.5t-37.5 7.5t-32.5 12t-24 16q-10 9 -18 21.5t-14 27.5l-9 32l-3 33q0 10 0.5 16.5t1.5 9.5l1 24q0 10 8 25l4 7l10 -10l-5 -16l-2 -31q0 -28 6 -43q16 -40 63 -57l58 -14l38 -3
l33 1z" />
    <glyph glyph-name="uni099F09CD09F0.blwf.1" horiz-adv-x="522" 
d="M211 12l42 -1h20l21 -1q8 0 22 -7l16 -7l21 -17l13 -13l34 -44l-5 245q-43 -42 -66.5 -61.5t-46.5 -32.5q-22 -15 -48 -19l-29 -4h-10q-12 0 -31 13q-11 6 -27 28q-12 15 -19.5 29t-11.5 28l-4 35v388h-116l-24 40h448v34q0 17 -5 29.5t-21 24.5q-31 17 -74 17l-51 -1
h-36l-30 -5q-10 0 -17 -0.5t-9 -1.5h-15q-38 0 -74.5 10t-61.5 35q-8 7 -15 16.5t-12 20t-8 20.5t-3 20t1.5 17t3.5 12q4 11 12 23q1 2 7 3v0v2l2 -6q-14 -13 -14 -35l3 -18l7 -20l28 -22l25 -10l32 -7l35 2l42 3l61 2l62 4q30 0 52.5 -5.5t38.5 -16.5q18 -11 35.5 -30
t28.5 -42q4 -14 5.5 -25t1.5 -19v-31h69l17 -40h-394v-412q0 -18 13 -38q16 -15 43 -15q15 0 31.5 5.5t35.5 18.5t40.5 33.5t44.5 50.5q29 39 36 94l-31 -5q-24 0 -47 16q-19 16 -19 42l3 18q8 29 26.5 41t42.5 12q5 0 9.5 -0.5t7.5 -1.5q34 -7 58 -45l11 -26l4 -40
q0 -33 -4.5 -57t-10.5 -30v-365l-6 5l-27 44q-34 42 -89 42l-92 -3l-61 -1l-39 -2q-18 0 -38 2.5t-37.5 7.5t-32.5 12t-24 16q-10 9 -18 21.5t-14 27.5l-9 32l-3 33q0 10 0.5 16.5t1.5 9.5l1 24q0 10 8 25l4 7l10 -10l-5 -16l-2 -31q0 -28 6 -43q16 -40 63 -57l58 -14l38 -3
l33 1z" />
    <glyph glyph-name="uni09A009CD09F0.blwf" horiz-adv-x="547" 
d="M242 -30l42 -1h20l21 -1q7 0 22 -7l16 -7l21 -16l13 -14l33 -43v199q-27 -22 -41 -31l-33 -21q-31 -17 -63 -17l-22 3l-31 5q-7 1 -13.5 3.5t-12.5 7.5q-31 13 -65 53q-12 16 -25 49q-4 16 -6 30.5t-2 31.5q0 33 6 49q12 4 26.5 10t25.5 12q28 14 53 40q48 48 67 87
q11 22 16 41.5t5 42.5q0 21 -3 42.5t-12 51.5h-291l-27 41h284v27q-3 7 -12 21l-21 32q-27 39 -46 96q-16 57 -16 80q0 17 4 32.5t14 31.5q13 27 35 43l53 -45q-30 -13 -47 -30q-28 -26 -28 -73q0 -43 49 -117l44 -60l33 -38h213l42 -40h-235q32 -34 46 -54t27 -41l34 -81
q9 -23 15 -43t10 -37l6 -78q0 -14 -1.5 -24.5t-4.5 -18.5l-13 -44q-1 -4 -2 -7.5t-39 -70.5l39 40v-288l-7 6l-27 44q-17 21 -40 31t-49 10l-93 -2l-60 -1l-39 -3q-18 0 -37.5 3t-37.5 8t-33 12.5t-24 15.5q-10 9 -18 21.5t-14 28.5l-9 31l-3 33q0 10 0.5 16.5t1.5 10.5
l1 22q0 10 8 27l3 6l10 -10l-4 -15l-3 -32q0 -29 7 -44q16 -39 63 -56l58 -13l38 -4l33 1zM450 294q0 21 -4.5 45.5t-14 50t-24 51.5t-53.5 76l7 -83q0 -45 -16.5 -89.5t-48.5 -83.5q-10 -13 -22.5 -24t-30.5 -20l-38 -21l-23 -13q-13 -7 -13 -38q0 -14 3 -28.5t8.5 -26.5
t13.5 -21.5t19 -12.5l28 -9l26 -4l23 1l24 9l22 13q6 2 15 8t20 16q11 7 20.5 17.5t18.5 22.5l13 22l12 32q15 49 15 110z" />
    <glyph glyph-name="uni09A109CD09A1.akhn" horiz-adv-x="1048" 
d="M728 571v-207q0 -39 14 -46q26 0 70 40l83 85l14 -8q12 -9 29 -32t34 -57q20 -46 20 -93q0 -43 -18 -97q-17 -53 -57 -86q-43 -37 -108 -37h-16l-27 5q-82 15 -148 118l-67 123l-16 -56l-11 -35q-13 -34 -64 -67q-26 -16 -51.5 -24.5t-49.5 -8.5l-31 4q-71 17 -122 62
q-22 20 -43 48.5t-41 68.5l-14 33l-20 56q-14 36 -28 102l-5 45l15 -8l11 -33l16 -47l19 -52q12 -29 25 -53t29 -43l34 -45q27 -28 85 -45q14 -5 28 -6.5t26 -1.5q46 0 84.5 19.5t62.5 51.5q25 31 30 49l9 28q5 25 -8 53q-8 25 -41 56q-6 -32 -44 -67q-17 -15 -30 -25.5
t-21 -15.5q-37 -20 -64 -20q-42 0 -68 70l-2 16v183h-242l-39 40h1053l39 -40h-334zM966 278q0 25 -8.5 44t-36.5 58q-7 -33 -49 -72q-31 -28 -49 -40q-40 -24 -66 -24q-45 0 -66 72q0 11 -2 14v241h-399v-177q17 -12 29 -12q10 0 31 8l34 23l34 34l32 40l8 10
q2 -1 8.5 -5.5t13.5 -13t16 -20.5l20 -33l14 -26l16 -36l31 -77q22 -60 33 -72q36 -50 57 -68q22 -14 62 -27q12 -4 25 -5.5t25 -1.5q27 0 50.5 7t43.5 18.5t36 27t27 33.5l20 39q3 8 5 18t5 23z" />
    <glyph glyph-name="uni09A109CD09F0.blwf" horiz-adv-x="627" 
d="M304 -34l42 -1h20l21 -1q7 0 22 -6l16 -7l21 -17l13 -14l33 -42v211q-19 -15 -23 -16.5t-8 -5.5q-28 -16 -63.5 -24t-76.5 -8q-77 0 -135 68q-9 11 -26 39l-42 75l-33 89q-5 16 -11.5 48.5t-13.5 81.5l-7 71l12 -7q0 -19 4.5 -47t14.5 -61q3 -8 5.5 -18.5t7.5 -22.5
l17 -39q13 -31 26 -55t27 -42l35 -42q27 -27 84 -47q26 -7 54 -7q25 0 49 5.5t44.5 16t37.5 24.5t27 30q11 16 17.5 34.5t11.5 39.5l-1 19q0 12 -8 33q-4 8 -11 19.5t-29 38.5q-7 -35 -46 -71q-15 -13 -27.5 -23.5t-23.5 -17.5q-33 -21 -61 -21q-13 0 -23 4.5t-18 13.5
q-11 13 -29 53l-3 103v151h-242l-39 40h642l40 -40h-362v-253q36 0 80 29q22 16 39 33.5t29 36.5l10 15l10 11q9 -4 17 -12l24 -26q9 -12 18.5 -27t16.5 -31q20 -48 20 -94q0 -43 -17 -99q-2 -4 -3 -7.5t-4 -9.5v-316l-7 5l-27 45q-17 21 -39.5 31t-48.5 10l-93 -2l-60 -2
l-40 -2q-18 0 -37.5 2.5t-37.5 8t-32.5 12.5t-24.5 15q-20 18 -31 50l-9 31l-3 34q0 9 0.5 15.5t1.5 10.5l1 23q0 5 2 11t6 15l3 7l11 -10l-5 -16l-2 -31q0 -29 6 -44q15 -39 63 -56l57 -14l39 -4l33 1z" />
    <glyph glyph-name="uni09A209CD09F0.blwf" horiz-adv-x="522" 
d="M211 12l42 -1h20l21 -1q8 0 22 -7l16 -7l21 -17l13 -13l34 -44l-5 245q-43 -42 -66.5 -61.5t-46.5 -32.5q-22 -15 -48 -19l-29 -4h-10q-12 0 -31 13q-11 6 -27 28q-12 15 -19.5 29t-11.5 28l-4 35v388h-116l-24 40h554l17 -40h-394v-412q0 -18 13 -38q16 -15 43 -15
q15 0 31.5 5.5t35.5 18.5t40.5 33.5t44.5 50.5q29 39 36 94l-31 -5q-24 0 -47 16q-19 16 -19 42l3 18q8 29 26.5 41t42.5 12q5 0 9.5 -0.5t7.5 -1.5q34 -7 58 -45l11 -26l4 -40q0 -33 -4.5 -57t-10.5 -30v-365l-6 5l-27 44q-34 42 -89 42l-92 -3l-61 -1l-39 -2
q-18 0 -38 2.5t-37.5 7.5t-32.5 12t-24 16q-10 9 -18 21.5t-14 27.5l-9 32l-3 33q0 10 0.5 16.5t1.5 9.5l1 24q0 10 8 25l4 7l10 -10l-5 -16l-2 -31q0 -28 6 -43q16 -40 63 -57l58 -14l38 -3l33 1z" />
    <glyph glyph-name="uni09A309CD099F.akhn" horiz-adv-x="739" 
d="M633 641q-3 17 -8 29t-21 24q-14 10 -30 13.5t-38 3.5l-50 -1h-37l-30 -5q-19 0 -26 -2h-15q-37 0 -73.5 10.5t-61.5 35.5q-16 14 -27.5 35.5t-11.5 40.5q0 17 6 30q2 9 13 22q0 2 5 3h1v2l1 -6q-13 -13 -13 -35l2 -17l7 -21l29 -22l24 -10l32 -7l35 3l42 2l61 2l62 4
q30 0 50 -5.5t36 -17.5q18 -9 35 -28.5t29 -43.5q4 -12 4.5 -17t2.5 -13l-3 -39h54l40 -40h-360v-445q0 -51 46 -51q57 0 143 110q25 29 30 95q-24 -5 -29 -5q-28 0 -47.5 16.5t-19.5 42.5q0 2 1 5l2 11q10 55 63 55q8 0 27 -4q36 -7 57 -50q4 -16 14 -66q-7 -56 -20 -89
q-7 -21 -44 -78q-16 -22 -63 -58q-47 -33 -72 -40q-38 -8 -61 10q-53 37 -65 96v295q-8 38 -63 100q-36 39 -107 39q-85 0 -98 -71q-1 -7 -1.5 -15.5t-0.5 -17.5q0 -23 10 -51q15 -39 41 -39q19 0 13 19q-4 12 -4 24q0 42 51 42q9 0 14 -1q20 -1 31 -18t11 -39
q0 -34 -23.5 -57t-58.5 -23q-5 0 -9.5 0.5t-9.5 1.5q-73 15 -101 58q-23 38 -20 118q3 29 28 68q36 52 86 62q19 4 41 4q24 0 58 -17q74 -29 109 -226v229h273z" />
    <glyph glyph-name="uni09A309CD09A0.akhn" horiz-adv-x="599" 
d="M631 571h-219l49 -72q17 -26 29 -51q8 -20 16.5 -45t15.5 -55q14 -58 14 -101l-3 -47q-11 -55 -35 -95t-59 -63q-8 -6 -23 -12.5t-35 -13.5l-64 -8l-34 1q-8 -3 -31 8t-48 31.5t-44 45t-20 50.5q-7 15 -7 41q0 41 7 52q12 5 35 15.5t51 25.5q30 15 49 28t26 23
q14 18 22 38l3 14l4 21l-1 17l-3 7l3 16q0 25 -19 51l-24 29q-25 29 -84 38l-17 1h-8q-52 0 -76 -29q-6 -7 -9.5 -15t-9.5 -19l-3 -27v-13q0 -61 40 -88l26 5l-6 36q0 16 14.5 28.5t37.5 12.5l14 -1q25 0 38 -37l3 -19q0 -34 -23.5 -57.5t-55.5 -23.5l-22 2q-69 14 -96 55
q-24 40 -24 122q0 24 28 66q32 51 84 62l44 5q19 0 37 -6l19 -11q48 -17 81 -74q5 -11 15.5 -36t10.5 -61l-10 -89l41 87q2 7 3.5 14t3.5 17l-5 45l-5 22l-12 30l-80 156q-1 3 -7 16t-11 27l-9 26l-4 11l-5 29l-1 31q0 41 18 66q7 9 19 20t22 18l47 -48q-26 -11 -40 -27
q-26 -25 -26 -61q0 -59 24 -111q21 -44 74 -106h209zM497 305q-3 35 -14 67q-17 55 -69 118q0 -97 -20 -142q-7 -18 -19.5 -38.5t-30.5 -41.5q-11 -11 -27.5 -25t-40.5 -31l-63 -40q-10 -3 -15 -29q0 -22 14.5 -47.5t35.5 -36.5l29 -11l28 -2q30 0 69 19t71 69q29 37 42 76
l7 36l5 36z" />
    <glyph glyph-name="uni09A309CD09A1.akhn" horiz-adv-x="600" 
d="M564 327q1 -14 -4.5 -29.5t-10.5 -23.5l-16 -19q-9 -12 -27 -30q12 -20 28 -30.5t22 -34.5q5 -18 6.5 -30.5t1.5 -14.5q0 -40 -27 -68.5t-69 -41.5q-7 -2 -18 -3t-23 -2.5t-24 -2t-19 -0.5q-27 0 -49 3t-42.5 9.5t-42 20t-45.5 34.5q-50 42 -87.5 128.5t-63.5 201.5
q-13 57 -18.5 89.5t-6.5 30.5l11 1q1 -5 7 -28t17 -56q12 -37 22 -71.5t16 -54.5q5 -14 23.5 -52t61.5 -88q10 -10 29.5 -29t37.5 -32q22 -15 38 -22.5t29.5 -11t27 -3t30.5 0.5q20 0 41 7.5t38.5 20t29 29t-8.5 34.5q10 48 12 64q-23 -16 -33 -19t-22 -3q-41 0 -66 40
q-4 8 -6.5 15.5t-2.5 16.5q0 24 20 40.5t46 16.5q21 0 42 -13q2 1 7 -2t14 -3q4 0 15.5 4.5t19.5 22.5q5 9 5 25q0 14 -2.5 30t-8.5 37q-7 27 -22.5 41t-32.5 23l-64 -93l-14 25q3 38 -33 75q-36 36 -79 31q-4 -1 -11 -1q-8 0 -18 -1q-27 -8 -48 -38l-3 -3q-14 -24 -14 -44
q0 -10 2.5 -18.5t4.5 -18.5q11 -31 32 -31h8q-9 7 -9 9q0 -6 21 -27q0 85 39 83q47 -1 38 -54q-6 -57 -75 -57q-22 0 -41.5 10t-33 26t-22 37t-8.5 43q0 27 8.5 55.5t26.5 50.5q38 52 90 52q17 0 35.5 -9t37.5 -23q10 -6 17 -18t12 -30q14 -47 29 -29l58 91l10 -12l7 -30
q8 -19 20 -44q7 -10 18.5 -20t16.5 -19l17 -33l18 -37q5 -13 5 -26q0 -17 2 -40z" />
    <glyph glyph-name="uni09A309CD09A109CD09F0.akhn" horiz-adv-x="601" 
d="M561 -176l-1 1l-13 10l-26 30l-21 21l-27 15l-29 12l-52 6l-46 -1l-55 -5l-66 -4l-45 2l-44 9q-12 3 -24.5 10.5t-24.5 19.5l-21 23q-5 4 -7 9l-8 17q-16 38 -16 67l1 19l2 46l2 8l37 -24l-6 -8l-8 -29l-2 -26q0 -27 21 -43q14 -9 47 -21l29 -8l34 -7l57 -2h75l31 -2
l30 -4l28 -4q10 0 30 -9t42 -23l12 -12l28 -40v178q-36 -26 -62 -33q-13 -3 -25.5 -5.5t-27.5 -2.5q-53 0 -111 14t-107 58q-24 21 -42 51t-33 69t-29.5 86t-28.5 103q-14 57 -20.5 89t-7.5 30l10 1q1 -5 8 -28l15 -55q12 -39 22 -66t18 -46q5 -12 17.5 -53t49.5 -96
q19 -22 55 -49q48 -32 90.5 -36t78.5 -4q37 0 67.5 20t30.5 59v18q0 18 -12 46l-31 -26q-8 -5 -19 -5q-42 0 -64 41q-9 13 -9 31q0 24 20.5 43.5t43.5 19.5q11 0 19 -4.5t22 -14.5q1 1 3.5 -1.5t11.5 -2.5q3 0 10 1t14.5 4t13.5 10.5t6 22.5q0 1 2 6.5t2 13.5q0 27 -13 67
q-6 27 -21 41t-34 23l-62 -93l-14 25q4 39 -32 75t-77 31q-4 -1 -12 -1q-7 0 -17 -1q-26 -8 -48 -38l-2 -3q-14 -20 -14 -44q0 -18 7 -38q11 -30 31 -30q8 0 3 -6q17 73 56 71q45 -1 37 -54q-6 -57 -73 -57q-23 0 -41.5 10t-33 26t-22 37t-7.5 43q0 27 8 55.5t26 50.5
q38 52 87 52q19 0 37.5 -9t35.5 -23q18 -12 29 -48q16 -53 30 -28l55 89l10 -11l8 -30q3 -11 10 -21t13 -24q4 -4 10 -12t12.5 -15.5t11.5 -15.5t7 -12q8 -16 11 -24.5t13 -28.5q5 -14 8 -32.5t5 -40.5q2 -12 -7 -24.5t-15 -22.5q-9 -14 -43 -48q10 -15 18 -18.5t14.5 -8
t12.5 -10.5t9 -16q6 -20 7 -28t1 -9q0 -5 -2.5 -14.5t-6.5 -18.5l-9 -19q-5 -9 -7 -22l25 -17v-220z" />
    <glyph glyph-name="uni09A309CD09A2.akhn" horiz-adv-x="739" 
d="M399 571v-447q0 -51 46 -51q57 0 143 110q25 28 30 95q-24 -6 -29 -6q-28 0 -47.5 17t-19.5 43q0 2 1 5l2 11q10 54 63 54q8 0 28 -4q35 -6 56 -49q4 -16 14 -66q-7 -56 -20 -89q-7 -21 -44 -78q-16 -23 -63 -58q-47 -34 -72 -39q-38 -9 -61 9q-53 38 -65 95v298
q-8 38 -63 100q-36 39 -107 39q-85 0 -98 -71q-1 -7 -1.5 -15.5t-0.5 -17.5q0 -23 10 -51q15 -39 41 -39q19 0 13 19q-4 12 -4 24q0 42 51 42q9 0 14 -1q20 -1 31 -18t11 -39q0 -34 -23.5 -57t-58.5 -23q-5 0 -9.5 0.5t-9.5 1.5q-73 15 -101 58q-23 38 -20 118q3 29 28 68
q36 52 86 62q19 4 41 4q24 0 58 -17q74 -29 109 -130v133h348l41 -40h-348z" />
    <glyph glyph-name="uni09A309CD09A3.akhn" horiz-adv-x="540" 
d="M435 -49l-14 9l-20 36l-13 28v0v0l-4 9l-20 24q-10 11 -20.5 19.5t-21 15t-21 10t-19.5 3.5l-20 -2q-13 0 -27 -8l-23 -15l27 -23l15 -15q3 -4 3 -21q0 -15 -9 -30q-1 -2 -4 -5t-10 -7q-15 -14 -46 -14l-11 1q-14 3 -25 8.5t-23 18.5l-16 29q-1 3 -2.5 10.5t-2.5 18.5
q0 36 31 63q5 5 16.5 10.5t25.5 10.5t29.5 7t28.5 2q27 0 52 -9.5t57 -35.5l18 -13l22 -29v225l1 70v16q0 8 -2 24t-12 35q-6 15 -16 30.5t-21.5 29.5t-24 25t-22.5 17q-9 5 -20 9t-24 7l-27 3q-46 0 -78 -30q-43 -40 -43 -84l-1 -21q0 -54 39 -90l46 -9l-6 29l-1 14
q0 19 12 29q16 10 35 10q10 0 18 -1t13.5 -4.5t11.5 -11.5t12 -23l5 -24q0 -27 -29 -49q-24 -23 -64 -23h-13q-56 0 -101 54q-39 53 -39 126q0 65 36.5 109t98.5 60l43 4q9 0 18.5 -1.5t17.5 -4.5l23 -11q12 -6 27 -27q80 -81 109 -151v36q-7 44 -10.5 74t-3.5 48v137v-4
l2 -2l12 -20q3 -14 8.5 -26t13.5 -22l36 -28h51l40 -40h-125v-619z" />
    <glyph glyph-name="uni09A309CD09F1.blwf" horiz-adv-x="540" 
d="M429 -77l-29 45l-18 23q-8 8 -23 18l-35 21q-12 7 -22 11.5t-21.5 7t-24 3.5t-23.5 1l-43 59l21 16l108 75l69 42v37l1 70v16q0 8 -2 24t-12 35q-6 15 -16 30.5t-21.5 29.5t-24 25t-22.5 17q-9 5 -20 9t-24 7l-27 3q-46 0 -78 -30q-43 -40 -43 -84l-1 -21q0 -54 39 -90
l46 -9l-6 29l-1 14q0 19 12 29q16 10 35 10q10 0 18 -1t13.5 -4.5t11.5 -11.5t12 -23l5 -24q0 -27 -29 -49q-24 -23 -64 -23h-13q-56 0 -101 54q-39 53 -39 126q0 65 36.5 109t98.5 60l43 4q9 0 18.5 -1.5t17.5 -4.5l24 -12q11 -3 26 -26l19 -23q12 -15 23.5 -33t21.5 -39
l46 -62q-8 86 -11.5 116t-3.5 48v137v-4l2 -2l12 -20q3 -14 8.5 -26t13.5 -22l36 -28h51l40 -40h-125v-651zM364 26l24 -29v198l-38 -21l-24 -14q-16 -6 -37 -26l-49 -36q43 -6 64 -24l26 -20z" />
    <glyph glyph-name="uni09A309CD09AE.akhn" horiz-adv-x="698" 
d="M468 611h216l38 -40h-102v-656l-13 13l-21 37q-7 13 -12.5 22.5t-11 16t-10.5 11t-8 7.5l-20 18l-24 6q-17 0 -30 -13l-7 -10l-4 -27q0 -8 -8 -16q-6 -9 -18.5 -15t-20.5 -6l-12 1q-4 0 -7.5 1t-9.5 4q-11 4 -18 9l-10 10l-8 19l-2 13l3 20l6 18q6 8 14 16q8 7 20 16v196
l1 70v16q0 8 -2 24t-12 35q-6 15 -16 30.5t-21.5 29.5t-24 25t-22.5 17q-9 5 -20 9t-24 7l-27 3q-46 0 -78 -30q-43 -40 -43 -84l-1 -21q0 -54 39 -90l46 -9l-6 29l-1 14q0 19 12 29q16 10 35 10q10 0 18 -1t13.5 -4.5t11.5 -11.5t12 -23l5 -24q0 -27 -29 -49
q-24 -23 -64 -23h-13q-56 0 -101 54q-39 53 -39 126q0 65 36.5 109t98.5 60l43 4q9 0 18.5 -1.5t17.5 -4.5l24 -12q11 -3 26 -26l19 -23q12 -15 23.5 -33t21.5 -39l38 -58l7 38q-7 44 -10.5 74t-3.5 48v137v-4l2 -2l12 -20q3 -14 8.5 -26t13.5 -22zM434 99l24 -2q10 0 21 -4
t24 -13l21 -15l17 -16l42 -51l1 573h-150v-472z" />
    <glyph glyph-name="uni09A309CD09F0.blwf" horiz-adv-x="535" 
d="M449 571v-594l-46 47v14l-7 5l-21 13l-24 12l-44 6l-38 -1l-46 -4l-53 -4l-36 1l-35 9q-10 3 -20.5 9t-19.5 17l-16 20q-4 5 -7 9l-6 16q-7 18 -10 34t-3 28l1 17l2 43l1 4l26 -20l-5 -7l-5 -27l-2 -22q0 -24 16 -40q7 -6 16.5 -11t23.5 -10l24 -8l29 -5l46 -2h61l25 -2
l24 -4l24 -4q8 0 24 -7.5t33 -20.5l22 -24v224l1 70v16q0 8 -1.5 24t-12.5 35q-5 15 -15.5 30.5t-22 29.5t-24 25t-22.5 17q-9 5 -19.5 9t-23.5 7l-28 3q-46 0 -78 -30q-43 -40 -43 -84l-1 -21q0 -54 39 -90l47 -9l-7 29l-1 14q0 19 12 29q16 10 35 10q11 0 18.5 -1
t13.5 -4.5t11.5 -11.5t12.5 -23l4 -24q0 -27 -28 -49q-25 -23 -65 -23h-12q-56 0 -101 54q-39 53 -39 126q0 65 36 109t98 60l44 4q8 0 17.5 -1.5t17.5 -4.5l25 -12q54 -35 82 -78.5t55 -111.5l-2 49q-7 44 -11 74t-4 48v137v-4l2 -2l13 -20q3 -14 8 -26t13 -22l36 -28h44
l40 -40h-118z" />
    <glyph glyph-name="uni09A409CD09A4.akhn" horiz-adv-x="625" 
d="M423 524q91 0 135 -100q3 -9 3 -25q0 -20 -2.5 -37t-9.5 -41q-6 -17 -12.5 -32.5t-20.5 -34.5q25 -26 37 -46l9 -33l4 -36q0 -41 -11.5 -71t-38.5 -46l-65 -28q-36 -9 -58 -9q-37 0 -78 17q-12 7 -23.5 13.5t-20.5 13.5l-62 63l-48 64l-39 78l-27 62l-22 59l-33 105
l15 -8l28 -77q9 -24 22.5 -52.5t33.5 -58.5l27 -45q16 -29 46 -59l40 -40q34 -28 86 -53q28 -12 60 -12q51 0 88.5 24.5t49.5 71.5l3 23q0 31 -23 51l-22 16q-17 -14 -29 -21l-24 -4q-22 0 -33.5 7.5t-22.5 22.5q-6 11 -6 30t6.5 31.5t26.5 28.5q7 4 24 6l24 -3l24 -11
q16 6 24 14t16 20q4 10 8 21.5t4 24.5q0 29 -20 53.5t-62 24.5q-30 0 -64 -12q-16 -6 -27.5 -10t-13.5 -9l-44 -29q-15 -12 -33 -39q22 -14 27 -24t11 -35q3 -25 -9 -38l-15 -8q-3 -1 -9.5 -2.5t-16.5 -2.5q-23 0 -46 16q-25 18 -25 62q0 24 12 45q34 57 95 92q16 8 31.5 14
t30.5 10q16 3 31.5 5.5t33.5 2.5zM643 571h-639l-39 40h636z" />
    <glyph glyph-name="uni09A409CD09A409CD09F1.akhn" horiz-adv-x="610" 
d="M497 -219l2 -2l-10 8l-17 14l-37 19q-27 15 -75 22l-40 2l-36 44l24 19l33 22l29 16l31 14q7 3 16 5.5t51 33.5q-59 -13 -75 -13q-37 0 -78 17q-12 7 -23.5 13.5t-20.5 13.5l-62 63l-48 64l-39 78l-27 62l-22 59l-33 105l15 -8l28 -77q9 -24 22.5 -52.5t33.5 -58.5
l27 -45q16 -29 46 -59l40 -40q34 -28 86 -53q28 -12 60 -12q51 0 88.5 24.5t49.5 71.5l3 23q0 31 -23 51l-22 16q-17 -14 -29 -21l-24 -4q-22 0 -33.5 7.5t-22.5 22.5q-6 11 -6 30t6.5 31.5t26.5 28.5q7 4 24 6l24 -3l24 -11q16 6 24 14t16 20q4 10 8 21.5t4 24.5
q0 29 -20 53.5t-62 24.5q-30 0 -64 -12q-16 -6 -27.5 -10t-13.5 -9l-44 -29q-15 -12 -33 -39q22 -14 27 -24t11 -35q3 -25 -9 -38l-15 -8q-3 -1 -9.5 -2.5t-16.5 -2.5q-23 0 -46 16q-25 18 -25 62q0 24 12 45q34 57 95 92q16 8 31.5 14t30.5 10q16 3 31.5 5.5t33.5 2.5
q91 0 135 -100q3 -9 3 -25q0 -20 -2.5 -37t-9.5 -41q-6 -17 -12.5 -32.5t-20.5 -34.5q25 -26 37 -46l9 -33l4 -36q0 -41 -11.5 -71t-38.5 -46l-19 -8v-233zM636 571h-632l-39 40h631zM467 -169v99q-29 0 -40 -2l-29 -9l-21 -10q-12 -6 -48 -41l51 -2l25 -4l20 -4z" />
    <glyph glyph-name="uni09A409CD09A5.akhn" horiz-adv-x="618" 
d="M549 571v-633l-11 7l-32 58q-16 34 -46 59l-62 45q-31 21 -60.5 35.5t-61.5 23.5l-103 15l-81 111l14 -3l38 -3q40 0 73 12l45 18q16 7 27.5 14.5t19.5 15.5l52 49q24 30 24 60q0 17 -7 33.5t-16 25.5l-24 22l-70 -82l-24 4l2 11q0 9 -3.5 21t-12.5 26q-9 16 -18.5 25.5
t-31.5 13.5q-24 0 -50 -20q-30 -22 -18 -50l39 -13q27 -11 27 -53q0 -10 -4 -19t-11.5 -16t-17.5 -11t-21 -4q-12 0 -22 3t-23 12q-20 15 -35 44l-12 30l-4 30l12 37q6 22 13 28q17 21 30.5 30.5t28.5 15.5l21 4l14 2q19 0 35.5 -10t33.5 -34l19 -32l75 81l50 -48
q20 -19 33.5 -35.5t19.5 -28.5l15 -53l5 -29q0 -30 -15.5 -58.5t-45.5 -58.5l-61 -42q-21 -16 -13 -32l16 -16q39 -24 67 -42.5t44 -35.5l87 -79v636l13 -17l4 -27q5 -15 20 -33h49l37 -40h-86z" />
    <glyph glyph-name="uni09A409CD09A8.akhn" horiz-adv-x="662" 
d="M520 -163l-14 8l-21 37l-17 36l-20 24q-9 11 -19.5 20t-21.5 15t-21 9.5t-19 3.5l-21 -1q-14 0 -26 -8l-23 -15l26 -23l16 -16q3 -3 3 -22q0 -15 -10 -29q-3 -5 -13 -11q-17 -14 -46 -14l-13 1q-13 3 -24 8.5t-23 18.5l-16 29q-3 7 -5 28q0 36 32 63q5 6 16 11.5t25.5 10
t30 7t28.5 2.5q4 0 8.5 -0.5t111.5 -0.5q-108 22 -118 25.5t-19 7.5q-19 9 -32 16.5t-22 15.5l-21 21l-38 47l-46 73l-15 30l-11 22l-58 145q-6 14 -12 38t-9 39l13 -5l26 -62l51 -105l44 -75l35 -48q11 -15 22 -27t21 -19l39 -30l43 -15l38 -4l41 3l33 10q17 5 36 17.5
t40 32.5q7 5 12.5 13.5t11.5 18.5l16 29q6 13 8.5 26.5t2.5 26.5v13q0 5 -0.5 9.5t-1.5 7.5q0 12 -10.5 35t-30.5 43l-16 12l-21 15q-7 2 -13.5 3.5t-16.5 3.5q-13 0 -24 -1.5t-34 -9.5q30 -39 30 -74q0 -26 -13 -45.5t-39 -26.5l-21 -3l-20 -1q-17 0 -32 8t-28 23
q-12 17 -21 55l-2 22q0 30 15 51l22 26q17 17 42 26.5t51 9.5l27 -3l27 -4q34 -8 62.5 -28t51.5 -51l26 -47l14 -37q11 -36 11 -71q0 -58 -26 -104q-21 -40 -80 -83l13 -5v-227zM2 571l-40 40h679l42 -40h-681zM389 44h-15t-19 -18q17 -4 36 -14t42 -28l17 -13l37 -49v140
l-41 -15q-13 -3 -57 -3z" />
    <glyph glyph-name="uni09A409CD09F1.blwf" horiz-adv-x="662" 
d="M497 -285q-19 40 -38 62q-59 65 -131 65l-37 62l103 78q25 17 42 30.5t43 42.5l-33 -8q-13 -3 -57 -3q-40 0 -82 18q-19 9 -32 16.5t-22 15.5l-21 21l-38 47l-46 73l-15 30l-11 22l-58 145q-6 14 -12 38t-9 39l13 -5l26 -62l51 -105l44 -75l35 -48q11 -15 22 -27t21 -19
l39 -30l43 -15l38 -4l41 3l33 10q17 5 36 17.5t40 32.5q7 5 12.5 13.5t11.5 18.5l16 29q6 13 8.5 26.5t2.5 26.5v13q0 5 -0.5 9.5t-1.5 7.5q0 12 -10.5 35t-30.5 43l-16 12l-21 15q-7 2 -13.5 3.5t-16.5 3.5q-13 0 -24 -1.5t-34 -9.5q30 -39 30 -74q0 -26 -13 -45.5
t-39 -26.5l-21 -3l-20 -1q-17 0 -32 8t-28 23q-12 17 -21 55l-2 22q0 30 15 51l22 26q17 17 42 26.5t51 9.5l27 -3l27 -4q34 -8 62.5 -28t51.5 -51l26 -47l14 -37q11 -36 11 -71q0 -58 -26 -104q-10 -20 -22.5 -34t-34.5 -31l-11 -6v-376zM2 571l-40 40h679l43 -40h-682z
M487 -13q-42 -24 -61 -37.5t-33 -23.5l-52 -51q40 -7 57 -13.5t32 -17.5q23 -15 55 -57z" />
    <glyph glyph-name="uni09A409CD09B2.akhn" horiz-adv-x="655" 
d="M2 571l-40 40h679l43 -40h-682zM517 82v-322l-37 17l-2 71l-11 28l-16 23q-14 18 -38 18q-14 0 -22 -7q-12 -14 -17 -32l-2 -15l-16 -1l-13 16l-19 17l-26 15l-29 7q-28 0 -42 -6q-19 -4 -32 -33l-6 -27q0 -18 7 -28l4 -10q7 -12 38 -26l-10 37l2 11q1 9 11 19q11 7 20 7
l2.5 -0.5t5.5 -0.5l19 -10l11 -15q2 -5 3.5 -12.5t1.5 -14.5q-3 -25 -19 -39q-18 -14 -35 -14q-9 0 -19 2t-19 5q-18 5 -32 19q-18 17 -30.5 36.5t-12.5 40.5l2 19l3 25q6 27 34 53q11 10 29 17.5t38 7.5l30 -1q9 0 15 -4l17 -8l19 -13l16 -19l24 -38q8 46 16 57l14 18
q3 1 15 3q7 0 12 -1t8 -2t6.5 -4.5l7.5 -7.5l11 -18l25 -58v174q-45 -17 -84 -20q-45 6 -89 24q-17 10 -30.5 17t-22.5 14l-20 22l-39 47l-45 73l-16 31l-11 21l-58 145q-5 14 -11.5 37.5t-9.5 39.5l13 -6l26 -61l51 -106l45 -74l34 -48q10 -15 21 -27t22 -19l39 -30l43 -15
l39 -4l40 3l33 9q17 6 36 18.5t41 32.5q6 6 11 14t12 18l16 29q7 13 9 26.5t2 26.5v13q0 5 -0.5 9.5t-1.5 7.5q0 11 -10.5 34.5t-29.5 43.5l-17 12l-22 15q-7 2 -13 3.5t-16 3.5q-13 0 -23.5 -1.5t-33.5 -9.5q29 -38 29 -74q0 -26 -13 -45t-39 -27l-21 -3l-19 -1
q-18 0 -33 8t-28 23q-13 17 -21 55l-2 21q0 31 15 52l22 26q17 16 42 26t51 10l27 -3l27 -4q34 -8 62.5 -28t52.5 -51l25 -47l14 -36q11 -38 11 -72q0 -58 -26 -104q-10 -20 -61 -65z" />
    <glyph glyph-name="uni09A409CD09AE.akhn" horiz-adv-x="781" 
d="M652 571h-650l-40 40h797l40 -40h-111v-740l-12 12l-21 53q-13 27 -23.5 43.5t-18.5 23.5l-20 19l-24 6q-17 0 -31 -14l-6 -10l-4 -27q0 -7 -8 -15q-6 -10 -18.5 -16t-20.5 -6l-12 2q-4 0 -7.5 1t-10.5 4q-5 1 -9.5 3.5t-7.5 4.5l-10 11l-9 19l-2 12l3 21l7 18
q6 8 14 15.5t17 13.5l96 64l-104 -42q-13 -3 -57 -3q-40 0 -82 18q-19 9 -32 16.5t-22 15.5l-21 21l-38 47l-46 73l-15 30l-11 22l-58 145q-6 14 -12 38t-9 39l13 -5l26 -62l51 -105l44 -75l35 -48q11 -15 22 -27t21 -19l39 -30l43 -15l38 -4l41 3l33 10q17 5 36 17.5
t40 32.5q7 5 12.5 13.5t11.5 18.5l16 29q6 13 8.5 26.5t2.5 26.5v13q0 5 -0.5 9.5t-1.5 7.5q0 12 -10.5 35t-30.5 43l-16 12l-21 15q-7 2 -13.5 3.5t-16.5 3.5q-13 0 -24 -1.5t-34 -9.5q30 -39 30 -74q0 -26 -13 -45.5t-39 -26.5l-21 -3l-20 -1q-17 0 -32 8t-28 23
q-12 17 -21 55l-2 22q0 30 15 51l22 26q17 17 42 26.5t51 9.5l27 -3l27 -4q34 -8 62.5 -28t51.5 -51l26 -47l14 -37q11 -36 11 -71q0 -58 -26 -104q-21 -40 -65 -72l-81 -41h48h21l18 -2q11 0 22 -4t24 -13l20 -14l18 -17l42 -51v632z" />
    <glyph glyph-name="uni09A409CD09F0.blwf" horiz-adv-x="599" 
d="M511 -29q-1 1 -9 27q-2 14 -6.5 25t-11.5 20t-17.5 15.5t-23.5 12.5q-12 4 -25 6.5t-28 2.5h-26l-35 -5q-42 -5 -70 -8t-40 -3l-27 2q-31 0 -55 6t-41 18q-14 9 -24.5 23t-19.5 32l-5 14l-11 35q-3 12 -5 26.5t-2 30.5q0 45 12 83l5 17l15 27l11 19l10 -10l-14 -22
l-11 -28l-3 -25l-3 -33q0 -41 11.5 -70t33.5 -49q10 -10 42 -23l27 -5l29 -1h17l13 3q45 6 80 6q36 0 63.5 -4.5t46.5 -13.5l79 -56v367l-6 21q-3 14 -10 14l-4 4l-20 5l-20 -2l-15 -6l-24 -11q-14 -9 -28 -20l-19 -17l-27 -22q-24 -27 -45 -88l49 7l15 -3q3 -2 15 -19
l7 -19l4 -20q0 -11 -5 -21t-12 -17t-14 -11t-13 -4l-15 -2h-11q-44 0 -69 26q-10 13 -16 31.5t-6 43.5q0 8 1 13.5t2 10.5l11 34q15 39 43 64l22 22q26 22 52 39t52 28l23 8l21 5l12 -2q11 0 26 -8l9 -4q56 -30 56 -70v-488zM4 571l-39 40h617l41 -40h-619z" />
    <glyph glyph-name="uni09A509CD09F1.blwf" horiz-adv-x="562" 
d="M479 -117l-9 8l-18 14l-37 20q-12 7 -30.5 12t-43.5 9l-41 3l-36 42l24 20l33 23l29 16l30 14q5 1 9 3t22 8q-22 25 -37 38.5t-33 26.5q-36 26 -92 50q-3 0 -8 2l-13 3q-7 3 -15 5l-18 4l-54 3l-79 104h12l17 2l30 6q38 4 98 38q64 37 91 79q14 29 14 50q0 17 -7 31.5
t-18.5 26t-27 18t-33.5 6.5q-9 0 -15.5 -0.5t-8.5 -3.5l-8 -3l-49 -25q-23 -12 -33 -33l21 -25q12 -17 12 -35q0 -7 -4.5 -16t-12.5 -17l-22 -15l-27 -4q-17 0 -29 6t-20.5 17t-12.5 24.5t-4 27.5l2 14l6 23q16 50 72 78q28 15 57.5 22.5t60.5 7.5q51 0 94 -45
q45 -44 45 -106q0 -27 -10 -54q-9 -24 -20 -42t-23 -32q-23 -25 -105 -75q38 -8 49 -18l33 -21q19 -10 73 -59q21 -21 36.5 -39t43.5 -63v648l13 -15l2 -8q0 -50 26 -71h62l41 -40h-106v-687zM447 21l-8 13q-15 -1 -22 -1.5t-10 -1.5l-29 -8l-21 -11q-8 -3 -15.5 -9.5
t-32.5 -31.5l51 -1l25 -4l21 -4l41 -27v86z" />
    <glyph glyph-name="uni09A509CD09F0.blwf" horiz-adv-x="569" 
d="M503 571l-2 -659l4 -3l-12 10l-23 31l-20 21l-23 15l-28 12l-47 7l-42 -1l-51 -5l-58 -4l-41 1l-39 9q-11 4 -22.5 11t-21.5 18l-19 23q-3 5 -7 10l-7 16q-7 20 -10.5 37.5t-3.5 30.5l1 18l2 47l1 7l32 -24l-6 -8l-6 -29l-2 -24q0 -26 18 -44q8 -5 17.5 -10.5t25.5 -11.5
l27 -8l32 -6l51 -1h67l28 -2l27 -5l26 -4q9 0 27 -8.5t37 -23.5l31 -29l-1 48l-14 21q-14 23 -34.5 44t-49.5 41q-36 25 -92 49q-2 0 -8 2l-12 3q-7 3 -16 5l-17 4l-55 3l-78 104h12l16 2l30 6q38 4 99 38q63 37 91 79q13 29 13 50q0 17 -6.5 31.5t-18 26t-27 18t-33.5 6.5
q-9 0 -16 -0.5t-9 -3.5l-7 -3l-49 -25q-23 -11 -34 -33l21 -25q13 -17 13 -35q0 -7 -4.5 -16t-12.5 -17l-23 -15l-27 -4q-16 0 -28.5 6t-20.5 17t-12.5 24.5t-4.5 27.5l3 14l5 23q17 50 72 78q29 15 58.5 22.5t60.5 7.5q50 0 94 -45q45 -44 45 -106q0 -27 -11 -54
q-8 -24 -19 -42t-24 -32q-22 -25 -105 -75q39 -8 49 -18l33 -21q19 -10 73 -59q22 -21 37 -39t43 -63v648l13 -15l2 -8q0 -51 27 -69h34l41 -40h-79z" />
    <glyph glyph-name="uni09A509CD09B2.akhn" horiz-adv-x="598" 
d="M401 88q-12 12 -27 25.5t-33 26.5q-36 26 -90 48q-2 2 -11 4l-12 4q-7 2 -16 4l-17 4l-54 3l-79 104h13l16 2l30 6q38 4 98 37q64 38 92 80q13 29 13 50q0 17 -7 31.5t-18 25.5t-27 18t-34 7q-9 0 -14.5 -0.5t-8.5 -2.5l-9 -4l-49 -25q-23 -12 -33 -34l21 -24
q12 -17 12 -35q0 -7 -4 -16t-12 -17l-24 -15l-26 -4q-17 0 -29 6.5t-20.5 17t-12.5 23.5t-4 27l2 15l6 22q16 51 72 79q29 15 58 22.5t60 7.5q51 0 95 -45q44 -44 44 -106q0 -27 -10 -54q-9 -24 -20 -42t-23 -31q-23 -26 -104 -75q37 -9 48 -19l33 -21q19 -10 73 -59
q22 -21 37 -39.5t43 -60.5v646l13 -16l2 -7q0 -50 26 -71h62l41 -40h-106v-627q-29 111 -76 144zM477 37v-232l-37 17l-2 71l-11 28l-16 23q-14 18 -38 18q-14 0 -22 -7q-12 -14 -17 -32l-2 -15l-16 -1l-13 16l-19 17l-26 15l-29 7q-28 0 -42 -6q-19 -4 -32 -33l-6 -27
q0 -18 7 -28l4 -10q7 -12 38 -26l-10 37l2 11q1 9 11 19q11 7 20 7l2.5 -0.5t5.5 -0.5l19 -10l11 -15q2 -5 3.5 -12.5t1.5 -14.5q-3 -25 -19 -39q-18 -14 -35 -14q-9 0 -19 2t-19 5q-18 5 -32 19q-18 17 -30.5 36.5t-12.5 40.5l2 19l3 25q6 27 34 53q11 10 29 17.5t38 7.5
l30 -1q9 0 15 -4l17 -8l19 -13l16 -19l24 -38q8 46 16 57l14 18q3 1 15 3q7 0 12 -1t8 -2t6.5 -4.5l7.5 -7.5l11 -18l25 -58v108h38z" />
    <glyph glyph-name="uni09A609CD09A6.akhn" horiz-adv-x="645" 
d="M658 571h-562v-267l46 52l52 58q32 31 68 56l41 25l73 -61l-18 -22q-33 -45 -48 -84l-14 -41l-8 -30l-3 -93q27 81 54 111l52 53l61 47q5 4 15 9l26 13q7 3 11 6.5t5 3.5l79 -54l-39 -61q-47 -87 -47 -146l-3 -20l-1 -28v-46l7 -43q2 -13 7 -29.5t6 -19.5l-18 12
q-14 35 -29 113l-5 48l-3 32l1 15l2 25l4 34q3 11 8 28.5t27 70.5q-54 -37 -97 -81q-17 -17 -30 -32l-24 -28l-15 -23q-6 -11 -15 -30t-12 -27l-43 70q-5 9 -9.5 20t-7.5 21l-2 23q0 27 6.5 66t76.5 132q-86 -66 -107.5 -87t-38.5 -43l-49 -71q-8 -17 -15.5 -32.5
t-8.5 -18.5l-58 57v317h-52l-39 40h652z" />
    <glyph glyph-name="uni09A609CD09A609CD09F1.akhn" horiz-adv-x="635" 
d="M498 -115l2 -1l-10 7l-17 15l-37 19q-20 14 -75 21l-40 3l-36 42l24 20l33 22l29 16l31 14q37 14 69 20l-5 50l-3 32l1 15l2 25l4 34q3 11 8 28.5t27 70.5q-54 -37 -97 -81q-17 -17 -30 -32l-24 -28l-15 -23q-6 -11 -15 -30t-12 -27l-43 70q-5 9 -9.5 20t-7.5 21l-2 23
q0 27 6.5 66t76.5 132q-86 -66 -107.5 -87t-38.5 -43l-49 -71q-8 -17 -15.5 -32.5t-8.5 -18.5l-58 57v317h-52l-39 40h645l41 -40h-555v-267l46 52l52 58q32 31 68 56l41 25l73 -61l-18 -22q-33 -45 -48 -84l-14 -41l-8 -30l-3 -93q27 81 54 111l52 53l61 47q5 4 15 9l26 13
q7 3 11 6.5t5 3.5l79 -54l-39 -61q-47 -87 -47 -146l-3 -20l-1 -15v-131v-14v-81zM468 -67v100q-29 0 -40 -2l-29 -9l-21 -10q-12 -6 -47 -41l50 -2l25 -4l20 -4z" />
    <glyph glyph-name="uni09A609CD09A7.akhn" horiz-adv-x="644" 
d="M106 571v-219l29 34q15 16 28 29l25 24q18 14 35.5 25t32.5 18q2 1 9 3l18 5q9 2 17.5 4.5t13.5 2.5l14 -2q33 -9 48 -25l31 -41q0 -2 2.5 -7t5.5 -13l2 -26l-2 -44l93 41q7 2 16 -2l16 -12q7 -3 17.5 -19t16.5 -37l8 -48l-6 -76l-1 -81q0 -26 2 -50.5t5 -48.5l8 -42
l4 -2l-12 9q-13 9 -22 22.5t-16 31.5l-10 22l-2 74l-1 56l2 132q-21 0 -34.5 -3t-29.5 -10q-16 -5 -26.5 -10.5t-21.5 -13.5v-325l-15 13l-28 48q-12 20 -35.5 39.5t-57.5 38.5l-48 20q-21 8 -44 8l-50 66l39 29l54 37l88 53l21 11l31 24v63q0 10 -3 18.5t-12 15.5l-17 3
q-30 0 -63 -16l-16 -7q-8 -4 -15 -8t-15 -10t-17 -13l-40 -36l-16 -18q-9 -11 -18 -25l-28 -45l-6 -11l-43 55v271h-62l-41 40h650l40 -40h-548zM382 257l-52 -31l-32 -19l-37 -22l-46 -33q31 -9 41 -13t17 -11q8 -3 15.5 -8.5t19.5 -15.5l34 -30q3 -2 8 -8.5t32 -43.5v235z
" />
    <glyph glyph-name="uni09A609CD09A709CD09F1.akhn" horiz-adv-x="700" 
d="M151 571v-210q22 32 26 36.5t10 8.5l27 25q15 13 29 23t25 16l46 26q34 16 61 16q10 0 20 -1.5t20 -6.5q11 -3 20 -8.5t17 -13.5q18 -12 22 -28q5 -7 6.5 -15.5t1.5 -19.5v-43l38 42l30 18q11 6 22 6l19 -3q6 0 21 -12q10 -8 22 -25q6 -12 9 -35l2 -53l-4 -77v-123l2 -27
l2 -38l5 -44q2 -17 5 -28.5t-2 -1.5q6 -1 -15 36l-15 30l-9 28l-5 30l-4 28l-2 45l2 40v31l-2 14v73l2 25q-4 28 -26 36l-22 3q-16 0 -39 -14l-19 -17l-10 -26v-398l-3 3l-23 27l-24 19l-26 18q-20 17 -61 34q-10 3 -26 8t-37 11l-35 46l55 43q-14 21 -26 26l-23 8l-26 6
l-39 45l74 53l70 45l63 40q30 20 37 36q3 14 -1.5 24t-14 16.5t-20 9t-22.5 5.5l-13 -1q-52 -12 -129 -70q-12 -9 -26.5 -23t-31.5 -34l-29 -41l-41 62v216h-105l-25 40h715l37 -40h-582zM459 349l-207 -135q27 -14 36.5 -21.5t15.5 -15.5l21 -20l27 19l27 16l36 18l44 20
v119zM459 185q-48 -11 -89 -38q-18 -9 -35 -21.5t-43 -38.5l51 -20q13 -4 20.5 -7.5t11.5 -7.5l47 -34q9 -5 37 -55v222z" />
    <glyph glyph-name="uni09A609CD09A8.akhn" horiz-adv-x="549" 
d="M396 44l-10 31l-9 43l-5 72q0 39 5.5 83.5t21.5 111.5l-48 -20q-17 -6 -36 -17l-28 -18q-12 -7 -27 -21q-38 -37 -72 -78.5t-45 -70.5l-69 74l-1 337h-66l-38 40h578l39 -40h-468v-283l41 31l81 70q19 15 38 28l43 26l75 33l93 -71l-24 -65l-43 -120l-9 -36l-4 -52l1 -23
zM419 198v-283l1 -1l-15 9l-19 35l-13 29v0v1l-5 8l-19 23q-10 12 -20.5 20.5t-21 14.5t-20.5 10t-19 4l-21 -2q-14 0 -27 -8l-22 -15l26 -23l15 -15q3 -4 3 -21q0 -15 -10 -32q0 -1 -3 -3t-10 -7q-16 -14 -45 -14l-12 2q-14 3 -25.5 8t-22.5 18l-16 30q-1 2 -2.5 9.5
t-2.5 17.5q0 37 31 64q5 5 16.5 11t25.5 10t29.5 6.5t28.5 2.5q27 0 52 -9.5t58 -36.5l17 -12l22 -31v180h46z" />
    <glyph glyph-name="uni09A609CD09F1.blwf" horiz-adv-x="471" 
d="M483 571h-374v-238l38 57q11 15 21.5 26t19.5 19q44 33 70 45l26 9l21 5q7 0 19 -5q31 -10 40 -21q17 -17 36 -67l4 -36v-414l-12 13l-24 42q-3 6 -11 14l-20 20q-8 7 -21.5 16t-34.5 21q-40 26 -81 26l-56 61l101 78l65 41l51 31l4 78l-1 13q-5 20 -22 25q-31 0 -78 -26
l-55 -41q-17 -13 -32 -30t-29 -38q-11 -17 -21.5 -38.5t-15.5 -33.5l-45 51v297h-61l-38 40h477zM363 29v205l-43 -22l-58 -33l-51 -33q33 -10 42 -13t13 -7l27 -18l37 -33z" />
    <glyph glyph-name="uni09A609CD09AD.akhn" horiz-adv-x="666" 
d="M480 216l-13 22l-13 28l-7 26q-3 14 -3 41q0 40 2 48l16 73l-60 -32l-51 -33l-37 -33q-8 -7 -18.5 -17.5l-12.5 -12.5l-41 45v200h-239l-41 40h699l37 -40h-411v-182l59 45l35 25l29 16l39 19l79 -59l-17 -26q-5 -9 -8.5 -18t-8.5 -19q-4 -11 -15 -42l-5 -61v-13l11 -35
q21 9 30 22l19 28l23 32l8 11l22 -17q48 -67 48 -137q0 -64 -25 -114q-16 -41 -52 -67l-48 -27l-25 -10l-31 -8l-25 -6l-28 -1q-28 0 -49 4t-51 17q-73 31 -121 95l-38 61l-17 33l-17 35q-6 11 -20 53l-23 73l-14 62l-13 71l-10 58l15 -11q2 -8 6.5 -29.5t14.5 -48.5
q8 -30 17 -57t22 -50q41 -104 58 -131q9 -14 23 -31l29 -40q33 -40 59 -58q6 -6 19.5 -12.5t31.5 -15.5q41 -19 82 -19h25q16 0 39 10q14 3 27.5 10.5t26.5 15.5q40 29 62 77l12 44l5 41v22l-17 79l-35 -57q-8 -12 -13 -16l-40 -37q-44 -40 -104 -40h-22l-17 4q-15 1 -34 17
q-40 30 -40 72q0 33 28 54q7 6 17 9l20 3q9 0 15 -2l19 -6q29 -14 29 -50q0 -15 -10 -25l-33 -5q23 -24 45 -24h20l20 11l13 8z" />
    <glyph glyph-name="uni09A609CD09AD09CD09F0.akhn" horiz-adv-x="454" 
d="M404 208q6 -5 9 -7q5 -6 9 -11q6 -7 7 -15v-276l-7 5l-9 13l-4 14q-6 21 -18 29q-3 2 -7 5t-12 6l-26 6l-25 2l-64 -5l-52 -3q-25 0 -44.5 4t-33.5 10q-10 5 -20.5 11t-19.5 13q-17 17 -28 41q-6 15 -8.5 28.5t-2.5 27.5v11l3 23v0l10 -9v-8l3 -22q3 -17 18 -32
q11 -13 24.5 -23t30.5 -15l96 -11l20 1l15 1q23 0 37 -1.5t21.5 -3t11.5 -3.5l8 -4l59 -45v213l-27 -23q-22 -19 -73 -42q-7 -2 -14 -3.5t-16 -1.5q-19 0 -29 2t-16 4.5t-12 6.5t-14 9l-13 11l-6 13q-8 12 -8 29q0 5 1 9t1 6l3 9q2 11 5.5 17.5t8.5 9.5q15 15 38 15
q14 0 26 -6q11 -4 18 -17l5 -23q0 -4 -1 -8t-4 -9l-16 -31q22 0 29.5 1.5t19.5 10t31 24.5l17 23l4 7l2 171l-1 13q-4 20 -23 25q-29 0 -77 -26l-55 -41q-17 -13 -32 -30t-29 -38q-11 -17 -21.5 -39t-15.5 -33l-45 52v296h-62l-37 40h477l39 -40h-374v-238l37 57
q12 16 22.5 27t18.5 17q45 34 72 46l25 9l21 5q7 0 20 -4q30 -11 39 -22q16 -17 35 -67l5 -37v-156z" />
    <glyph glyph-name="uni09A609CD09AE.akhn" horiz-adv-x="709" 
d="M4 571l-39 40h724l39 -40h-94v-690l-13 12l-20 53q-26 53 -43 66l-20 19l-24 6q-17 0 -30 -13l-7 -11l-4 -26q0 -9 -7 -16q-6 -9 -19 -15t-21 -6l-12 2q-5 0 -17 5q-6 2 -10 4l-9 4l-9 10l-8 19l-2 12l3 21l6 18l12 15q6 7 21 15l-13 43l-9 50l-7 42l-2 19v24l2 31l4 29
l21 85l-48 -18q-18 -7 -36 -18q-17 -10 -29 -17.5t-26 -20.5q-23 -21 -41.5 -41t-31.5 -39q-18 -23 -31 -43.5t-16 -27.5l-67 69v329h-67zM598 -11v582h-482v-262l39 28l82 67q18 14 38 27l44 26l74 33l93 -69l-26 -57q-31 -73 -42 -136l-5 -37l-2 -36l3 -26l3 -20v-20h16
h21l18 -1q21 0 45 -18l21 -13l17 -18z" />
    <glyph glyph-name="uni09A609CD09F0.blwf" horiz-adv-x="595" 
d="M501 -14q6 -23 27 -45l-6 8h-5q-7 0 -21 11l-13 2l-15 11l-23 16q-28 20 -79 20q-35 0 -124 -16q-44 -6 -67 -6q-30 0 -58 6.5t-50 28.5q-6 6 -12.5 13.5t-13.5 19.5q-7 16 -16 48l-6 34l-1 49v17l-1 -8l21 -11l-3 -18l1 -17l9 -26l14 -25q17 -22 40 -31l40 -9l35 -4
l24 1l29 5l38 5l38 2h29l61 -16q12 -6 23.5 -12.5t21.5 -15.5q10 -6 58 -66l-40 118l-9 44l-5 72q0 39 5.5 83t21.5 110l-48 -19q-17 -6 -36 -18l-28 -16q-12 -8 -27 -22q-38 -38 -72 -79t-45 -69l-69 73l-1 337h-136l-39 40h606l39 -40h-425v-284l42 32l80 71q19 13 39 26
l42 27l75 33l93 -70l-24 -65l-43 -121l-9 -37l-4 -50l1 -25l9 -68z" />
    <glyph glyph-name="uni09A609CD09F0.blwf.1" horiz-adv-x="595" 
d="M501 -14q6 -23 27 -45l-6 8h-5q-7 0 -21 11l-13 2l-15 11l-23 16q-28 20 -79 20q-35 0 -124 -16q-44 -6 -67 -6q-30 0 -58 6.5t-50 28.5q-6 6 -12.5 13.5t-13.5 19.5q-7 16 -16 48l-6 34l-1 49v17l20 -19l-3 -18l1 -17l9 -26l14 -25q17 -22 40 -31l40 -9l35 -4l24 1l29 5
l38 5l38 2h29l61 -16q12 -6 23.5 -12.5t21.5 -15.5q10 -6 58 -66l-40 118l-9 44l-5 72q0 39 5.5 83t21.5 110l-48 -19q-17 -6 -36 -18l-28 -16q-12 -8 -27 -22q-38 -38 -72 -79t-45 -69l-69 73l-1 337h-136l-39 40h606l39 -40h-425v-284l42 32l80 71q19 13 39 26l42 27
l75 33l93 -70l-24 -65l-43 -121l-9 -37l-4 -50l1 -25l9 -68z" />
    <glyph glyph-name="uni09A609CD09F009C1.blwf" horiz-adv-x="847" 
d="M18 194v9l-1 -8zM18 194l20 -10l-3 -18l1 -17l9 -26l14 -25q17 -22 40 -31l40 -9l35 -4l24 1l29 5l38 5l38 2h29l61 -16q12 -6 23.5 -12.5t21.5 -15.5q9 -5 63 -49q-2 -22 4 -30l-22 18l-15 11l-23 16q-28 20 -79 20q-35 0 -124 -16q-44 -6 -67 -6q-30 0 -58 6.5
t-50 28.5q-6 6 -12.5 13.5t-13.5 19.5q-7 16 -16 48l-6 34l-1 49v8zM519 295l23 -27q27 -36 61 -57q28 -19 59 -25q30 0 50.5 13.5t31.5 50.5l4 23q0 24 -12 43.5t-48 43.5l5 -51q0 -7 -1.5 -12.5t-6.5 -10.5t-15 -10t-28 -9q-6 -2 -14 1t-15 10t-11.5 16.5t-4.5 22.5
q0 14 9 29t36 29q5 2 15 3.5t22 4.5q30 0 52 -18l27 -20q15 -14 23 -35q4 -14 6 -28.5t2 -28.5q0 -28 -8 -49.5t-31 -38.5l-29 -15l-28 -5q-63 6 -110 47q-14 11 -25 23l-49 55l-17 -50l-9 -37l-4 -50l1 -25l9 -68l12 -54q5 -19 20 -37q-7 -4 -16 -5l-10 16l-39 115l-9 44
l-5 72q0 39 5.5 83t21.5 110l-48 -19q-17 -6 -36 -18l-28 -16q-12 -8 -27 -22q-38 -38 -72 -79t-45 -69l-69 73l-1 337h-136l-39 40h875l41 -40h-696v-284l42 32l80 71q19 13 39 26l42 27l75 33l93 -70l-24 -65z" />
    <glyph glyph-name="uni09A609CD09F009C2.blwf" horiz-adv-x="763" 
d="M18 194v9l-1 -8zM521 -51q3 -4 7 -8l-6 8h-1zM493 -40q2 -1 3 -3l-1 3h-2zM18 194l20 -10l-3 -18l1 -17l9 -26l14 -25q17 -22 40 -31l40 -9l35 -4l24 1l29 5l38 5l38 2h29l61 -16q12 -6 23.5 -12.5t21.5 -15.5q10 -6 55 -63l-10 2l-15 11l-23 16q-28 20 -79 20
q-35 0 -124 -16q-44 -6 -67 -6q-30 0 -58 6.5t-50 28.5q-6 6 -12.5 13.5t-13.5 19.5q-7 16 -16 48l-6 34l-1 49v8zM753 611l34 -40h-599v-284l42 32l80 71q19 13 39 26l42 27l75 33l93 -70l-24 -65l-20 -58l108 42l18 -5l31 -15q10 -5 18 -23l12 -28l-5 -47l-8 -69l-4 -46
v-33q0 -14 1 -23t3 -22l5 -30l14 -41l-41 26q-11 35 -12.5 54.5t-1.5 34.5v54l1 65v49q0 5 -0.5 9t-1.5 7q0 9 -16 20l-33 -22l-19 -7q-8 -3 -97 -36l-4 -14l-4 -50l1 -25l9 -68l12 -54q5 -19 20 -37h-4q-7 0 -21 11h-1l-39 115l-9 44l-5 72q0 39 5.5 83t21.5 110l-48 -19
q-17 -6 -36 -18l-28 -16q-12 -8 -27 -22q-38 -38 -72 -79t-45 -69l-69 73l-1 337h-136l-39 40h785z" />
    <glyph glyph-name="uni09A709CD09A8.akhn" horiz-adv-x="516" 
d="M442 -93l-14 10l-20 35l-18 37l-19 24q-10 12 -20.5 20.5t-21 14.5t-21 9.5t-19.5 3.5l-20 -1q-14 0 -27 -8l-23 -16l27 -22l15 -15q4 -4 4 -22q0 -15 -10 -30l-4 -4t-10 -7q-16 -14 -46 -14l-12 1q-13 3 -24 8.5t-23 18.5l-16 29q-1 2 -2.5 9.5t-2.5 18.5q0 37 32 63
q5 6 16 11.5t25 10t29.5 7t28.5 2.5q27 0 52 -9.5t57 -36.5l18 -12l36 -50v51q-8 13 -17.5 25t-23.5 26q-20 22 -38.5 38.5t-33.5 27.5l-38 25q-15 9 -23 12q-45 22 -112 29l-62 83l94 72l27 18l46 35q-51 0 -64 2t-29 10q-24 12 -38 38l-9 19l-5 29q0 8 1 16.5t5 17.5
t12 18t22 19q13 7 27.5 10.5t31.5 3.5q10 0 19 -3t16.5 -8.5t12.5 -13t6 -13.5l-2 -10q-3 -11 -14 -19t-34 -8q-5 0 -8.5 0.5t-5.5 2.5l-18 14q-20 -12 -20 -46q0 -15 8 -28.5t20 -23t28 -15t33 -5.5t23 3l16 8l89 53l51 30v75h101l40 -40h-102v-662zM402 446
q-29 -10 -46 -17t-33 -17l-58 -36l-49 -34l-59 -51q48 -19 72 -38q12 -6 26 -17t31 -24q15 -11 28.5 -24t24.5 -27l22 -27l41 -60v372z" />
    <glyph glyph-name="uni09A709CD09AE.akhn" horiz-adv-x="673" 
d="M361 86q-4 5 -8 9q-40 45 -71 66q-46 32 -62 37q-44 22 -112 29l-62 83l95 72l27 18l29 24q-34 11 -47.5 13.5t-29.5 9.5q-23 11 -38 37l-8 20l-5 29q0 16 5.5 34t33.5 37q26 14 60 14q19 0 35.5 -11.5t18.5 -25.5l-3 -11q-2 -12 -13.5 -19.5t-34.5 -7.5q-5 0 -7.5 0.5
t-4.5 2.5l-20 14q-19 -13 -19 -46q0 -32 27.5 -52t60.5 -20q12 0 23 3l16 8l89 52l51 31v75h278l38 -40h-95v-670l-13 12l-21 52q-26 54 -41 67l-20 19l-25 6q-17 0 -30 -13l-7 -10l-4 -27q0 -8 -7 -16q-7 -9 -19 -15t-21 -6l-12 1q-4 0 -7.5 1t-9.5 4q-11 4 -17 9l-11 11
l-7 19l-3 12l4 20l6 19q8 11 18 20zM427 109h2l17 -1q10 0 21.5 -4t23.5 -13l21 -14l17 -18l43 -48v560h-145v-462zM372 95q1 0 2 1l13 8v342q-30 -11 -46 -17.5t-32 -16.5l-58 -36l-49 -34l-60 -52q49 -17 72 -36q13 -7 27 -18l31 -24q31 -24 52 -51l22 -27z" />
    <glyph glyph-name="uni09A709CD09F0.blwf" horiz-adv-x="520" 
d="M441 -88l3 -3l-11 10l-21 30l-17 20l-22 15l-25 13l-44 6l-38 -1l-46 -5l-53 -4l-37 1l-35 9q-9 4 -19.5 10.5t-19.5 18.5l-17 22q-3 4 -6 9l-6 16q-7 20 -10.5 37t-3.5 30l1 18l2 46l1 5l27 -21l-6 -8l-5 -29l-2 -24q0 -25 17 -42q7 -6 16 -11t24 -11l24 -7l28 -7l47 -2
h61l25 -2l25 -4l23 -4q8 0 24.5 -8.5t37.5 -19.5l37 -21l-1 29q-7 25 -51 72q-41 45 -72 66q-47 32 -62 37q-45 22 -111 29l-63 83l94 72l28 18l45 35q-50 0 -63.5 2t-28.5 10q-24 11 -39 38l-9 19l-4 29q0 17 5.5 34t34.5 37q25 14 59 14q19 0 35.5 -11.5t18.5 -25.5
l-3 -11q-2 -12 -13.5 -19.5t-34.5 -7.5q-5 0 -8 0.5t-5 1.5l-18 15q-20 -12 -20 -46q0 -32 27.5 -52t60.5 -20q13 0 23 3l16 8l89 53l51 30v75h104l41 -40h-105v-659zM401 74v372q-30 -10 -45.5 -17t-32.5 -17l-59 -36l-48 -34l-60 -51q49 -18 73 -38q12 -7 26 -17l30 -24
q32 -24 53 -51l22 -27z" />
    <glyph glyph-name="uni09A809CD099C.akhn" horiz-adv-x="857" 
d="M4 571l-29 40h264l30 -40h-265zM337 329l-21 30q-18 25 -24 30q-19 19 -44 31.5t-46 12.5l-41 -6q38 -24 38 -49q-2 -7 -8 -16.5t-14.5 -16t-20 -11t-24.5 -4.5q-27 0 -39 13l-19 25q-4 6 -6.5 13t-3.5 14q0 22 7 40.5t19.5 31t30 19.5t38.5 7q44 0 86 -30l23 -21l20 -18
l23 -25l19 -28l10 -20zM251 282q18 -39 53 -71q28 -26 46 -39.5t33.5 -20t28 -7.5t27.5 -3q25 0 49 6.5t47 17.5q50 27 50 69q0 16 -8 32q-5 23 -34 27l-17 -3l-51 -19l-28 -6h-14q-12 0 -26 3t-28 11q-12 7 -25 21.5t-28 34.5q-20 36 -20 73q0 27 7 44q4 12 14 28t28 38
l50 53h-268l-40 40h739l38 -40h-336l-43 -23q-10 -46 37 -77l40 -15l47 -5l18 1l22 1q10 0 33 10l49 17l52 -53l27 -28q-16 -17 -49 -71q-41 -70 -41 -126l-5 -46v-31q0 -36 11.5 -78.5t27.5 -79.5q5 0 -1.5 0.5t-8.5 1.5q-23 7 -25 9l-33 143l-9 53l-4 41q0 40 15 99
q4 22 9.5 40.5t16.5 45.5l-26 4l-35 -1q-24 0 -50 5t-50.5 13.5t-43.5 20.5t-30 26l-35 46q-18 20 -64 -33q-34 -43 -51 -95l-1 -9v-6q0 -52 55 -52l19 4q13 0 35 12l49 25l20 9q5 3 9 -1q7 0 16 -8l16 -21q10 -12 18.5 -28t16.5 -38q16 -45 16 -69q0 -16 -5 -26
q-12 -47 -33 -68q-8 -8 -21.5 -17t-30.5 -18q-14 -5 -32.5 -9.5t-32.5 -4.5q-47 0 -93 24q-21 11 -40.5 29.5t-38.5 44.5q-20 29 -42 74q-18 43 -21 54z" />
    <glyph glyph-name="uni09A809CD09A0.akhn" horiz-adv-x="606" 
d="M13 571l-29 40h245l30 -40h-246zM327 329l-21 30q-18 25 -24 30q-19 19 -44 31.5t-46 12.5l-41 -6q38 -24 38 -49q-2 -7 -8 -16.5t-14.5 -16t-20 -11t-24.5 -4.5q-27 0 -39 13l-19 25q-4 6 -6.5 13t-3.5 14q0 22 7 40.5t19.5 31t30 19.5t38.5 7q44 0 86 -30l23 -21
l20 -18l23 -25l19 -28l10 -20zM405 571q33 -34 47 -54t27 -41l34 -81q9 -23 15.5 -43t10.5 -37l5 -77q0 -15 -1.5 -25.5t-4.5 -18.5l-13 -44q-3 -13 -8.5 -24.5t-13.5 -22.5q-11 -21 -25 -30q-11 -11 -26.5 -21t-37.5 -24q-31 -17 -63 -17l-22 3l-30 5q-16 3 -28 11
q-15 6 -31 20t-32 34q-13 15 -25 48q-5 16 -7.5 30.5t-2.5 31.5q0 16 2 29.5t5 19.5q13 4 27.5 10t24.5 12q13 7 26.5 16.5t26.5 23.5q48 49 67 87q11 22 16 41.5t5 42.5q0 21 -3 42.5t-12 52.5h-218l-41 40h224v27q-4 12 -32 53q-13 19 -24.5 43t-21.5 53q-8 28 -12 48
t-4 32q0 32 18 64q7 13 17 24.5t18 17.5l53 -45q-8 -3 -23 -11t-25 -18q-27 -26 -27 -73q0 -43 49 -117l43 -60l34 -38h203l43 -40h-227zM509 294q0 21 -4.5 45.5t-14.5 50t-24 51.5t-53 75l6 -82q0 -45 -16.5 -89.5t-48.5 -83.5q-19 -26 -53 -44l-38 -21l-23 -13
q-13 -7 -13 -38q0 -14 3 -28.5t9 -26.5t14 -21.5t18 -12.5l28 -9l27 -4l22 1l24 9l22 12q13 4 35 25q11 7 21 17.5t18 22.5l13 22l13 32q7 25 11 52.5t4 57.5z" />
    <glyph glyph-name="uni09A809CD09A1.akhn" horiz-adv-x="664" 
d="M313 349l-7 10q-18 25 -24 30q-19 19 -44 31.5t-46 12.5l-41 -6q38 -24 38 -49q-2 -7 -8 -16.5t-14.5 -16t-20 -11t-24.5 -4.5q-27 0 -39 13l-19 25q-4 6 -6.5 13t-3.5 14q0 22 7 40.5t19.5 31t30 19.5t38.5 7q44 0 86 -30l23 -21l20 -18l33 -36v183h-298l-29 40h668
l40 -40h-342v-253q36 0 80 29q22 15 39 33t28 38l11 14l10 11q9 -4 17 -12l24 -25q9 -13 18.5 -28t17.5 -31q19 -48 19 -94q0 -43 -18 -99q-16 -52 -71 -86q-28 -17 -63.5 -25t-76.5 -8q-77 0 -135 68q-9 11 -26 39l-42 74l-22 59l37 -5q2 -5 7 -13q13 -24 27 -42l36 -43
q26 -27 83 -46q27 -7 54 -7q25 0 49 6t44 16.5t37.5 24t26.5 29.5q12 16 18.5 34t11.5 40l-1 18q0 13 -9 34q-3 7 -10 19.5t-29 37.5q-6 -35 -46 -71q-14 -12 -27 -22.5t-24 -18.5q-33 -20 -61 -20q-13 0 -23 4.5t-19 13.5q-10 12 -28 53z" />
    <glyph glyph-name="uni09A809CD09A109CD09F0.akhn" horiz-adv-x="673" 
d="M543 80v-253l-1 1l-12 10l-25 31l-20 20l-24 16l-28 13l-50 6l-44 -1l-53 -5l-61 -4l-43 1l-41 10q-12 3 -24.5 10t-21.5 19l-20 22q-4 5 -7 11l-8 16q-7 20 -11 37t-4 31l1 19l2 46l1 8l35 -25l-6 -8l-7 -29l-3 -24q0 -27 20 -44q8 -6 18 -11t27 -12l28 -7l33 -6l54 -2
h71l28 -2l28 -5l28 -4q9 0 28 -8.5t39 -23.5l12 -11l28 -39v176q-30 -12 -48 -16q-36 -8 -77 -8q-77 0 -135 68q-9 11 -26 39l-42 74l-22 59l37 -5q2 -5 7 -13q13 -24 27 -42l36 -43q26 -27 83 -46q27 -7 54 -7q25 0 49 6t44 16.5t37.5 24t26.5 29.5q12 16 18.5 34t11.5 40
l-1 18q0 13 -9 34q-3 7 -10 19.5t-29 37.5q-6 -35 -46 -71q-14 -12 -27 -22.5t-24 -18.5q-33 -20 -61 -20q-13 0 -23 4.5t-19 13.5q-10 12 -28 53l-1 32l-7 10q-18 25 -24 30q-19 19 -44 31.5t-46 12.5l-41 -6q38 -24 38 -49q-2 -7 -8 -16.5t-14.5 -16t-20 -11t-24.5 -4.5
q-27 0 -39 13l-19 25q-4 6 -6.5 13t-3.5 14q0 22 7 40.5t19.5 31t30 19.5t38.5 7q44 0 86 -30l23 -21l20 -18l33 -36v183h-298l-29 40h668l40 -40h-342v-253q36 0 80 29q22 15 39 33t28 38l11 14l10 11q9 -4 17 -12l24 -25q9 -13 18.5 -28t17.5 -31q19 -48 19 -94
q0 -43 -18 -99q-13 -41 -53 -74z" />
    </font>
</defs>
</svg>
